<?xml version="1.0" encoding="utf-8"?>
<svg version="1.1" xmlns:xlink="http://www.w3.org/1999/xlink" width="12px" height="12px" xmlns="http://www.w3.org/2000/svg">
  <g transform="matrix(1 0 0 1 -19 -34 )">
    <path d="M 25 35.5  C 27.52 35.5  29.5 37.48  29.5 40  C 29.5 42.52  27.52 44.5  25 44.5  C 22.48 44.5  20.5 42.52  20.5 40  C 20.5 37.48  22.48 35.5  25 35.5  Z " fill-rule="nonzero" fill="#f56c6c" stroke="none" />
    <path d="M 25 35  C 27.8 35  30 37.2  30 40  C 30 42.8  27.8 45  25 45  C 22.2 45  20 42.8  20 40  C 20 37.2  22.2 35  25 35  Z " stroke-width="2" stroke="#ffffff" fill="none" stroke-opacity="0.647058823529412" />
  </g>
</svg>