<?xml version="1.0" encoding="utf-8"?>
<svg version="1.1" xmlns:xlink="http://www.w3.org/1999/xlink" width="153px" height="188px" xmlns="http://www.w3.org/2000/svg">
  <defs>
    <filter x="866px" y="-265px" width="153px" height="188px" filterUnits="userSpaceOnUse" id="filter8">
      <feOffset dx="0" dy="0" in="SourceAlpha" result="shadowOffsetInner" />
      <feGaussianBlur stdDeviation="6" in="shadowOffsetInner" result="shadowGaussian" />
      <feComposite in2="shadowGaussian" operator="atop" in="SourceAlpha" result="shadowComposite" />
      <feColorMatrix type="matrix" values="0 0 0 0 0  0 0 0 0 0  0 0 0 0 0  0 0 0 0.117647058823529 0  " in="shadowComposite" />
    </filter>
    <g id="widget9">
      <path d="M 878.5 -93.0000000000001  C 878.5 -93.0000000000001  878.5 -238.127071823204  878.5 -238.127071823204  C 878.5 -240.060068447612  880.067003375592 -241.627071823204  882 -241.627071823204  C 882 -241.627071823204  900.693239194924 -241.627071823204  900.693239194924 -241.627071823204  C 900.693239194924 -241.627071823204  910.695865763557 -252.261338180187  910.695865763557 -252.261338180187  C 910.695865763557 -252.261338180187  920.254237270267 -241.627071823204  920.254237270267 -241.627071823204  C 920.254237270267 -241.627071823204  1003 -241.627071823204  1003 -241.627071823204  C 1004.93299662441 -241.627071823204  1006.5 -240.060068447612  1006.5 -238.127071823204  C 1006.5 -238.127071823204  1006.5 -93.0000000000001  1006.5 -93.0000000000001  C 1006.5 -91.0670033755923  1004.93299662441 -89.5000000000001  1003 -89.5000000000001  C 1003 -89.5000000000001  882 -89.5000000000001  882 -89.5000000000001  C 880.067003375592 -89.5000000000001  878.5 -91.0670033755923  878.5 -93.0000000000001  Z " fill-rule="nonzero" fill="#ffffff" stroke="none" />
      <path d="M 878 -93.0000000000001  C 878 -93.0000000000001  878 -238.127071823204  878 -238.127071823204  C 878 -240.336210822528  879.790861000677 -242.127071823204  882 -242.127071823204  C 882 -242.127071823204  900.477112676056 -242.127071823204  900.477112676056 -242.127071823204  C 900.477112676056 -242.127071823204  910.704225352113 -253  910.704225352113 -253  C 910.704225352113 -253  920.477112676056 -242.127071823204  920.477112676056 -242.127071823204  C 920.477112676056 -242.127071823204  1003 -242.127071823204  1003 -242.127071823204  C 1005.20913899932 -242.127071823204  1007 -240.336210822528  1007 -238.127071823204  C 1007 -238.127071823204  1007 -93.0000000000001  1007 -93.0000000000001  C 1007 -90.7908610006769  1005.20913899932 -89.0000000000001  1003 -89.0000000000001  C 1003 -89.0000000000001  882 -89.0000000000001  882 -89.0000000000001  C 879.790861000677 -89.0000000000001  878 -90.7908610006769  878 -93.0000000000001  Z M 879 -93.0000000000001  C 879 -91.3431457505077  880.343145750508 -90.0000000000001  882 -90.0000000000001  C 882 -90.0000000000001  1003 -90.0000000000001  1003 -90.0000000000001  C 1004.65685424949 -90.0000000000001  1006 -91.3431457505077  1006 -93.0000000000001  C 1006 -93.0000000000001  1006 -238.127071823204  1006 -238.127071823204  C 1006 -239.783926072697  1004.65685424949 -241.127071823204  1003 -241.127071823204  C 1003 -241.127071823204  920.031361864479 -241.127071823204  920.031361864479 -241.127071823204  C 920.031361864479 -241.127071823204  910.687506175001 -251.522676360374  910.687506175001 -251.522676360374  C 910.687506175001 -251.522676360374  900.909365713791 -241.127071823204  900.909365713791 -241.127071823204  C 900.909365713791 -241.127071823204  882 -241.127071823204  882 -241.127071823204  C 880.343145750508 -241.127071823204  879 -239.783926072697  879 -238.127071823204  C 879 -238.127071823204  879 -93.0000000000001  879 -93.0000000000001  Z " fill-rule="nonzero" fill="#e4e7ed" stroke="none" />
    </g>
  </defs>
  <g transform="matrix(1 0 0 1 -866 265 )">
    <use xlink:href="#widget9" filter="url(#filter8)" />
    <use xlink:href="#widget9" />
  </g>
</svg>