<?xml version="1.0" encoding="utf-8"?>
<svg version="1.1" xmlns:xlink="http://www.w3.org/1999/xlink" width="20px" height="21px" xmlns="http://www.w3.org/2000/svg">
  <g transform="matrix(1 0 0 1 -26 -226 )">
    <path d="M 16.1362285469491 4.01872607030978  L 7.14150311922682 19.210650887574  L 1.32244504538273 21  L 0 15.1904629307344  L 8.99622479852199 0  L 16.1362285469491 4.01872607030978  Z M 2.43048006640038 19.1258614688479  L 5.82505555704267 18.0820744865994  L 1.65980347532695 15.7386703793944  L 2.43048006640038 19.1258614688479  Z M 2.22056815443518 14.3659589279499  L 6.76366167768877 16.9227984684998  L 12.0114594768267 8.06084232509571  L 7.46836595357308 5.50254089801601  L 2.22056815443518 14.3659589279499  Z M 12.7596455059036 6.79484859032371  L 14.0880880344854 4.55377654020188  L 9.54349514043193 1.99547511312218  L 8.21655198264999 4.236547163244  L 12.7596455059036 6.79484859032371  Z M 19.4918203967981 19.5366515837104  L 19.4918203967981 21  L 8.99622479852234 21  L 8.99622479852234 19.5366515837104  L 19.4918203967981 19.5366515837104  Z " fill-rule="nonzero" fill="#ffffff" stroke="none" transform="matrix(1 0 0 1 26 226 )" />
  </g>
</svg>