<?xml version="1.0" encoding="utf-8"?>
<svg version="1.1" xmlns:xlink="http://www.w3.org/1999/xlink" width="20px" height="20px" xmlns="http://www.w3.org/2000/svg">
  <g transform="matrix(1 0 0 1 -26 -290 )">
    <path d="M 10.0000000802369 6.15384615384615  C 9.57516566069896 6.15384615384615  9.23076931717824 5.80944980756215  9.23076931717824 5.38461538461538  C 9.23076931717824 5.38461538461538  9.23076931717824 0.769230769230769  9.23076931717824 0.769230769230769  C 9.23076931717824 0.344396346284008  9.57516566069896 0  10.0000000802369 0  C 10.4248344997749 0  10.7692308432956 0.344396346284008  10.7692308432956 0.769230769230769  C 10.7692308432956 0.769230769230769  10.7692308432956 5.38461538461538  10.7692308432956 5.38461538461538  C 10.7692308432956 5.80944980756215  10.4248344997749 6.15384615384615  10.0000000802369 6.15384615384615  Z M 10.0000000802369 20  C 9.57516566069896 20  9.23076931717824 19.655603653716  9.23076931717824 19.2307692307692  C 9.23076931717824 19.2307692307692  9.23076931717824 14.6153846153846  9.23076931717824 14.6153846153846  C 9.23076931717824 14.1905501924379  9.57516566069896 13.8461538461538  10.0000000802369 13.8461538461538  C 10.4248344997749 13.8461538461538  10.7692308432956 14.1905501924379  10.7692308432956 14.6153846153846  C 10.7692308432956 14.6153846153846  10.7692308432956 19.2307692307692  10.7692308432956 19.2307692307692  C 10.7692308432956 19.655603653716  10.4248344997749 20  10.0000000802369 20  Z M 5.38461550188475 10.7692307692308  C 5.38461550188475 10.7692307692308  0.769230923532565 10.7692307692308  0.769230923532565 10.7692307692308  C 0.344396503994588 10.7692307692308  0 10.4248344229468  0 10  C 0 9.57516557705324  0.344396503994588 9.23076923076923  0.769230923532565 9.23076923076923  C 0.769230923532565 9.23076923076923  5.38461550188475 9.23076923076923  5.38461550188475 9.23076923076923  C 5.80944992142273 9.23076923076923  6.15384626494345 9.57516557705324  6.15384626494345 10  C 6.15384626494345 10.4248344229468  5.80944992142273 10.7692307692308  5.38461550188475 10.7692307692308  Z M 14.6153846585891 10.7692307692308  C 14.1905502390511 10.7692307692308  13.8461538955304 10.4248344229468  13.8461538955304 10  C 13.8461538955304 9.57516557705324  14.1905502390511 9.23076923076923  14.6153846585891 9.23076923076923  C 14.6153846585891 9.23076923076923  19.2307692369413 9.23076923076923  19.2307692369413 9.23076923076923  C 19.6556036564793 9.23076923076923  20 9.57516557705324  20 10  C 20 10.4248344229468  19.6556036564793 10.7692307692308  19.2307692369413 10.7692307692308  C 19.2307692369413 10.7692307692308  14.6153846585891 10.7692307692308  14.6153846585891 10.7692307692308  Z " fill-rule="nonzero" fill="#ffffff" stroke="none" transform="matrix(1 0 0 1 26 290 )" />
  </g>
</svg>