<?xml version="1.0" encoding="utf-8"?>
<svg version="1.1" xmlns:xlink="http://www.w3.org/1999/xlink" width="13px" height="9px" xmlns="http://www.w3.org/2000/svg">
  <g transform="matrix(1 0 0 1 -906 165 )">
    <path d="M 0 5  L 1.08333333333333 5  L 1.08333333333333 8  L 11.9166666666667 8  L 11.9166666666667 1  L 9.75 1  L 9.75 0  C 9.75 0  12.3055833333333 0  12.3055833333333 0  C 12.5471666666667 0  12.6349166666667 0.0229999999999997  12.7226666666667 0.0670000000000002  C 12.8103174649077 0.109446195362322  12.8820547279668 0.175316686300726  12.9285 0.256  C 12.9750833333333 0.337000000000001  13 0.418  13 0.641  C 13 0.641  13 8.359  13 8.359  C 13 8.582  12.9750833333333 8.663  12.9274166666667 8.744  C 12.8814332883575 8.82490842914561  12.8100735898409 8.89112744120009  12.7226666666667 8.934  C 12.6349166666667 8.977  12.5471666666667 9  12.3055833333333 9  C 12.3055833333333 9  0.694416666666667 9  0.694416666666667 9  C 0.452833333333334 9  0.365083333333334 8.977  0.277333333333334 8.933  C 0.189682535092254 8.89055380463767  0.117945272033235 8.82468331369927  0.0714999999999998 8.744  C 0.026 8.663  0 8.582  0 8.36  C 0 8.36  0 5  0 5  Z " fill-rule="nonzero" fill="#409eff" stroke="none" transform="matrix(1 0 0 1 906 -165 )" />
  </g>
</svg>