<?xml version="1.0" encoding="utf-8"?>
<svg version="1.1" xmlns:xlink="http://www.w3.org/1999/xlink" width="14px" height="11px" xmlns="http://www.w3.org/2000/svg">
  <g transform="matrix(1 0 0 1 -12 -7 )">
    <path d="M 1.66249999999998 10.516  C 1.75 10.604  1.83750000000002 10.648  1.96875 10.648  C 2.09999999999998 10.648  2.1875 10.604  2.27500000000002 10.516  C 2.27500000000002 10.516  11.9 0.748000000000001  11.9 0.748000000000001  C 11.94375 0.66  11.9875 0.571999999999999  11.9875 0.44  C 11.9875 0.308000000000001  11.94375 0.22  11.85625 0.131999999999999  C 11.76875 0.0439999999999975  11.68125 0  11.55 0  C 11.41875 0  11.33125 0.0439999999999975  11.24375 0.131999999999999  C 11.24375 0.131999999999999  10.0625 1.32  10.0625 1.32  C 9.1875 0.88  8.18124999999997 0.616000000000003  7 0.483999999999998  C 4.8125 0.703999999999998  3.0625 1.496  1.83750000000002 2.904  C 0.61249999999999 4.312  0 5.104  0 5.324  C 0 5.544  0.65625 6.336  1.83750000000002 7.744  C 2.14374999999999 8.096  2.45000000000001 8.404  2.84375 8.668  C 2.84375 8.668  1.66249999999998 9.9  1.66249999999998 9.9  C 1.57500000000001 9.988  1.53125 10.076  1.53125 10.208  C 1.53125 10.34  1.57500000000001 10.428  1.66249999999998 10.516  Z M 4.8125 3.124  C 4.20000000000001 3.696  3.9375 4.444  3.9375 5.324  C 3.9375 5.984  4.11249999999999 6.556  4.41875000000001 7.03999999999999  C 4.41875000000001 7.03999999999999  3.5 8.008  3.5 8.008  C 3.36874999999997 7.91999999999999  3.23749999999999 7.78799999999999  3.14999999999997 7.69999999999999  C 2.09999999999998 6.73199999999999  1.39999999999997 5.93999999999999  1.04999999999999 5.324  C 1.44374999999998 4.664  2.14374999999999 3.87199999999999  3.14999999999997 2.948  C 4.15625 2.024  5.46875 1.452  7 1.364  C 7.875 1.408  8.70624999999999 1.628  9.40625 1.98  C 9.40625 1.98  8.66249999999998 2.728  8.66249999999998 2.728  C 8.18125000000002 2.42  7.65625 2.244  7 2.244  C 6.125 2.244  5.42499999999999 2.552  4.8125 3.124  Z M 5.46875 3.784  C 5.90625 3.388  6.38750000000001 3.124  7 3.124  C 7.39374999999999 3.124  7.74374999999997 3.212  8.00624999999998 3.388  C 8.00624999999998 3.388  5.07500000000001 6.38  5.07500000000001 6.38  C 4.90000000000002 6.072  4.8125 5.72  4.8125 5.324  C 4.8125 4.708  5.03125 4.18  5.46875 3.784  Z M 12.162486328125 7.744  C 13.387486328125 6.336  14 5.544  14 5.324  C 14 5.104  13.343736328125 4.312  12.162486328125 2.904  C 11.987486328125 2.684  11.768736328125 2.508  11.593736328125 2.332  C 11.593736328125 2.332  10.937486328125 2.992  10.937486328125 2.992  C 11.943736328125 3.916  12.643736328125 4.70799999999999  12.993736328125 5.324  C 12.599986328125 5.984  11.899986328125 6.776  10.893736328125 7.7  C 9.88748632812501 8.624  8.531236328125 9.196  6.999986328125 9.284  C 6.29998632812499 9.23999999999999  5.64373632812499 9.108  5.07498632812501 8.88799999999999  C 5.07498632812501 8.88799999999999  4.41873632812501 9.54799999999999  4.41873632812501 9.54799999999999  C 5.20623632812499 9.856  6.03748632812503 10.076  6.999986328125 10.164  C 9.187486328125 9.944  10.937486328125 9.15199999999999  12.162486328125 7.744  Z " fill-rule="nonzero" fill="#409eff" stroke="none" transform="matrix(1 0 0 1 12 7 )" />
  </g>
</svg>