<?xml version="1.0" encoding="utf-8"?>
<svg version="1.1" xmlns:xlink="http://www.w3.org/1999/xlink" width="4px" height="4px" xmlns="http://www.w3.org/2000/svg">
  <g transform="matrix(1 0 0 1 -18 -11 )">
    <path d="M 1.14285714285714 3.18367346938775  C 0.979591836734693 3.18367346938775  0.816326530612244 3.14285714285714  0.653061224489796 3.10204081632653  C 0.653061224489796 3.10204081632653  0 3.75510204081633  0 3.75510204081633  C 0.36734693877551 3.91836734693877  0.734693877551021 4  1.14285714285714 4  C 1.95918367346939 4  2.61224489795918 3.71428571428571  3.18367346938776 3.18367346938776  C 3.71428571428571 2.6530612244898  4 1.95918367346939  4 1.14285714285714  C 4 0.734693877551021  3.91836734693878 0.326530612244898  3.75510204081633 0  C 3.75510204081633 0  3.10204081632653 0.653061224489796  3.10204081632653 0.653061224489796  C 3.14285714285714 0.816326530612245  3.18367346938775 0.979591836734694  3.18367346938775 1.14285714285714  C 3.18367346938775 1.71428571428571  2.97959183673469 2.20408163265306  2.57142857142857 2.57142857142857  C 2.16326530612245 2.93877551020408  1.71428571428571 3.18367346938776  1.14285714285714 3.18367346938776  Z " fill-rule="nonzero" fill="#409eff" stroke="none" transform="matrix(1 0 0 1 18 11 )" />
  </g>
</svg>