<?xml version="1.0" encoding="utf-8"?>
<svg version="1.1" xmlns:xlink="http://www.w3.org/1999/xlink" width="5px" height="5px" xmlns="http://www.w3.org/2000/svg">
  <g transform="matrix(1 0 0 1 -908 165 )">
    <path d="M 5 2.5  C 5 3.88071187457699  3.880711874577 5  2.5 5  C 1.119288125423 5  0 3.88071187457699  0 2.5  C 0 1.11928812542302  1.119288125423 0  2.5 0  C 3.880711874577 0  5 1.11928812542302  5 2.5  Z M 1 2.5  C 1 3.32842712474619  1.67157287525379 4  2.5 4  C 3.32842712474621 4  4 3.32842712474619  4 2.5  C 4 1.67157287525381  3.32842712474621 1  2.5 1  C 1.67157287525379 1  1 1.67157287525381  1 2.5  Z " fill-rule="nonzero" fill="#409eff" stroke="none" transform="matrix(1 0 0 1 908 -165 )" />
  </g>
</svg>