<?xml version="1.0" encoding="utf-8"?>
<svg version="1.1" xmlns:xlink="http://www.w3.org/1999/xlink" width="14px" height="14px" xmlns="http://www.w3.org/2000/svg">
  <g transform="matrix(1 0 0 1 -17 -12 )">
    <path d="M 7 14  C 3.13400675118444 14  0 10.8659932488156  0 7  C 0 3.13400675118445  3.13400675118444 0  7 0  C 10.8659932488156 0  14 3.13400675118445  14 7  C 14 10.8659932488156  10.8659932488156 14  7 14  Z M 7.54499999999999 8.002  C 7.54499999999999 8.002  7.90899999999998 3.996  7.90899999999998 3.996  C 7.93232167125605 3.74052397333677  7.84708503751092 3.48702342759619  7.67414972282813 3.29753654814178  C 7.50121440814534 3.10804966868736  7.25653829489542 3.00006165996473  6.99999999999999 3  C 6.74328765946314 2.99978051930306  6.49834379716523 3.1076463963639  6.32518731119173 3.29716712167117  C 6.15203082521822 3.48668784697844  6.06666241214273 3.74035057021637  6.08999999999999 3.996  C 6.08999999999999 3.996  6.45499999999998 8.002  6.45499999999998 8.002  C 6.48430881159641 8.28094848247124  6.71951602129495 8.49273744679111  6.99999999999999 8.49273744679111  C 7.28048397870501 8.49273744679111  7.51569118840357 8.28094848247124  7.54499999999999 8.002  Z M 7 9.4  C 6.55817220013537 9.4  6.2 9.75817220013536  6.2 10.2  C 6.2 10.6418277998646  6.55817220013537 11  7 11  C 7.44182779986463 11  7.8 10.6418277998646  7.8 10.2  C 7.8 9.75817220013536  7.44182779986463 9.4  7 9.4  Z " fill-rule="nonzero" fill="#e6a23c" stroke="none" transform="matrix(1 0 0 1 17 12 )" />
  </g>
</svg>