<?xml version="1.0" encoding="utf-8"?>
<svg version="1.1" xmlns:xlink="http://www.w3.org/1999/xlink" width="3px" height="8px" xmlns="http://www.w3.org/2000/svg">
  <g transform="matrix(1 0 0 1 -30 -9 )">
    <path d="M 1.4531 7.0703  C 1.2344 7.0703  1.0664 7.0078  0.949200000000001 6.8828  C 0.835899999999999 6.7578  0.779299999999999 6.6055  0.779299999999999 6.4258  C 0.779299999999999 6.2422  0.835899999999999 6.0879  0.949200000000001 5.9629  C 1.0664 5.834  1.2344 5.7695  1.4531 5.7695  C 1.6719 5.7695  1.8379 5.834  1.9512 5.9629  C 2.0684 6.0879  2.127 6.2422  2.127 6.4258  C 2.127 6.6055  2.0684 6.7578  1.9512 6.8828  C 1.8379 7.0078  1.6719 7.0703  1.4531 7.0703  Z M 1.459 1.8965  C 1.2402 1.8965  1.0723 1.834  0.955100000000002 1.709  C 0.841799999999999 1.584  0.7852 1.4316  0.7852 1.252  C 0.7852 1.0684  0.841799999999999 0.914059999999999  0.955100000000002 0.789059999999999  C 1.0723 0.660159999999999  1.2402 0.595700000000001  1.459 0.595700000000001  C 1.6777 0.595700000000001  1.8438 0.660159999999999  1.957 0.789059999999999  C 2.0742 0.914059999999999  2.1328 1.0684  2.1328 1.252  C 2.1328 1.4316  2.0742 1.584  1.957 1.709  C 1.8438 1.834  1.6777 1.8965  1.459 1.8965  Z " fill-rule="nonzero" fill="#000000" stroke="none" transform="matrix(1 0 0 1 30 9 )" />
  </g>
</svg>