<?xml version="1.0" encoding="utf-8"?>
<svg version="1.1" xmlns:xlink="http://www.w3.org/1999/xlink" width="13px" height="10px" xmlns="http://www.w3.org/2000/svg">
  <g transform="matrix(1 0 0 1 -33 -7 )">
    <path d="M 11.7773 0.855470000000001  C 11.9961 1.02734  12.1816 1.25781  12.334 1.54688  C 12.4902 1.83203  12.6094 2.18164  12.6914 2.5957  C 12.7734 3.0098  12.8145 3.4961  12.8145 4.0547  C 12.8145 4.0547  12.8145 5.3555  12.8145 5.3555  C 12.8145 6.0547  12.752 6.6445  12.627 7.125  C 12.502 7.6055  12.3223 7.9922  12.0879 8.2852  C 11.8535 8.5781  11.5703 8.791  11.2383 8.9238  C 10.9102 9.05270000000001  10.5391 9.1172  10.125 9.1172  C 9.7969 9.1172  9.4941 9.0762  9.2168 8.9941  C 8.9395 8.9121  8.6895 8.7812  8.4668 8.6016  C 8.248 8.418  8.0605 8.1797  7.9043 7.8867  C 7.748 7.5938  7.6289 7.2383  7.5469 6.8203  C 7.4648 6.4023  7.4238 5.9141  7.4238 5.3555  C 7.4238 5.3555  7.4238 4.0547  7.4238 4.0547  C 7.4238 3.3555  7.4863 2.76953  7.6113 2.29688  C 7.7402 1.82422  7.9219 1.44531  8.1562 1.16016  C 8.3906 0.871090000000001  8.6719 0.664060000000001  9 0.539060000000001  C 9.332 0.414060000000001  9.7031 0.351560000000001  10.1133 0.351560000000001  C 10.4453 0.351560000000001  10.75 0.392580000000001  11.0273 0.474610000000001  C 11.3086 0.552730000000001  11.5586 0.679690000000001  11.7773 0.855470000000001  Z M 5.8359 5.8594  C 5.7539 5.6016  5.6094 5.3652  5.4023 5.1504  C 5.1992 4.9355  4.9199 4.7637  4.51026651330751 4.61587897403779  C 4.4781742028384 4.63036045435822  4.44545196414959 4.64446742921913  4.4121 4.6582  C 4.0801 4.791  3.6816 4.8574  3.2168 4.8574  C 3.2168 4.8574  2.291 4.8574  2.291 4.85739815882739  L 2.291 5.0918  C 2.291 5.0918  3.0645 5.0918  3.0645 5.0918  C 3.4316 5.0918  3.75 5.1484  4.0195 5.2617  C 4.293 5.3711  4.5039 5.541  4.6523 5.7715  C 4.8008 5.998  4.875 6.2891  4.875 6.6445  C 4.875 7  4.8086 7.2949  4.6758 7.5293  C 4.5469 7.7637  4.3613 7.9395  4.1191 8.0566  C 3.8809 8.1699  3.5957 8.2266  3.2637 8.2266  C 2.9316 8.2266  2.6426 8.166  2.3965 8.0449  C 2.1543 7.9199  1.9668 7.7461  1.834 7.5234  C 1.7051 7.3008  1.6406 7.041  1.6406 6.7441  C 1.6406 6.7441  0.556600000000003 6.7441  0.556600000000003 6.7441  C 0.556600000000003 7.123  0.627000000000002 7.4609  0.767600000000002 7.7578  C 0.908200000000001 8.0508  1.1035 8.2988  1.3535 8.502  C 1.6035 8.7012  1.8906 8.8535  2.2148 8.959  C 2.543 9.0645  2.8926 9.1172  3.2637 9.1172  C 3.6504 9.1172  4.0078 9.0625  4.3359 8.9531  C 4.6641 8.8438  4.9492 8.6816  5.1914 8.4668  C 5.4375 8.252  5.627 7.9902  5.7598 7.6816  C 5.8965 7.373  5.9648 7.0195  5.9648 6.6211  C 5.9648 6.3672  5.9219 6.1133  5.8359 5.8594  Z M 2.291 4.4414  C 2.291 4.4414  3.2168 4.4414  3.2168 4.4414  C 3.7598 4.4414  4.209 4.5059  4.51026651308733 4.61587897413715  C 4.79763506049348 4.48620548219239  5.03449474868427 4.32650342042329  5.2207 4.1367  C 5.4316 3.9258  5.5859 3.6992  5.6836 3.457  C 5.7852 3.2109  5.8359 2.98047  5.8359 2.76562  C 5.8359 2.23438  5.7285 1.79102  5.5137 1.43555  C 5.2988 1.07617  4.998 0.806640000000001  4.6113 0.626950000000001  C 4.2246 0.443360000000001  3.7734 0.351560000000001  3.2578 0.351560000000001  C 2.7344 0.351560000000001  2.2734 0.45703  1.875 0.667970000000001  C 1.4805 0.878910000000001  1.1738 1.16211  0.955100000000002 1.51758  C 0.7363 1.87305  0.627000000000002 2.26758  0.627000000000002 2.70117  C 0.627000000000002 2.70117  1.7109 2.70117  1.7109 2.70117  C 1.7109 2.4043  1.7754 2.14648  1.9043 1.92773  C 2.0371 1.70898  2.2188 1.54102  2.4492 1.42383  C 2.6836 1.30273  2.9531 1.24219  3.2578 1.24219  C 3.5938 1.24219  3.8711 1.29883  4.0898 1.41211  C 4.3086 1.52539  4.4727 1.69336  4.582 1.91602  C 4.6914 2.13867  4.7461 2.41406  4.7461 2.74219  C 4.7461 3.0195  4.6836 3.2695  4.5586 3.4922  C 4.4375 3.7109  4.252 3.8848  4.002 4.0137  C 3.7559 4.1387  3.4434 4.2012  3.0645 4.2012  C 3.0645 4.2012  2.291 4.2012  2.291 4.2012  L 2.291 4.4414  Z M 2.291 4.43976635013129  L 2.291 4.8574  L 2.291 4.43976635013129  Z M 11.3203 7.5996  C 11.457 7.3809  11.5586 7.1016  11.625 6.7617  C 11.6914 6.418  11.7246 6.0078  11.7246 5.5312  C 11.7246 5.5312  11.7246 3.873  11.7246 3.873  C 11.7246 3.4902  11.7012 3.1543  11.6543 2.86523  C 11.6113 2.57227  11.5469 2.32227  11.4609 2.11523  C 11.375 1.9082  11.2656 1.74023  11.1328 1.61133  C 11.0039 1.48242  10.8535 1.38867  10.6816 1.33008  C 10.5137 1.26758  10.3242 1.23633  10.1133 1.23633  C 9.8555 1.23633  9.627 1.28516  9.4277 1.38281  C 9.2285 1.47656  9.0605 1.62695  8.9238 1.83398  C 8.791 2.04102  8.6895 2.3125  8.6191 2.64844  C 8.5488 2.98438  8.5137 3.3926  8.5137 3.873  C 8.5137 3.873  8.5137 5.5312  8.5137 5.5312  C 8.5137 5.9141  8.5352 6.252  8.5781 6.5449  C 8.625 6.8379  8.6934 7.0918  8.7832 7.3066  C 8.873 7.5176  8.9824 7.6914  9.1113 7.8281  C 9.2402 7.9648  9.3887 8.0664  9.5566 8.1328  C 9.7285 8.1953  9.918 8.2266  10.125 8.2266  C 10.3906 8.2266  10.623 8.1758  10.8223 8.0742  C 11.0215 7.9727  11.1875 7.8145  11.3203 7.5996  Z " fill-rule="nonzero" fill="#000000" stroke="none" transform="matrix(1 0 0 1 33 7 )" />
  </g>
</svg>