<?xml version="1.0" encoding="utf-8"?>
<svg version="1.1" xmlns:xlink="http://www.w3.org/1999/xlink" width="19px" height="11px" xmlns="http://www.w3.org/2000/svg">
  <defs>
    <mask fill="white" id="clip99">
      <path d="M 13.8648648648649 11  C 13.8648648648649 11  3.59459459459459 11  3.59459459459459 11  C 2.63945945945939 11  1.72540540540547 10.6313  1.05783783783781 9.9749  C 0.379999999999888 9.3185  0 8.4283  0 7.5  C 0 7.5  0 3.5  0 3.5  C 0 2.57174  0.379999999999888 1.6815  1.05783783783781 1.02513  C 1.72540540540547 0.36875  2.63945945945939 0  3.59459459459459 0  C 3.59459459459459 0  13.8648648648649 0  13.8648648648649 0  C 14.8200000000001 0  15.734054054054 0.36875  16.4016216216217 1.02513  C 17.0794594594596 1.6815  17.4594594594595 2.57174  17.4594594594595 3.5  C 17.4594594594595 3.5  17.972972972973 3.5  17.972972972973 3.5  C 18.2502702702703 3.5  18.507027027027 3.6054  18.7021621621622 3.7929  C 18.8870270270271 3.9804  19 4.2348  19 4.5  C 19 4.5  19 6.5  19 6.5  C 19 6.7652  18.8870270270271 7.0196  18.7021621621622 7.2071  C 18.507027027027 7.3946  18.2502702702703 7.5  17.972972972973 7.5  C 17.972972972973 7.5  17.4594594594595 7.5  17.4594594594595 7.5  C 17.4594594594595 8.4283  17.0794594594596 9.3185  16.4016216216217 9.9749  C 15.734054054054 10.6313  14.8200000000001 11  13.8648648648649 11  Z " fill-rule="evenodd" />
    </mask>
  </defs>
  <g transform="matrix(1 0 0 1 -1245 -7 )">
    <path d="M 13.8648648648649 11  C 13.8648648648649 11  3.59459459459459 11  3.59459459459459 11  C 2.63945945945939 11  1.72540540540547 10.6313  1.05783783783781 9.9749  C 0.379999999999888 9.3185  0 8.4283  0 7.5  C 0 7.5  0 3.5  0 3.5  C 0 2.57174  0.379999999999888 1.6815  1.05783783783781 1.02513  C 1.72540540540547 0.36875  2.63945945945939 0  3.59459459459459 0  C 3.59459459459459 0  13.8648648648649 0  13.8648648648649 0  C 14.8200000000001 0  15.734054054054 0.36875  16.4016216216217 1.02513  C 17.0794594594596 1.6815  17.4594594594595 2.57174  17.4594594594595 3.5  C 17.4594594594595 3.5  17.972972972973 3.5  17.972972972973 3.5  C 18.2502702702703 3.5  18.507027027027 3.6054  18.7021621621622 3.7929  C 18.8870270270271 3.9804  19 4.2348  19 4.5  C 19 4.5  19 6.5  19 6.5  C 19 6.7652  18.8870270270271 7.0196  18.7021621621622 7.2071  C 18.507027027027 7.3946  18.2502702702703 7.5  17.972972972973 7.5  C 17.972972972973 7.5  17.4594594594595 7.5  17.4594594594595 7.5  C 17.4594594594595 8.4283  17.0794594594596 9.3185  16.4016216216217 9.9749  C 15.734054054054 10.6313  14.8200000000001 11  13.8648648648649 11  Z " fill-rule="nonzero" fill="#ffffff" stroke="none" fill-opacity="0" transform="matrix(1 0 0 1 1245 7 )" />
    <path d="M 13.8648648648649 11  C 13.8648648648649 11  3.59459459459459 11  3.59459459459459 11  C 2.63945945945939 11  1.72540540540547 10.6313  1.05783783783781 9.9749  C 0.379999999999888 9.3185  0 8.4283  0 7.5  C 0 7.5  0 3.5  0 3.5  C 0 2.57174  0.379999999999888 1.6815  1.05783783783781 1.02513  C 1.72540540540547 0.36875  2.63945945945939 0  3.59459459459459 0  C 3.59459459459459 0  13.8648648648649 0  13.8648648648649 0  C 14.8200000000001 0  15.734054054054 0.36875  16.4016216216217 1.02513  C 17.0794594594596 1.6815  17.4594594594595 2.57174  17.4594594594595 3.5  C 17.4594594594595 3.5  17.972972972973 3.5  17.972972972973 3.5  C 18.2502702702703 3.5  18.507027027027 3.6054  18.7021621621622 3.7929  C 18.8870270270271 3.9804  19 4.2348  19 4.5  C 19 4.5  19 6.5  19 6.5  C 19 6.7652  18.8870270270271 7.0196  18.7021621621622 7.2071  C 18.507027027027 7.3946  18.2502702702703 7.5  17.972972972973 7.5  C 17.972972972973 7.5  17.4594594594595 7.5  17.4594594594595 7.5  C 17.4594594594595 8.4283  17.0794594594596 9.3185  16.4016216216217 9.9749  C 15.734054054054 10.6313  14.8200000000001 11  13.8648648648649 11  Z " stroke-width="2" stroke="#000000" fill="none" transform="matrix(1 0 0 1 1245 7 )" mask="url(#clip99)" />
  </g>
</svg>