<?xml version="1.0" encoding="utf-8"?>
<svg version="1.1" xmlns:xlink="http://www.w3.org/1999/xlink" width="13px" height="10px" xmlns="http://www.w3.org/2000/svg">
  <g transform="matrix(1 0 0 1 -16 -7 )">
    <path d="M 5.0273 0.855470000000001  C 5.2461 1.02734  5.4316 1.25781  5.584 1.54688  C 5.7402 1.83203  5.8594 2.18164  5.9414 2.5957  C 6.0234 3.0098  6.0645 3.4961  6.0645 4.0547  C 6.0645 4.0547  6.0645 5.3555  6.0645 5.3555  C 6.0645 6.0547  6.002 6.6445  5.877 7.125  C 5.752 7.6055  5.5723 7.9922  5.3379 8.2852  C 5.1035 8.5781  4.8203 8.791  4.4883 8.9238  C 4.1602 9.05270000000001  3.7891 9.1172  3.375 9.1172  C 3.0469 9.1172  2.7441 9.0762  2.4668 8.9941  C 2.1895 8.9121  1.9395 8.7812  1.7168 8.6016  C 1.498 8.418  1.3105 8.1797  1.1543 7.8867  C 0.998000000000001 7.5938  0.878900000000002 7.2383  0.796900000000001 6.8203  C 0.7148 6.4023  0.6738 5.9141  0.6738 5.3555  C 0.6738 5.3555  0.6738 4.0547  0.6738 4.0547  C 0.6738 3.3555  0.7363 2.76953  0.8613 2.29688  C 0.990200000000002 1.82422  1.1719 1.44531  1.4062 1.16016  C 1.6406 0.871090000000001  1.9219 0.664060000000001  2.25 0.539060000000001  C 2.582 0.414060000000001  2.9531 0.351560000000001  3.3633 0.351560000000001  C 3.6953 0.351560000000001  4 0.392580000000001  4.2773 0.474610000000001  C 4.5586 0.552730000000001  4.8086 0.679690000000001  5.0273 0.855470000000001  Z M 4.0723 8.0742  C 4.2715 7.9727  4.4375 7.8145  4.5703 7.5996  C 4.707 7.3809  4.8086 7.1016  4.875 6.7617  C 4.9414 6.418  4.9746 6.0078  4.9746 5.5312  C 4.9746 5.5312  4.9746 3.873  4.9746 3.873  C 4.9746 3.4902  4.9512 3.1543  4.9043 2.86523  C 4.8613 2.57227  4.7969 2.32227  4.7109 2.11523  C 4.625 1.9082  4.5156 1.74023  4.3828 1.61133  C 4.2539 1.48242  4.1035 1.38867  3.9316 1.33008  C 3.7637 1.26758  3.5742 1.23633  3.3633 1.23633  C 3.1055 1.23633  2.877 1.28516  2.6777 1.38281  C 2.4785 1.47656  2.3105 1.62695  2.1738 1.83398  C 2.041 2.04102  1.9395 2.3125  1.8691 2.64844  C 1.7988 2.98438  1.7637 3.3926  1.7637 3.873  C 1.7637 3.873  1.7637 5.5312  1.7637 5.5312  C 1.7637 5.9141  1.7852 6.252  1.8281 6.5449  C 1.875 6.8379  1.9434 7.0918  2.0332 7.3066  C 2.123 7.5176  2.2324 7.6914  2.3613 7.8281  C 2.4902 7.9648  2.6387 8.0664  2.8066 8.1328  C 2.9785 8.1953  3.168 8.2266  3.375 8.2266  C 3.6406 8.2266  3.873 8.1758  4.0723 8.0742  Z M 11.5078 6.1172  C 11.5677849040173 5.82918029441108  11.6047635240774 5.53537952259699  11.618690552398 5.23584299233943  C 11.6015717757583 5.25636326011347  11.5841415916256 5.27671561199874  11.5664 5.2969  C 11.3398 5.5547  11.0742 5.7617  10.7695 5.918  C 10.4648 6.0703  10.1328 6.1465  9.7734 6.1465  C 9.3516 6.1465  8.9863 6.0645  8.6777 5.9004  C 8.3691 5.7363  8.1152 5.5176  7.916 5.2441  C 7.7207 4.9707  7.5742 4.666  7.4766 4.3301  C 7.3828 3.9902  7.3359 3.6465  7.3359 3.2988  C 7.3359 2.89258  7.3926 2.51172  7.5059 2.15625  C 7.6191 1.80078  7.7871 1.48828  8.0098 1.21875  C 8.2324 0.945310000000001  8.5078 0.732420000000001  8.8359 0.580080000000001  C 9.168 0.427730000000001  9.5508 0.351560000000001  9.9844 0.351560000000001  C 10.4727 0.351560000000001  10.8887 0.449220000000001  11.2324 0.64453  C 11.5762 0.839840000000001  11.8555 1.10156  12.0703 1.42969  C 12.2891 1.75781  12.4492 2.12695  12.5508 2.53711  C 12.6523 2.94727  12.7031 3.3691  12.7031 3.8027  C 12.7031 3.8027  12.7031 4.1953  12.7031 4.1953  C 12.7031 4.6367  12.6738 5.0859  12.6152 5.543  C 12.5605 5.9961  12.4531 6.4297  12.293 6.8438  C 12.1367 7.2578  11.9082 7.6289  11.6074 7.957  C 11.3066 8.2812  10.9141 8.5391  10.4297 8.7305  C 9.9492 8.918  9.3555 9.0117  8.6484 9.0117  C 8.6484 9.0117  8.5371 9.0117  8.5371 9.0117  L 8.5371 8.0918  C 8.5371 8.0918  8.6484 8.0918  8.6484 8.0918  C 9.2734 8.0918  9.7812 8.0039  10.1719 7.8281  C 10.5625 7.6523  10.8633 7.416  11.0742 7.1191  C 11.2852 6.8223  11.4297 6.4883  11.5078 6.1172  Z M 11.5957 4.1426  C 11.6059000646609 4.12141679484792  11.6156667313352 4.10013582317328  11.625 4.07875708185948  C 11.625 3.8448321742364  11.625 3.6562  11.625 3.6562  C 11.625 3.2695  11.5801 2.92578  11.4902 2.625  C 11.4043 2.32422  11.2832 2.07227  11.127 1.86914  C 10.9746 1.66602  10.8008 1.51172  10.6055 1.40625  C 10.4102 1.30078  10.2031 1.24805  9.9844 1.24805  C 9.7344 1.24805  9.5098 1.29883  9.3105 1.40039  C 9.1152 1.49805  8.9492 1.63672  8.8125 1.81641  C 8.6797 1.99609  8.5781 2.20703  8.5078 2.44922  C 8.4375 2.69141  8.4023 2.95508  8.4023 3.2402  C 8.4023 3.4941  8.4336 3.7402  8.4961 3.9785  C 8.5586 4.2168  8.6543 4.4316  8.7832 4.623  C 8.9121 4.8145  9.0723 4.9668  9.2637 5.0801  C 9.459 5.1895  9.6875 5.2441  9.9492 5.2441  C 10.1914 5.2441  10.418 5.1973  10.6289 5.1035  C 10.8438 5.0059  11.0332 4.875  11.1973 4.7109  C 11.3652 4.543  11.498 4.3535  11.5957 4.1426  Z M 11.7715 3.4805  C 11.7574661516605 3.68776914470598  11.7086328183348 3.88718817303134  11.625 4.07875708185948  C 11.625 4.46051427361405  11.625 4.9629  11.625 4.9629  C 11.625 5.05440326972045  11.6228964348432 5.14538468312322  11.618690552398 5.23584299233943  C 11.8202170285863 4.99427332051185  11.9785868444537 4.7294328888658  12.0938 4.4414  C 12.2227 4.125  12.2871 3.8047  12.2871 3.4805  C 12.2871 3.4805  11.7715 3.4805  11.7715 3.4805  Z " fill-rule="nonzero" fill="#000000" stroke="none" transform="matrix(1 0 0 1 16 7 )" />
  </g>
</svg>