<?xml version="1.0" encoding="utf-8"?>
<svg version="1.1" xmlns:xlink="http://www.w3.org/1999/xlink" width="13px" height="9px" xmlns="http://www.w3.org/2000/svg">
  <g transform="matrix(1 0 0 1 -904 168 )">
    <path d="M 12.9274166666667 0.256  C 12.974 0.337000000000003  12.9989166666667 0.417999999999999  12.9989166666667 0.640999999999998  C 12.9989166666667 0.640999999999998  13 8.359  13 8.359  C 13 8.582  12.9750833333333 8.663  12.9274166666667 8.744  C 12.8814332883575 8.82490842914561  12.8100735898409 8.89112744120009  12.7226666666667 8.934  C 12.6349166666667 8.977  12.5471666666667 9  12.3055833333333 9  C 12.3055833333333 9  0.694416666666688 9  0.694416666666688 9  C 0.45283333333334 9  0.365083333333321 8.977  0.277333333333303 8.933  C 0.189682535092227 8.89055380463768  0.117945272033258 8.82468331369927  0.0714999999999719 8.744  C 0.026000000000001 8.663  0 8.582  0 8.36  C 0 8.36  0 0.640999999999998  0 0.640999999999998  C 0 0.417999999999999  0.0249166666666933 0.337000000000003  0.0725833333333412 0.256  C 0.118566711642487 0.175091570854391  0.189926410159127 0.108872558799909  0.277333333333303 0.0660000000000025  C 0.365083333333321 0.0240000000000009  0.45283333333334 0  0.693333333333319 0  C 0.693333333333319 0  12.3045 0  12.3045 0  C 12.5460833333334 0  12.6338333333333 0.0230000000000032  12.7215833333333 0.0670000000000002  C 12.8092341315744 0.109446195362324  12.8809713946334 0.175316686300725  12.9274166666667 0.256  Z M 1.08333333333333 8  L 11.9166666666667 8  L 11.9166666666667 1  L 1.08333333333333 1  L 1.08333333333333 8  Z " fill-rule="nonzero" fill="#409eff" stroke="none" transform="matrix(1 0 0 1 904 -168 )" />
  </g>
</svg>