<?xml version="1.0" encoding="utf-8"?>
<svg version="1.1" xmlns:xlink="http://www.w3.org/1999/xlink" width="11px" height="7px" xmlns="http://www.w3.org/2000/svg">
  <g transform="matrix(1 0 0 1 -906 209 )">
    <path d="M 0 5.45454545454545  C 0 2.44208318274113  2.23857625084603 0  5 0  C 7.76142374915397 0  10 2.44208318274113  10 5.45454545454545  C 10 5.75579168172589  9.7761423749154 6  9.5 6  C 9.2238576250846 6  9 5.75579168172589  9 5.45454545454545  C 9 3.04457563710199  7.20913899932317 1.09090909090909  5 1.09090909090909  C 2.79086100067683 1.09090909090909  1 3.04457563710199  1 5.45454545454545  C 1 5.75579168172588  0.776142374915397 6  0.5 6  C 0.223857625084603 6  0 5.75579168172588  0 5.45454545454545  Z " fill-rule="nonzero" fill="#409eff" stroke="none" transform="matrix(1 0 0 1 906 -209 )" />
  </g>
</svg>