<?xml version="1.0" encoding="utf-8"?>
<svg version="1.1" xmlns:xlink="http://www.w3.org/1999/xlink" width="11px" height="8px" xmlns="http://www.w3.org/2000/svg">
  <g transform="matrix(1 0 0 1 -137 -15 )">
    <path d="M 10.9385833333333 0.227555555555556  C 10.978 0.299555555555558  10.9990833333334 0.371555555555555  10.9990833333334 0.569777777777776  C 10.9990833333334 0.569777777777776  11 7.43022222222222  11 7.43022222222222  C 11 7.62844444444444  10.9789166666666 7.70044444444444  10.9385833333333 7.77244444444444  C 10.8996743209178 7.84436304812943  10.8392930375577 7.90322439217786  10.7653333333334 7.94133333333333  C 10.6910833333333 7.97955555555555  10.6168333333333 8  10.4124166666666 8  C 10.4124166666666 8  0.587583333333351 8  0.587583333333351 8  C 0.383166666666672 8  0.308916666666657 7.97955555555556  0.234666666666641 7.94044444444444  C 0.160500606616499 7.90271449301127  0.0997998455666031 7.84416294551047  0.0604999999999762 7.77244444444444  C 0.0220000000000008 7.70044444444444  0 7.62844444444444  0 7.43111111111111  C 0 7.43111111111111  0 0.569777777777776  0 0.569777777777776  C 0 0.371555555555555  0.0210833333333558 0.299555555555558  0.0614166666666733 0.227555555555556  C 0.100325679082104 0.15563695187057  0.160706962442338 0.0967756078221416  0.234666666666641 0.0586666666666689  C 0.308916666666657 0.0213333333333341  0.383166666666672 0  0.586666666666654 0  C 0.586666666666654 0  10.4115 0  10.4115 0  C 10.6159166666667 0  10.6901666666666 0.0204444444444473  10.7644166666667 0.0595555555555557  C 10.8385827267168 0.0972855069887323  10.8992834877668 0.155837054489533  10.9385833333333 0.227555555555556  Z M 0.916666666666667 7.11111111111111  L 10.0833333333333 7.11111111111111  L 10.0833333333333 0.888888888888889  L 0.916666666666667 0.888888888888889  L 0.916666666666667 7.11111111111111  Z " fill-rule="nonzero" fill="#409eff" stroke="none" transform="matrix(1 0 0 1 137 15 )" />
  </g>
</svg>