<?xml version="1.0" encoding="utf-8"?>
<svg version="1.1" xmlns:xlink="http://www.w3.org/1999/xlink" width="4px" height="4px" xmlns="http://www.w3.org/2000/svg">
  <g transform="matrix(1 0 0 1 -140 -17 )">
    <path d="M 4 2  C 4 3.10456949966159  3.1045694996616 4  2 4  C 0.895430500338398 4  0 3.10456949966159  0 2  C 0 0.895430500338415  0.895430500338398 0  2 0  C 3.1045694996616 0  4 0.895430500338415  4 2  Z M 0.8 2  C 0.8 2.66274169979695  1.33725830020303 3.2  2 3.2  C 2.66274169979697 3.2  3.2 2.66274169979695  3.2 2  C 3.2 1.33725830020305  2.66274169979697 0.8  2 0.8  C 1.33725830020303 0.8  0.8 1.33725830020305  0.8 2  Z " fill-rule="nonzero" fill="#409eff" stroke="none" transform="matrix(1 0 0 1 140 17 )" />
  </g>
</svg>