<?xml version="1.0" encoding="utf-8"?>
<svg version="1.1" xmlns:xlink="http://www.w3.org/1999/xlink" width="4px" height="6px" xmlns="http://www.w3.org/2000/svg">
  <g transform="matrix(1 0 0 1 -81 -18 )">
    <path d="M 3.86600010430811 0.807692307692308  C 3.86600010430811 0.807692307692308  2.91300010430814 3.516  2.91300010430814 3.516  C 3.49232849998344 3.92679697886975  3.66680478645725 4.66402461545155  3.32617799231593 5.26056841141945  C 2.98555119817456 5.85711220738734  2.22889329789439 6.14038930077577  1.53433384260035 5.931397860697  C 0.839774387306306 5.72240642061825  0.409327363598152 5.08193201935659  0.514990780288599 4.41468825055707  C 0.620654196979103 3.74744448175756  1.23169564105348 3.24750051076173  1.96200010430812 3.23076923076923  C 1.96200010430812 3.23076923076923  2.91500010430809 0.522461538461534  2.91500010430809 0.522461538461534  C 2.96873872556318 0.363955722499854  3.11059436173906 0.244325428777728  3.28645304388363 0.209206277949577  C 3.46231172602819 0.174087127121433  3.64505078688785 0.228895542365929  3.76496037120222 0.352723641833537  C 3.88486995551659 0.476551741301139  3.92345641988851 0.650301529388003  3.86600010430811 0.807692307692308  Z M 1.52400012168221 4.47230769753003  C 1.43839598766783 4.71497311365413  1.58211257329822 4.97575002128323  1.8450001043081 5.05476923076922  C 2.01505852722124 5.10588569906808  2.20174182736804 5.06937302577949  2.33472820935475 4.95898518213847  C 2.46771459134146 4.84859733849743  2.52680025915254 4.68110486478191  2.48972821262112 4.51960055749451  C 2.4526561660897 4.35809625020712  2.32505853126372 4.22711645683946  2.1550001043081 4.17599999999999  C 1.89211256704908 4.0969808082287  1.60960425569658 4.22964228140593  1.52400012168221 4.47230769753003  Z " fill-rule="nonzero" fill="#409eff" stroke="none" transform="matrix(1 0 0 1 81 18 )" />
  </g>
</svg>