<?xml version="1.0" encoding="utf-8"?>
<svg version="1.1" xmlns:xlink="http://www.w3.org/1999/xlink" width="10px" height="5px" xmlns="http://www.w3.org/2000/svg">
  <g transform="matrix(1 0 0 1 -1060 -54 )">
    <path d="M 9.30589410023367 0.112099256841204  L 4.99955892510754 4.0970469145219  C 4.99955892510754 4.0970469145219  0.693223749981417 0.112099256841204  0.693223749981417 0.112099256841204  C 0.53320529703763 -0.0362758476121796  0.277685600887538 -0.0362758476121796  0.117667147943751 0.112099256841203  C 0.0424094989517524 0.182097965437788  0 0.27790703380283  0 0.377926019720149  C 0 0.477945005637467  0.0424094989517528 0.573754074002511  0.117667147943751 0.643752782599095  C 0.117667147943751 0.643752782599095  4.69885644889325 4.88389413264358  4.69885644889325 4.88389413264358  C 4.86616033598949 5.03870195578547  5.13295751422559 5.03870195578547  5.30026140132183 4.88389413264358  C 5.30026140132183 4.88389413264358  9.88145070227133 0.644570711100263  9.88145070227133 0.644570711100263  C 9.95724642851802 0.574513756445919  10 0.478351121224731  10 0.37792601972015  C 10 0.27750091821557  9.95724642851802 0.181338282994383  9.88145070227133 0.111281328340038  C 9.72143224932754 -0.0370937761133459  9.46591255317745 -0.0370937761133459  9.30589410023367 0.111281328340038  Z " fill-rule="nonzero" fill="#606266" stroke="none" transform="matrix(1 0 0 1 1060 54 )" />
  </g>
</svg>