<?xml version="1.0" encoding="utf-8"?>
<svg version="1.1" xmlns:xlink="http://www.w3.org/1999/xlink" width="9px" height="14px" xmlns="http://www.w3.org/2000/svg">
  <g transform="matrix(1 0 0 1 -1176 -5 )">
    <path d="M 4.78999999999996 14  L 8.71000000000004 10.082  L 5.58999999999992 7.057  L 8.71000000000004 4.032  L 4.68000000000006 0  L 3.80999999999995 0  L 3.80999999999995 5.277  L 1 2.587  L 0.00999999999999091 3.593  L 3.57999999999993 7.057  L 0 10.52  L 1 11.526  L 3.80999999999995 8.836  L 3.80999999999995 14  L 4.78999999999996 14  Z M 5.21000000000004 2.447  L 6.77999999999997 4.015  L 5.21000000000004 5.533  L 5.21000000000004 2.447  Z M 5.21000000000004 11.668  L 5.21000000000004 8.58  L 6.77999999999997 10.1  L 5.21000000000004 11.668  Z " fill-rule="nonzero" fill="#000000" stroke="none" transform="matrix(1 0 0 1 1176 5 )" />
  </g>
</svg>