<?xml version="1.0" encoding="utf-8"?>
<svg version="1.1" xmlns:xlink="http://www.w3.org/1999/xlink" width="8px" height="6px" xmlns="http://www.w3.org/2000/svg">
  <g transform="matrix(1 0 0 1 -1218 -5 )">
    <path d="M 2.24000000000001 2.69727  C 2.05999999999995 2.69727  1.92000000000007 2.72168  1.81999999999994 2.77051  C 1.73000000000002 2.81934  1.6400000000001 2.88574  1.53999999999996 2.96973  C 1.53999999999996 2.96973  1.1099999999999 2.8584  1.1099999999999 2.8584  L 1.31999999999994 0.73438  L 3.50999999999999 0.73438  L 3.50999999999999 1.23535  L 1.77999999999997 1.23535  C 1.77999999999997 1.23535  1.65000000000009 2.39551  1.65000000000009 2.39551  C 1.73000000000002 2.35059  1.82999999999993 2.30859  1.95000000000005 2.26953  C 2.06999999999994 2.23047  2.21000000000004 2.21094  2.3599999999999 2.21094  C 2.55999999999995 2.21094  2.74000000000001 2.24512  2.8900000000001 2.31348  C 3.04999999999995 2.37988  3.18000000000006 2.47559  3.28999999999996 2.60059  C 3.40000000000009 2.72559  3.49000000000001 2.87598  3.54999999999995 3.05176  C 3.6099999999999 3.22754  3.63000000000011 3.42383  3.63000000000011 3.64062  C 3.63000000000011 3.8457  3.6099999999999 4.03418  3.54999999999995 4.20605  C 3.5 4.37793  3.41000000000008 4.52832  3.29999999999995 4.65723  C 3.19000000000005 4.78418  3.04999999999995 4.88281  2.88000000000011 4.95312  C 2.71000000000004 5.0234  2.50999999999999 5.0586  2.27999999999997 5.0586  C 2.1099999999999 5.0586  1.95000000000005 5.0352  1.78999999999996 4.98828  C 1.6400000000001 4.93945  1.50999999999999 4.86621  1.38000000000011 4.76855  C 1.26999999999998 4.66895  1.17000000000007 4.5459  1.08999999999992 4.39941  C 1.01999999999998 4.25098  0.970000000000027 4.07715  0.950000000000045 3.87793  C 0.950000000000045 3.87793  1.47000000000003 3.87793  1.47000000000003 3.87793  C 1.49000000000001 4.03809  1.53999999999996 4.17285  1.6099999999999 4.28223  C 1.68000000000006 4.3916  1.76999999999998 4.47461  1.88000000000011 4.53125  C 2 4.58594  2.13000000000011 4.61328  2.27999999999997 4.61328  C 2.41000000000008 4.61328  2.52999999999997 4.59082  2.63000000000011 4.5459  C 2.73000000000002 4.50098  2.80999999999995 4.43652  2.88000000000011 4.35254  C 2.95000000000005 4.26855  3 4.16699  3.02999999999997 4.04785  C 3.06999999999994 3.92871  3.08999999999992 3.79492  3.08999999999992 3.64648  C 3.08999999999992 3.51172  3.06999999999994 3.38672  3.02999999999997 3.27148  C 3 3.15625  2.94000000000005 3.05566  2.86999999999989 2.96973  C 2.78999999999996 2.88379  2.71000000000004 2.81738  2.59999999999991 2.77051  C 2.5 2.72168  2.36999999999989 2.69727  2.24000000000001 2.69727  Z M 5.97000000000003 3.33301  L 5.97000000000003 2.87598  L 7.51999999999998 2.87598  C 7.51999999999998 2.87598  7.51999999999998 4.4375  7.51999999999998 4.4375  C 7.47000000000003 4.51562  7.3900000000001 4.60352  7.26999999999998 4.70117  C 7.16000000000008 4.79688  7 4.88086  6.78999999999996 4.95312  C 6.58999999999992 5.0234  6.32999999999993 5.0586  6.00999999999999 5.0586  C 5.75 5.0586  5.50999999999999 5.0137  5.29999999999995 4.92383  C 5.07999999999993 4.83203  4.8900000000001 4.69922  4.73000000000002 4.52539  C 4.56999999999994 4.34961  4.45000000000005 4.13672  4.3599999999999 3.88672  C 4.27999999999997 3.63477  4.23000000000002 3.34961  4.23000000000002 3.03125  C 4.23000000000002 3.03125  4.23000000000002 2.7002  4.23000000000002 2.7002  C 4.23000000000002 2.38184  4.26999999999998 2.09766  4.33999999999992 1.84766  C 4.42000000000007 1.59766  4.52999999999997 1.38574  4.68000000000006 1.21191  C 4.81999999999994 1.03613  5 0.90332  5.22000000000003 0.81348  C 5.43000000000006 0.72168  5.67000000000007 0.67578  5.95000000000005 0.67578  C 6.27999999999997 0.67578  6.54999999999995 0.73242  6.76999999999998 0.8457  C 6.99000000000001 0.95703  7.16000000000008 1.11133  7.27999999999997 1.30859  C 7.41000000000008 1.50586  7.49000000000001 1.73047  7.51999999999998 1.98242  C 7.51999999999998 1.98242  6.96000000000004 1.98242  6.96000000000004 1.98242  C 6.93000000000006 1.82812  6.88000000000011 1.6875  6.79999999999995 1.56055  C 6.73000000000002 1.43359  6.61999999999989 1.33203  6.49000000000001 1.25586  C 6.34999999999991 1.17773  6.17000000000007 1.13867  5.95000000000005 1.13867  C 5.75 1.13867  5.57999999999993 1.1748  5.44000000000005 1.24707  C 5.28999999999996 1.31934  5.17000000000007 1.42285  5.07999999999993 1.55762  C 4.99000000000001 1.69238  4.92000000000007 1.85547  4.86999999999989 2.04688  C 4.81999999999994 2.23828  4.79999999999995 2.4541  4.79999999999995 2.69434  C 4.79999999999995 2.69434  4.79999999999995 3.03125  4.79999999999995 3.03125  C 4.79999999999995 3.27734  4.82999999999993 3.49707  4.8900000000001 3.69043  C 4.94000000000005 3.88379  5.02999999999997 4.04883  5.13000000000011 4.18555  C 5.24000000000001 4.32031  5.36999999999989 4.42285  5.51999999999998 4.49316  C 5.67000000000007 4.56348  5.82999999999993 4.59863  6.01999999999998 4.59863  C 6.22000000000003 4.59863  6.38000000000011 4.58203  6.50999999999999 4.54883  C 6.63000000000011 4.51367  6.73000000000002 4.47266  6.79999999999995 4.42578  C 6.86999999999989 4.37695  6.92000000000007 4.33105  6.96000000000004 4.28809  C 6.96000000000004 4.28809  6.96000000000004 3.33301  6.96000000000004 3.33301  L 5.97000000000003 3.33301  Z " fill-rule="nonzero" fill="#000000" stroke="none" transform="matrix(1 0 0 1 1218 5 )" />
  </g>
</svg>