<?xml version="1.0" encoding="utf-8"?>
<svg version="1.1" xmlns:xlink="http://www.w3.org/1999/xlink" width="5px" height="7px" xmlns="http://www.w3.org/2000/svg">
  <g transform="matrix(1 0 0 1 -909 206 )">
    <path d="M 4.83250013038514 0.942307692307692  C 4.83250013038514 0.942307692307692  3.64125013038517 4.10200000000001  3.64125013038517 4.10200000000001  C 4.3654106249793 4.5812631420147  4.58350598307156 5.44136205136014  4.15772249039492 6.13732981332269  C 3.7319389977182 6.83329757528523  2.78611662236798 7.16378751757173  1.91791730325043 6.91996417081317  C 1.04971798413288 6.67614082405462  0.51165920449769 5.92892068924935  0.643738475360749 5.15046962564992  C 0.775817746223879 4.37201856205049  1.53961955131685 3.78875059588868  2.45250013038515 3.76923076923077  C 2.45250013038515 3.76923076923077  3.64375013038511 0.609538461538457  3.64375013038511 0.609538461538457  C 3.71092340695398 0.424615009583163  3.88824295217383 0.285046333574016  4.10806630485453 0.244073990941174  C 4.32788965753524 0.203101648308339  4.55631348360981 0.267044799426917  4.70620046400278 0.41151091547246  C 4.85608744439574 0.555977031517995  4.90432052486064 0.758685117619336  4.83250013038514 0.942307692307692  Z M 1.90500015210276 5.21769231378503  C 1.79799498458479 5.50080196592982  1.97764071662277 5.8050416914971  2.30625013038512 5.89723076923076  C 2.51882315902655 5.95686664891276  2.75217728421005 5.91426853007608  2.91841026169344 5.78548271249488  C 3.08464323917683 5.65669689491367  3.15850032394067 5.46128900891223  3.1121602657764 5.27286731707693  C 3.06582020761212 5.08444562524164  2.90632316407965 4.9316358663127  2.69375013038513 4.87199999999999  C 2.36514070881135 4.77981094293348  2.01200531962073 4.93458266164025  1.90500015210276 5.21769231378503  Z " fill-rule="nonzero" fill="#409eff" stroke="none" transform="matrix(1 0 0 1 909 -206 )" />
  </g>
</svg>