<?xml version="1.0" encoding="utf-8"?>
<svg version="1.1" xmlns:xlink="http://www.w3.org/1999/xlink" width="14px" height="14px" xmlns="http://www.w3.org/2000/svg">
  <g transform="matrix(1 0 0 1 -904 211 )">
    <path d="M 13.9999999567942 7  C 13.9999999567942 10.8659931912078  10.8659932955159 13.9999999185303  7.00000010430813 14  C 4.49914095010718 14.0000000372657  2.18825177875175 12.6658075827251  0.937822190893598 10.5000000301112  C -0.312607396964552 8.33419247749723  -0.312607396964552 5.66580752250277  0.937822190893598 3.49999996988884  C 2.18825177875175 1.3341924172749  4.49914095010718 0  7.00000010430813 0  C 10.8659932955159 0  13.9999999567942 3.13400680879224  13.9999999567942 7  Z M 1.0000001937151 7  C 1.0000001937151 10.3137084640692  3.68629164023895 12.9999999506219  7.00000010430813 13  C 9.14359366505181 13.000000031942  11.1243558119278 11.8564064994787  12.1961526015206 10.0000000258096  C 13.2679493911133 8.14359355214048  13.2679493911133 5.85640644785952  12.1961526015206 3.99999997419043  C 11.1243558119278 2.14359350052135  9.14359366505181 0.999999968057971  7.00000010430813 1  C 3.68629164023895 1.0000000493781  1.0000001937151 3.68629153593083  1.0000001937151 7  Z " fill-rule="nonzero" fill="#409eff" stroke="none" transform="matrix(1 0 0 1 904 -211 )" />
  </g>
</svg>