<?xml version="1.0" encoding="utf-8"?>
<svg version="1.1" xmlns:xlink="http://www.w3.org/1999/xlink" width="10px" height="10px" xmlns="http://www.w3.org/2000/svg">
  <g transform="matrix(1 0 0 1 -906 125 )">
    <path d="M 0 2  C 0 0.895430500338414  0.895430500338421 0  2 0  C 2 0  8 0  8 0  C 9.10456949966158 0  10 0.895430500338414  10 2  C 10 2  10 8  10 8  C 10 9.10456949966159  9.10456949966158 10  8 10  C 8 10  2 10  2 10  C 0.895430500338421 10  0 9.10456949966159  0 8  C 0 8  0 2  0 2  Z M 9 2  C 9 1.44771525016921  8.55228474983079 1  8 1  C 8 1  2 1  2 1  C 1.44771525016921 1  1 1.44771525016921  1 2  C 1 2  1 8  1 8  C 1 8.55228474983079  1.44771525016921 9  2 9  C 2 9  8 9  8 9  C 8.55228474983079 9  9 8.55228474983079  9 8  C 9 8  9 2  9 2  Z " fill-rule="nonzero" fill="#409eff" stroke="none" transform="matrix(1 0 0 1 906 -125 )" />
  </g>
</svg>