<?xml version="1.0" encoding="utf-8"?>
<svg version="1.1" xmlns:xlink="http://www.w3.org/1999/xlink" width="14px" height="14px" xmlns="http://www.w3.org/2000/svg">
  <g transform="matrix(1 0 0 1 -904 127 )">
    <path d="M 6.5 0.5  C 6.5 0.223857625084605  6.72385762508458 0  7 0  C 7.27614237491542 0  7.5 0.223857625084605  7.5 0.5  C 7.5 0.5  7.5 2.5  7.5 2.5  L 6.5 2.5  C 6.5 2.5  6.5 0.5  6.5 0.5  Z M 9 0.5  C 9 0.223857625084605  9.22385762508458 0  9.5 0  C 9.77614237491542 0  10 0.223857625084605  10 0.5  C 10 0.5  10 2.5  10 2.5  L 9 2.5  C 9 2.5  9 0.5  9 0.5  Z M 4.5 0  C 4.77614237491542 0  5 0.223857625084605  5 0.5  C 5 0.5  5 2.5  5 2.5  L 4 2.5  C 4 2.5  4 0.5  4 0.5  C 4 0.223857625084605  4.22385762508458 0  4.5 0  Z M 6.5 13.5  C 6.5 13.5  6.5 11.5  6.5 11.5  L 7.5 11.5  C 7.5 11.5  7.5 13.5  7.5 13.5  C 7.5 13.7761423749154  7.27614237491542 14  7 14  C 6.72385762508458 14  6.5 13.7761423749154  6.5 13.5  Z M 9 11.5  L 10 11.5  C 10 11.5  10 13.5  10 13.5  C 10 13.7761423749154  9.77614237491542 14  9.5 14  C 9.22385762508458 14  9 13.7761423749154  9 13.5  C 9 13.5  9 11.5  9 11.5  Z M 5 11.5  C 5 11.5  5 13.5  5 13.5  C 5 13.7761423749154  4.77614237491542 14  4.5 14  C 4.22385762508458 14  4 13.7761423749154  4 13.5  C 4 13.5  4 11.5  4 11.5  L 5 11.5  Z M 0.5 7.5  C 0.223857625084577 7.5  0 7.2761423749154  0 7  C 0 6.72385762508461  0.223857625084577 6.5  0.5 6.5  C 0.5 6.5  2.5 6.5  2.5 6.5  L 2.5 7.5  C 2.5 7.5  0.5 7.5  0.5 7.5  Z M 0 4.5  C 0 4.22385762508461  0.223857625084577 4  0.5 4  C 0.5 4  2.5 4  2.5 4  L 2.5 5  C 2.5 5  0.5 5  0.5 5  C 0.223857625084577 5  0 4.77614237491539  0 4.5  Z M 0.5 9  C 0.5 9  2.5 9  2.5 9  L 2.5 10  C 2.5 10  0.5 10  0.5 10  C 0.223857625084577 10  0 9.77614237491539  0 9.5  C 0 9.22385762508461  0.223857625084577 9  0.5 9  Z M 11.5 7.5  L 11.5 6.5  C 11.5 6.5  13.5 6.5  13.5 6.5  C 13.7761423749154 6.5  14 6.72385762508461  14 7  C 14 7.2761423749154  13.7761423749154 7.5  13.5 7.5  C 13.5 7.5  11.5 7.5  11.5 7.5  Z M 11.5 4  C 11.5 4  13.5 4  13.5 4  C 13.7761423749154 4  14 4.22385762508461  14 4.5  C 14 4.77614237491539  13.7761423749154 5  13.5 5  C 13.5 5  11.5 5  11.5 5  L 11.5 4  Z M 13.5 9  C 13.7761423749154 9  14 9.22385762508461  14 9.5  C 14 9.77614237491539  13.7761423749154 10  13.5 10  C 13.5 10  11.5 10  11.5 10  L 11.5 9  C 11.5 9  13.5 9  13.5 9  Z " fill-rule="nonzero" fill="#409eff" stroke="none" transform="matrix(1 0 0 1 904 -127 )" />
  </g>
</svg>