<?xml version="1.0" encoding="utf-8"?>
<svg version="1.1" xmlns:xlink="http://www.w3.org/1999/xlink" width="11px" height="12px" xmlns="http://www.w3.org/2000/svg">
  <g transform="matrix(1 0 0 1 -1109 -50 )">
    <path d="M 11 11.5714285714286  C 11 11.8081220356418  10.7947971770058 12  10.5416666666667 12  C 10.5416666666667 12  0.458333333333333 12  0.458333333333333 12  C 0.205202822994195 12  0 11.8081220356418  0 11.5714285714286  C 0 11.5714285714286  0 0.428571428571429  0 0.428571428571429  C 0 0.191877964358231  0.205202822994195 0  0.458333333333333 0  C 0.458333333333333 0  10.5416666666667 0  10.5416666666667 0  C 10.7947971770058 0  11 0.191877964358231  11 0.428571428571429  C 11 0.428571428571429  11 11.5714285714286  11 11.5714285714286  Z M 10 0.857142857142857  L 1 0.857142857142857  L 1 11.1428571428571  L 10 11.1428571428571  L 10 0.857142857142857  Z M 2.75 6  L 8.25 6  L 8.25 6.85714285714286  L 2.75 6.85714285714286  L 2.75 6  Z M 5.5 3.42857142857143  L 5.5 4.28571428571429  L 2.75 4.28571428571429  L 2.75 3.42857142857143  L 5.5 3.42857142857143  Z M 8.25 9.42857142857143  L 2.75 9.42857142857143  L 2.75 8.57142857142857  L 8.25 8.57142857142857  L 8.25 9.42857142857143  Z " fill-rule="nonzero" fill="#606266" stroke="none" transform="matrix(1 0 0 1 1109 50 )" />
  </g>
</svg>