<?xml version="1.0" encoding="utf-8"?>
<svg version="1.1" xmlns:xlink="http://www.w3.org/1999/xlink" width="7px" height="12px" xmlns="http://www.w3.org/2000/svg">
  <g transform="matrix(1 0 0 1 -1158 -49 )">
    <path d="M 0.396349760766839 1.65506542979352  C 0.265158515796657 1.64537967954946  0.133655097600922 1.64052809713059  0.00210679294616511 1.64052054360209  C 0.00210679294616511 1.64052054360209  0.00210679294616511 0.875000217736847  0.00210679294616511 0.875000217736847  C 0.152559798318521 0.875073575689598  0.302959005322464 0.880691203115894  0.452998264880875 0.891841664905883  C 0.452998264880875 0.891841664905883  0.396349760766839 1.65506542979352  0.396349760766839 1.65506542979352  Z M 1.93045249380066 1.99954957643289  C 1.68506207944665 1.90485816566445  1.43303556161413 1.82835468461681  1.17641497282341 1.77065899899918  C 1.17641497282341 1.77065899899918  1.34406392418794 1.02351116095471  1.34406392418794 1.02351116095471  C 1.63725820899435 1.08934590897912  1.92585937184549 1.17661522612776  2.20603981111219 1.28531911240062  C 2.20603981111219 1.28531911240062  1.93045249380066 1.99954957643289  1.93045249380066 1.99954957643289  Z M 3.76999783685494 2.1710261294267  C 3.76999783685494 2.1710261294267  3.29920283644776 2.77502166653437  3.29920283644776 2.77502166653437  C 3.19541772017476 2.69405303891446  3.08868273089672 2.61693828589542  2.97921534023612 2.54306900779721  C 2.86976561811514 2.47007610788829  2.75766873628322 2.40113269537208  2.64315191718129 2.33637851981359  C 2.64315191718129 2.33637851981359  3.02055343783286 1.67037583631083  3.02055343783286 1.67037583631083  C 3.2822895551401 1.8186842172258  3.5327782949937 1.98601785957949  3.76999783685494 2.1710261294267  Z M 4.43753156100934 2.77578718686024  C 4.6442220489929 2.99396047973183  4.83560213045928 3.22744417912073  5.00937524443066 3.47241068339761  C 5.00937524443066 3.47241068339761  4.38317961787288 3.91335039109598  4.38317961787288 3.91335039109598  C 4.23175714413173 3.69822025941971  4.0646757797316 3.49454986728725  3.8832948450829 3.30399621170726  C 3.8832948450829 3.30399621170726  4.43753156100934 2.77578718686024  4.43753156100934 2.77578718686024  Z M 4.95272674031662 4.94833387166577  C 4.90247913767985 4.8269669559201  4.84783593578936 4.7074668695428  4.78890539058148 4.59007035916084  C 4.78890539058148 4.59007035916084  5.47251504157907 4.24558621252149  5.47251504157907 4.24558621252149  C 5.60770553979205 4.51434895041974  5.72284721517372 4.7927359344535  5.81699918821846 5.07847232706286  C 5.81699918821846 5.07847232706286  5.08975487864654 5.31808018905868  5.08975487864654 5.31808018905868  C 5.04861556123717 5.19319726459288  5.00290878023327 5.06986555942598  4.95272674031662 4.94833387166577  Z M 5.35845251302521 6.86749332860993  C 5.35226116037518 6.60441418952541  5.3266744082274 6.34214998001053  5.28190048043871 6.08283499459806  C 5.28190048043871 6.08283499459806  6.03593800141596 5.95269653920097  6.03593800141596 5.95269653920097  C 6.08722786324893 6.24818738498495  6.11708315595763 6.54827135272413  6.12473835921628 6.8483553204633  C 6.12473835921628 6.8483553204633  5.35921803335111 6.86749332860993  5.35845251302521 6.86749332860993  Z M 6.08033818031618 7.74860722368081  C 6.04356925248612 8.04727710159298  5.98471821495389 8.34281165963566  5.90426850536721 8.63278320005516  C 5.90426850536721 8.63278320005516  5.16630691123305 8.42838927304914  5.16630691123305 8.42838927304914  C 5.20152084622282 8.30207841928138  5.23214165925742 8.17423652486188  5.25816935033686 8.04486358979066  C 5.28343152109039 7.91472513439357  5.30410056988876 7.78535219932235  5.32017649673196 7.65444822359939  C 5.32017649673196 7.65444822359939  6.08033818031618 7.74860722368081  6.08033818031618 7.74860722368081  Z M 4.90143687848365 9.17094398913842  C 4.90143687848365 9.17094398913842  5.60112245632445 9.48097972111384  5.60112245632445 9.48097972111384  C 5.47863920418604 9.75656703842533  5.33701794390095 10.0214370711747  5.17625867546928 10.275589819362  C 5.17625867546928 10.275589819362  4.52939400011314 9.86603644502405  4.52939400011314 9.86603644502405  C 4.67024974007234 9.64403555052314  4.79426403286254 9.4113173714601  4.90143687848365 9.17094398913842  Z M 4.33265527636581 11.3297113080784  C 4.33265527636581 11.3297113080784  3.79143240597909 10.7884884376917  3.79143240597909 10.7884884376917  C 3.8848258857347 10.6950949579361  3.97439176386092 10.5986393968771  4.05936452003186 10.4991217545146  C 4.05936452003186 10.4991217545146  4.63962892703773 10.9990065273046  4.63962892703773 10.9990065273046  C 4.54136408172189 11.1129414192271  4.43897130225469 11.2232498499749  4.33265527636581 11.3297113080784  Z " fill-rule="nonzero" fill="#606266" stroke="none" transform="matrix(1 0 0 1 1158 49 )" />
  </g>
</svg>