<?xml version="1.0" encoding="utf-8"?>
<svg version="1.1" xmlns:xlink="http://www.w3.org/1999/xlink" width="10px" height="12px" xmlns="http://www.w3.org/2000/svg">
  <g transform="matrix(1 0 0 1 -1054 -26 )">
    <path d="M 5.85896802966276 0.749897675365312  C 3.53983428326306 0.750069102621177  1.50992986984255 2.34588197296331  0.909763545825152 4.64072335220319  C 0.309597221807751 6.93556473144306  1.28880956037462 9.35725759863317  3.29722675080332 10.5451655109247  C 5.30564394123202 11.7330734232162  7.84250363226152 11.3910131164568  9.48246250609361 9.71117234712653  C 9.48246250609361 9.71117234712653  10 10.2413498528115  10 10.2413498528115  C 8.12579902349728 12.1623848336799  5.22563503463979 12.5540851528541  2.9294568438047 11.1963075799114  C 0.633278652969618 9.83853000696882  -0.486184672367027 7.06994106452299  0.200227123009221 4.44654181682437  C 0.886638918385469 1.82314256912575  3.20771613087255 -0.000720117041186318  5.85896802966276 0  C 5.85896802966276 0  5.85896802966276 0.749897675365312  5.85896802966276 0.749897675365312  Z " fill-rule="nonzero" fill="#606266" stroke="none" transform="matrix(1 0 0 1 1054 26 )" />
  </g>
</svg>