<?xml version="1.0" encoding="utf-8"?>
<svg version="1.1" xmlns:xlink="http://www.w3.org/1999/xlink" width="3px" height="7px" xmlns="http://www.w3.org/2000/svg">
  <g transform="matrix(1 0 0 1 -1059 -28 )">
    <path d="M 0 0.41204517111146  C 0 0.184478906865181  0.14957741067606 0  0.334090497519415 0  C 0.51860358436277 0  0.66818099503883 0.184478906865181  0.66818099503883 0.41204517111146  C 0.66818099503883 0.41204517111146  0.66818099503883 4.70555585409288  0.66818099503883 4.70555585409288  C 0.66818099503883 4.70555585409288  2.83843286692495 6.23506752925862  2.83843286692495 6.23506752925862  C 2.99378638757247 6.35065369949221  3.04594729750625 6.59803226420442  2.95593141222372 6.79231665563855  C 2.86591552694118 6.98660104707269  2.66662894330583 7.05676890085903  2.50701509338569 6.95037794630811  C 2.50701509338569 6.95037794630811  0.168381610749786 5.30219726186227  0.168381610749786 5.30219726186227  C 0.0642946938041055 5.22886798509693  3.86645272294495E-05 5.09238334495327  0 4.94454205333752  C 0 4.94454205333752  0 0.41204517111146  0 0.41204517111146  Z " fill-rule="nonzero" fill="#606266" stroke="none" transform="matrix(1 0 0 1 1059 28 )" />
  </g>
</svg>