<?xml version="1.0" encoding="utf-8"?>
<svg version="1.1" xmlns:xlink="http://www.w3.org/1999/xlink" width="18px" height="21px" xmlns="http://www.w3.org/2000/svg">
  <g transform="matrix(1 0 0 1 -27 -98 )">
    <path d="M 18 20.25  C 18 20.6642135623731  17.6642135623731 21  17.25 21  C 17.25 21  0.75 21  0.75 21  C 0.335786437626865 21  0 20.6642135623731  0 20.25  C 0 20.25  0 0.75  0 0.75  C 0 0.335786437626905  0.335786437626865 0  0.75 0  C 0.75 0  17.25 0  17.25 0  C 17.6642135623731 0  18 0.335786437626905  18 0.75  C 18 0.75  18 20.25  18 20.25  Z M 16.5 1.5  L 1.5 1.5  L 1.5 19.5  L 16.5 19.5  L 16.5 1.5  Z M 4.5 10.5  L 13.5 10.5  L 13.5 12  L 4.5 12  L 4.5 10.5  Z M 9 6  L 9 7.5  L 4.5 7.5  L 4.5 6  L 9 6  Z M 13.5 16.5  L 4.5 16.5  L 4.5 15  L 13.5 15  L 13.5 16.5  Z " fill-rule="nonzero" fill="#ffffff" stroke="none" transform="matrix(1 0 0 1 27 98 )" />
  </g>
</svg>