<?xml version="1.0" encoding="utf-8"?>
<svg version="1.1" xmlns:xlink="http://www.w3.org/1999/xlink" width="21px" height="21px" xmlns="http://www.w3.org/2000/svg">
  <g transform="matrix(1 0 0 1 -26 -162 )">
    <path d="M 20.9999999351913 10.5  C 20.9999999351913 16.2989897868116  16.2989899432739 20.9999998777954  10.5000001564622 21  C 6.74871142516076 21.0000000558986  3.28237766812762 18.9987113740877  1.4067332863404 15.7500000451668  C -0.468911095446828 12.5012887162458  -0.468911095446828 8.49871128375416  1.4067332863404 5.24999995483326  C 3.28237766812762 2.00128862591235  6.74871142516076 0  10.5000001564622 0  C 16.2989899432739 0  20.9999999351913 4.70101021318835  20.9999999351913 10.5  Z M 1.50000029057264 10.5  C 1.50000029057264 15.4705626961037  5.52943746035842 19.4999999259328  10.5000001564622 19.5  C 13.7153904975777 19.500000047913  16.6865337178918 17.784609749218  18.2942289022808 15.0000000387144  C 19.9019240866699 12.2153903282107  19.9019240866699 8.78460967178928  18.2942289022808 5.99999996128565  C 16.6865337178918 3.21539025078202  13.7153904975777 1.49999995208696  10.5000001564622 1.5  C 5.52943746035842 1.50000007406715  1.50000029057264 5.52943730389624  1.50000029057264 10.5  Z " fill-rule="nonzero" fill="#ffffff" stroke="none" transform="matrix(1 0 0 1 26 162 )" />
  </g>
</svg>