<?xml version="1.0" encoding="utf-8"?>
<svg version="1.1" xmlns:xlink="http://www.w3.org/1999/xlink" width="16px" height="9px" xmlns="http://www.w3.org/2000/svg">
  <g transform="matrix(1 0 0 1 -29 -165 )">
    <path d="M 0 7.27272727272727  C 0 3.2561109103215  3.35786437626905 0  7.5 0  C 11.6421356237309 0  15 3.2561109103215  15 7.27272727272727  C 15 7.67438890896785  14.6642135623731 8  14.25 8  C 13.8357864376269 8  13.5 7.67438890896785  13.5 7.27272727272727  C 13.5 4.05943418280265  10.8137084989848 1.45454545454545  7.5 1.45454545454545  C 4.18629150101524 1.45454545454545  1.5 4.05943418280265  1.5 7.27272727272727  C 1.5 7.67438890896785  1.16421356237309 8  0.75 8  C 0.335786437626905 8  0 7.67438890896785  0 7.27272727272727  Z " fill-rule="nonzero" fill="#337ecc" stroke="none" transform="matrix(1 0 0 1 29 165 )" />
  </g>
</svg>