<?xml version="1.0" encoding="utf-8"?>
<svg version="1.1" xmlns:xlink="http://www.w3.org/1999/xlink" width="6px" height="10px" xmlns="http://www.w3.org/2000/svg">
  <g transform="matrix(1 0 0 1 -33 -169 )">
    <path d="M 5.79900015646217 1.34615384615385  C 5.79900015646217 1.34615384615385  4.36950015646221 5.86000000000001  4.36950015646221 5.86000000000001  C 5.23849274997517 6.54466163144958  5.50020717968587 7.77337435908591  4.9892669884739 8.76761401903241  C 4.47832679726184 9.7618536789789  3.34333994684158 10.2339821679596  2.30150076390052 9.88566310116168  C 1.25966158095946 9.53734403436375  0.613991045397228 8.46988669892765  0.772486170432899 7.35781375092846  C 0.930981295468655 6.24574080292927  1.84754346158022 5.41250085126955  2.94300015646218 5.38461538461538  C 2.94300015646218 5.38461538461538  4.37250015646214 0.870769230769224  4.37250015646214 0.870769230769224  C 4.45310808834478 0.60659287083309  4.66589154260859 0.40720904796288  4.92967956582544 0.348677129915962  C 5.19346758904229 0.290145211869056  5.46757618033178 0.381492570609881  5.64744055680333 0.587872736389228  C 5.82730493327489 0.794252902168565  5.88518462983276 1.08383588231334  5.79900015646217 1.34615384615385  Z M 2.28600018252331 7.45384616255005  C 2.15759398150175 7.85828852275688  2.37316885994733 8.29291670213871  2.76750015646215 8.42461538461537  C 3.02258779083186 8.50980949844681  3.30261274105206 8.44895504296582  3.50209231403213 8.26497530356411  C 3.70157188701219 8.08099556416239  3.79020038872881 7.80184144130318  3.73459231893167 7.53266759582419  C 3.67898424913454 7.2634937503452  3.48758779689558 7.04519409473243  3.23250015646215 6.95999999999999  C 2.83816885057362 6.82830134704783  2.41440638354487 7.04940380234321  2.28600018252331 7.45384616255005  Z " fill-rule="nonzero" fill="#337ecc" stroke="none" transform="matrix(1 0 0 1 33 169 )" />
  </g>
</svg>