<?xml version="1.0" encoding="utf-8"?>
<svg version="1.1" xmlns:xlink="http://www.w3.org/1999/xlink" width="16px" height="12px" xmlns="http://www.w3.org/2000/svg">
  <g transform="matrix(1 0 0 1 -1025 59 )">
    <path d="M 0 6  C 0 6  3 0  8 0  C 13 0  16 6  16 6  C 16 6  13 12  8 12  C 3 12  0 6  0 6  Z M 14.8249998092651 6  C 14.0029997825623 4.63854542645541  11.5209999084473 1.09090909090909  8 1.09090909090909  C 4.48000001907349 1.09090909090909  1.99799996614456 4.63745459643277  1.17499995231628 6  C 1.99699997901917 7.36145457354459  4.47900009155273 10.9090909090909  8 10.9090909090909  C 11.5199999809265 10.9090909090909  14.0019997954369 7.36254540356723  14.8249998092651 6  Z M 5.52512645721436 3.30013795332475  C 6.1815037727356 2.58408997275613  7.07174229621887 2.18181818181818  8 2.18181818181818  C 8.92825770378113 2.18181818181818  9.8184962272644 2.58408997275613  10.4748735427856 3.30013795332475  C 11.1312508583069 4.01618593389338  11.5 4.98735523223877  11.5 6  C 11.5 7.01264476776123  11.1312508583069 7.98381406610662  10.4748735427856 8.69986204667525  C 9.8184962272644 9.41591002724387  8.92825770378113 9.81818181818182  8 9.81818181818182  C 7.07174229621887 9.81818181818182  6.1815037727356 9.41591002724387  5.52512645721436 8.69986204667525  C 4.86874914169312 7.98381406610662  4.5 7.01264476776123  4.5 6  C 4.5 4.98735523223877  4.86874914169312 4.01618593389338  5.52512645721436 3.30013795332475  Z M 10.5 6  C 10.5 4.49672724983909  9.37899994850159 3.27272727272727  8 3.27272727272727  C 7.33720248937607 3.27359337687746  6.70177891850471 3.5612083456733  6.23310995101929 4.07248358293013  C 5.76444098353386 4.58375882018696  5.50079392880434 5.27694817022844  5.5 6  C 5.5 7.50327275016091  6.62100005149841 8.72727272727273  8 8.72727272727273  C 9.37899994850159 8.72727272727273  10.5 7.50327275016091  10.5 6  Z " fill-rule="nonzero" fill="#c0c4cc" stroke="none" transform="matrix(1 0 0 1 1025 -59 )" />
  </g>
</svg>