<?xml version="1.0" encoding="utf-8"?>
<svg version="1.1" xmlns:xlink="http://www.w3.org/1999/xlink" width="24px" height="24px" xmlns="http://www.w3.org/2000/svg">
  <g transform="matrix(1 0 0 1 -18 -17 )">
    <path d="M 23.9749565217391 11.9874782608696  C 23.9749565217391 18.607979693276  18.607979693276 23.9749565217391  11.9874782608696 23.9749565217391  C 5.36697682846314 23.9749565217391  0 18.607979693276  0 11.9874782608696  C 0 5.36697682846314  5.36697682846314 0  11.9874782608696 0  C 18.607979693276 0  23.9749565217391 5.36697682846314  23.9749565217391 11.9874782608696  Z M 15.3985284280936 5.8254983277592  C 15.3985284280936 4.9093779264214  14.6741939799331 4.29121070234114  13.7854715719064 4.29121070234114  C 12.8950367892977 4.29121070234114  12.1758394648829 4.9093779264214  12.1758394648829 5.8254983277592  C 12.1758394648829 6.74161872909699  12.8950367892977 7.35978595317726  13.7854715719064 7.35978595317726  C 14.675906354515 7.35978595317726  15.3985284280936 6.74161872909699  15.3985284280936 5.8254983277592  Z M 10.155237458194 19.682033444816  C 11.9703545150502 19.682033444816  13.0423010033445 18.5141939799331  14.1005484949833 16.9953177257525  C 14.1005484949833 16.812093645485  14.1621939799331 16.3360535117057  14.1262341137124 16.0654983277592  C 14.1262341137124 16.0654983277592  12.7186622073579 17.6854046822742  12.7186622073579 17.6854046822742  C 12.4275585284281 17.9919197324415  12.0628227424749 18.204254180602  11.8915852842809 18.147745819398  C 11.7310979758273 18.0886737422095  11.6374169041829 17.9216454749365  11.6706889632107 17.7538996655518  C 11.6706889632107 17.7538996655518  14.0166421404682 10.3427424749164  14.0166421404682 10.3427424749164  C 14.2084280936455 9.40264882943143  13.681016722408 8.5447491638796  12.5628361204013 8.43515719063545  C 11.3830100334448 8.43515719063545  9.64666220735786 9.63210702341137  8.59012709030101 11.150983277592  C 8.59012709030101 11.3324949832776  8.55587959866221 11.7845618729097  8.59183946488295 12.0551170568562  C 8.59183946488295 12.0551170568562  9.99769899665552 10.4334983277592  9.99769899665552 10.4334983277592  C 10.2888026755853 10.1304080267559  10.6278528428094 9.91636120401338  10.7990903010033 9.97458193979933  C 10.9745825881294 10.0375708066945  11.0674399085627 10.2293744521798  11.008 10.4061003344482  C 11.008 10.4061003344482  8.68259531772575 17.7812976588629  8.68259531772575 17.7812976588629  C 8.41375250836121 18.6443344481605  8.92232775919732 19.4902474916388  10.155237458194 19.682033444816  Z " fill-rule="nonzero" fill="#909399" stroke="none" transform="matrix(1 0 0 1 18 17 )" />
  </g>
</svg>