<?xml version="1.0" encoding="utf-8"?>
<svg version="1.1" xmlns:xlink="http://www.w3.org/1999/xlink" width="12px" height="12px" xmlns="http://www.w3.org/2000/svg">
  <g transform="matrix(1 0 0 1 -285 -198 )">
    <path d="M 0.499999999999996 12  C 0.223857625084601 12  0 11.7761423749154  0 11.5  C 0 11.2238576250846  0.223857625084601 11  0.499999999999996 11  C 0.499999999999996 11  11.5 11  11.5 11  C 11.7761423749154 11  12 11.2238576250846  12 11.5  C 12 11.7761423749154  11.7761423749154 12  11.5 12  C 11.5 12  0.499999999999996 12  0.499999999999996 12  Z M 10.9 4.94999999999999  L 10.192 5.65699999999999  L 6.49999999999998 1.964  L 6.49999999999998 8.99999999999998  L 5.49999999999998 8.99999999999998  L 5.49999999999998 1.864  L 1.70699999999998 5.65699999999999  L 0.99999999999998 4.94999999999999  L 5.94999999999997 0  L 10.9 4.94999999999999  Z " fill-rule="nonzero" fill="#409eff" stroke="none" transform="matrix(1 0 0 1 285 198 )" />
  </g>
</svg>