<?xml version="1.0" encoding="utf-8"?>
<svg version="1.1" xmlns:xlink="http://www.w3.org/1999/xlink" width="11px" height="11px" xmlns="http://www.w3.org/2000/svg">
  <g transform="matrix(1 0 0 1 -611 -48 )">
    <path d="M 7.27148529411721 0.972761939631603  C 8.02951441759005 0.214961706397309  9.25827970005685 0.214961706397309  10.0163088235291 0.972761939631603  C 10.3806191334016 1.33683884184409  10.5853061669283 1.82947908207525  10.5853061669283 2.34452664551388  C 10.5853061669283 2.85957420895252  10.3806191334016 3.353508566831  10.0163088235291 3.71758546904349  C 10.0163088235291 3.71758546904349  3.30630882352917 10.4275854690434  3.30630882352917 10.4275854690434  C 3.20736088465519 10.5268969880878  3.07883566765834 10.5913866729418  2.94007352941165 10.6113501749261  C 2.94007352941165 10.6113501749261  0.804779411764471 10.9167619396319  0.804779411764471 10.9167619396319  C 0.603014084459199 10.9457383036841  0.399390042140808 10.8779475313759  0.255256636963114 10.7338141261982  C 0.111123231785421 10.5896807210205  0.0433324594772357 10.3860566787015  0.0723088235294306 10.1842913513968  C 0.0723088235294306 10.1842913513968  0.377720588235153 8.04899723374964  0.377720588235153 8.04899723374964  C 0.397327955609398 7.91039512533686  0.461353930405494 7.78188909081714  0.560191176470546 7.68276193963212  C 0.560191176470546 7.68276193963212  7.27148529411721 0.972761939631603  7.27148529411721 0.972761939631603  Z M 1.62654411764711 8.44499723374969  L 1.47383823529424 9.51264429257299  L 2.54277941176486 9.35993841022012  C 2.54277941176486 9.35993841022012  9.10136764705925 2.80264429257306  9.10136764705925 2.80264429257306  C 9.26957484876413 2.64018434122692  9.33703462171696 2.39960565648102  9.27781874837739 2.17337484770092  C 9.21860287503783 1.94714403892024  9.04192672424105 1.77046788812346  8.81569591546095 1.71125201478389  C 8.58946510668027 1.65203614144433  8.34888642193437 1.71949591439716  8.18642647058823 1.88770311610204  C 8.18642647058823 1.88770311610204  1.62654411764711 8.44499723374969  1.62654411764711 8.44499723374969  Z " fill-rule="nonzero" fill="#409eff" stroke="none" transform="matrix(1 0 0 1 611 48 )" />
  </g>
</svg>