<?xml version="1.0" encoding="utf-8"?>
<svg version="1.1" xmlns:xlink="http://www.w3.org/1999/xlink" width="15px" height="15px" xmlns="http://www.w3.org/2000/svg">
  <g transform="matrix(1 0 0 1 -606 -49 )">
    <path d="M 13.75 13.75  C 13.75 13.75  13.75 7.5  13.75 7.5  C 13.75 7.15482203135575  14.0298220313558 6.875  14.375 6.875  C 14.7201779686442 6.875  15 7.15482203135575  15 7.5  C 15 7.5  15 14.375  15 14.375  C 15 14.7201779686442  14.7201779686442 15  14.375 15  C 14.375 15  0.625 15  0.625 15  C 0.279822031355754 15  0 14.7201779686442  0 14.375  C 0 14.375  0 0.625  0 0.625  C 0 0.279822031355754  0.279822031355754 0  0.625 0  C 0.625 0  7.5 0  7.5 0  C 7.84517796864425 0  8.125 0.279822031355754  8.125 0.625  C 8.125 0.970177968644246  7.84517796864425 1.25  7.5 1.25  C 7.5 1.25  1.25 1.25  1.25 1.25  L 1.25 13.75  L 13.75 13.75  Z " fill-rule="nonzero" fill="#409eff" stroke="none" transform="matrix(1 0 0 1 606 49 )" />
  </g>
</svg>