<?xml version="1.0" encoding="utf-8"?>
<svg version="1.1" xmlns:xlink="http://www.w3.org/1999/xlink" width="9px" height="11px" xmlns="http://www.w3.org/2000/svg">
  <g transform="matrix(1 0 0 1 -38 -554 )">
    <path d="M 9 10.6071428571429  C 9 10.824111866005  8.83210678118657 11  8.625 11  C 8.625 11  0.375 11  0.375 11  C 0.167893218813433 11  0 10.824111866005  0 10.6071428571429  C 0 10.6071428571429  0 0.392857142857143  0 0.392857142857143  C 0 0.175888133995025  0.167893218813433 0  0.375 0  C 0.375 0  6 0  6 0  L 9 3.14285714285714  C 9 3.14285714285714  9 10.6071428571429  9 10.6071428571429  Z M 8.25 3.92857142857143  L 5.25 3.92857142857143  L 5.25 0.785714285714286  L 0.75 0.785714285714286  L 0.75 10.2142857142857  L 8.25 10.2142857142857  L 8.25 3.92857142857143  Z M 2.25 5.5  L 6.75 5.5  L 6.75 6.28571428571429  L 2.25 6.28571428571429  L 2.25 5.5  Z M 4.125 3.14285714285714  L 4.125 3.92857142857143  L 2.25 3.92857142857143  L 2.25 3.14285714285714  L 4.125 3.14285714285714  Z M 7.93950000000001 3.14285714285714  L 6 1.11099999999999  L 6 3.14285714285714  L 7.93950000000001 3.14285714285714  Z M 6.75 8.64285714285714  L 2.25 8.64285714285714  L 2.25 7.85714285714286  L 6.75 7.85714285714286  L 6.75 8.64285714285714  Z " fill-rule="nonzero" fill="#909399" stroke="none" transform="matrix(1 0 0 1 38 554 )" />
  </g>
</svg>