<?xml version="1.0" encoding="utf-8"?>
<svg version="1.1" xmlns:xlink="http://www.w3.org/1999/xlink" width="11px" height="9px" xmlns="http://www.w3.org/2000/svg">
  <g transform="matrix(1 0 0 1 -37 -397 )">
    <path d="M 2.35714301260668 5.24999995276647  C 2.35714301260668 4.00735927682705  3.41247179759417 2.99999997300941  4.71428582735031 2.99999997300941  C 4.71428582735031 2.99999997300941  7.07142864209394 2.99999997300941  7.07142864209394 2.99999997300941  L 7.07142864209394 3.74999996626176  C 7.07142864209394 3.74999996626176  4.71428582735031 3.74999996626176  4.71428582735031 3.74999996626176  C 3.84640980751288 3.74999996626176  3.14285728418789 4.42157283547352  3.14285728418789 5.24999995276647  C 3.14285728418789 5.24999995276647  3.14285728418789 6.74999993927117  3.14285728418789 6.74999993927117  C 3.14285728418789 7.57842705656412  3.84640980751288 8.24999992577587  4.71428582735031 8.24999992577587  C 4.71428582735031 8.24999992577587  8.64285718525637 8.24999992577587  8.64285718525637 8.24999992577587  C 9.51073320509379 8.24999992577587  10.2142857284188 7.57842705656412  10.2142857284188 6.74999993927117  C 10.2142857284188 6.74999993927117  10.2142857284188 5.24999995276647  10.2142857284188 5.24999995276647  C 10.2142714665513 4.71411518662246  9.91476078899449 4.21894234743893  9.42857145683758 3.95099996445339  C 9.42857145683758 3.95099996445339  9.42857145683758 3.12749997186231  9.42857145683758 3.12749997186231  C 10.3439285832297 3.43649996908228  11 4.26974996158564  11 5.24924995277322  C 11 5.24924995277322  11 6.74924993927792  11 6.74924993927792  C 11 7.99189061521734  9.94467121501251 8.99924991903498  8.64285718525637 8.99924991903498  C 8.64285718525637 8.99924991903498  4.71428582735031 8.99924991903498  4.71428582735031 8.99924991903498  C 3.41247179759417 8.99924991903498  2.35714301260668 7.99189061521734  2.35714301260668 6.74924993927792  C 2.35714301260668 6.74924993927792  2.35714301260668 5.24999995276647  2.35714301260668 5.24999995276647  Z M 8.64285718525641 3.74999996626176  C 8.64285718525641 4.99264064220118  7.58752840026892 5.99999994601882  6.28571437051278 5.99999994601882  C 6.28571437051278 5.99999994601882  3.92857155576915 5.99999994601882  3.92857155576915 5.99999994601882  L 3.92857155576915 5.24999995276647  C 3.92857155576915 5.24999995276647  6.28571437051278 5.24999995276647  6.28571437051278 5.24999995276647  C 7.15359039035021 5.24999995276647  7.8571429136752 4.57842708355471  7.8571429136752 3.74999996626176  C 7.8571429136752 3.74999996626176  7.8571429136752 2.24999997975706  7.8571429136752 2.24999997975706  C 7.8571429136752 1.42157286246411  7.15359039035021 0.749999993252352  6.28571437051278 0.749999993252352  C 6.28571437051278 0.749999993252352  2.35714301260672 0.749999993252352  2.35714301260672 0.749999993252352  C 1.48926699276929 0.749999993252352  0.785714469444301 1.42157286246411  0.785714469444301 2.24999997975706  C 0.785714469444301 2.24999997975706  0.785714469444301 3.74999996626176  0.785714469444301 3.74999996626176  C 0.785728731311796 4.28588473240576  1.08523940886857 4.7810575715893  1.57142874102551 5.04899995457483  C 1.57142874102551 5.04899995457483  1.57142874102551 5.87249994716592  1.57142874102551 5.87249994716592  C 0.62936212108889 5.55433032652595  -0.000288107017776799 4.70387320396203  0 3.74999996626176  C 0 3.74999996626176  0 2.24999997975706  0 2.24999997975706  C 0 1.00735930381764  1.05532898285058 0  2.35714301260672 0  C 2.35714301260672 0  6.28571437051278 0  6.28571437051278 0  C 7.58752840026892 0  8.64285718525641 1.00735930381764  8.64285718525641 2.24999997975706  C 8.64285718525641 2.24999997975706  8.64285718525641 3.74999996626176  8.64285718525641 3.74999996626176  Z " fill-rule="nonzero" fill="#909399" stroke="none" transform="matrix(1 0 0 1 37 397 )" />
  </g>
</svg>