<?xml version="1.0" encoding="utf-8"?>
<svg version="1.1" xmlns:xlink="http://www.w3.org/1999/xlink" width="12px" height="7px" xmlns="http://www.w3.org/2000/svg">
  <g transform="matrix(1 0 0 1 -15 -233 )">
    <path d="M 11.1670729202804 6.84420614032395  C 11.1670729202804 6.84420614032395  11.1670729202804 6.84306104042231  11.1670729202804 6.84306104042231  L 5.99947071012905 1.26413431966934  C 5.99947071012905 1.26413431966934  0.8318684999777 6.84306104042231  0.8318684999777 6.84306104042231  C 0.639846356445156 7.05078618665705  0.333222721065045 7.05078618665705  0.141200577532501 6.84306104042232  C 0.0508913987421029 6.7450628483871  0 6.61093015267604  0 6.47090357239179  C 0 6.33087699210755  0.0508913987421033 6.19674429639648  0.141200577532501 6.09874610436127  C 0.141200577532501 6.09874610436127  5.6386277386719 0.162548214298984  5.6386277386719 0.162548214298984  C 5.83939240318739 -0.0541827380996573  6.15954901707071 -0.0541827380996573  6.3603136815862 0.162548214298984  C 6.3603136815862 0.162548214298984  11.8577408427256 6.09760100445963  11.8577408427256 6.09760100445963  C 11.9486957142216 6.19568074097571  12 6.33030843028538  12 6.47090357239179  C 12 6.6114987144982  11.9486957142216 6.74612640380786  11.8577408427256 6.84420614032395  C 11.6657186991931 7.05193128655868  11.3590950638129 7.05193128655868  11.1670729202804 6.84420614032395  Z " fill-rule="nonzero" fill="#303133" stroke="none" transform="matrix(1 0 0 1 15 233 )" />
  </g>
</svg>