<?xml version="1.0" encoding="utf-8"?>
<svg version="1.1" xmlns:xlink="http://www.w3.org/1999/xlink" width="12px" height="12px" xmlns="http://www.w3.org/2000/svg">
  <g transform="matrix(1 0 0 1 -36 -290 )">
    <path d="M 3.78076459155403 1.76142857142855  C 3.78076459155403 1.76142857142855  4.25219316298256 0.297428571428554  4.25219316298256 0.297428571428554  C 4.30896486607207 0.120794466496449  4.47294701182039 0.000748465284033273  4.65847887726829 0  C 4.65847887726829 0  7.0344788772683 0  7.0344788772683 0  C 7.22064319033777 0  7.38636974039034 0.120194278843314  7.44333602012546 0.297428571428554  C 7.44333602012546 0.297428571428554  7.91476459155407 1.76228571428572  7.91476459155407 1.76228571428572  C 8.11276459155408 1.85914285714284  8.30219316298263 1.96800000000002  8.48305030583973 2.09057142857142  C 8.48305030583973 2.09057142857142  9.98819316298258 1.76657142857141  9.98819316298258 1.76657142857141  C 10.170273297327 1.72769638619619  10.3566241572956 1.81082688134941  10.4493360201255 1.9722857142857  C 10.4493360201255 1.9722857142857  11.6373360201254 4.02857142857147  11.6373360201254 4.02857142857147  C 11.7304152905664 4.18994175447753  11.7085891599397 4.39295941395798  11.5833360201254 4.53085714285714  C 11.5833360201254 4.53085714285714  10.5504788772684 5.67085714285713  10.5504788772684 5.67085714285713  C 10.5655185267848 5.88945590820077  10.5655185267848 6.10882980608497  10.5504788772684 6.32742857142861  C 10.5504788772684 6.32742857142861  11.5833360201254 7.46914285714286  11.5833360201254 7.46914285714286  C 11.7085891599397 7.60704058604202  11.7304152905664 7.81005824552247  11.6373360201254 7.97142857142853  C 11.6373360201254 7.97142857142853  10.4493360201255 10.0285714285715  10.4493360201255 10.0285714285715  C 10.356372103943 10.1897017029846  10.1700769706044 10.2724610651926  9.98819316298258 10.2334285714286  C 9.98819316298258 10.2334285714286  8.48305030583973 9.90942857142858  8.48305030583973 9.90942857142858  C 8.30305030583972 10.0311428571429  8.11276459155408 10.1408571428572  7.91562173441116 10.2377142857143  C 7.91562173441116 10.2377142857143  7.44333602012546 11.7025714285714  7.44333602012546 11.7025714285714  C 7.38636974039034 11.8798057211567  7.22150033319494 11.9999941335449  7.03533602012547 12  C 7.03533602012547 12  4.65933602012547 12  4.65933602012547 12  C 4.473171707056 11.9999941335449  4.3083022998606 11.8798057211567  4.25133602012548 11.7025714285714  C 4.25133602012548 11.7025714285714  3.78076459155403 10.2385714285714  3.78076459155403 10.2385714285714  C 3.58329556194769 10.1420095165517  3.39282983290209 10.0317398839464  3.21076459155404 9.90857142857141  C 3.21076459155404 9.90857142857141  1.70647887726835 10.2334285714286  1.70647887726835 10.2334285714286  C 1.52439874292398 10.2723036138038  1.33804788295532 10.1891731186506  1.24533602012545 10.0277142857143  C 1.24533602012545 10.0277142857143  0.05733602012549 7.97142857142853  0.05733602012549 7.97142857142853  C -0.0357432503154484 7.81005824552247  -0.0139171196887844 7.60704058604202  0.111336020125407 7.46914285714286  C 0.111336020125407 7.46914285714286  1.14419316298256 6.32742857142861  1.14419316298256 6.32742857142861  C 1.12923203918902 6.10939921293087  1.12923203918902 5.89060078706913  1.14419316298256 5.67257142857139  C 1.14419316298256 5.67257142857139  0.111336020125407 4.53085714285714  0.111336020125407 4.53085714285714  C -0.0139171196887844 4.39295941395798  -0.0357432503154484 4.18994175447753  0.05733602012549 4.02857142857147  C 0.05733602012549 4.02857142857147  1.24533602012545 1.97142857142853  1.24533602012545 1.97142857142853  C 1.33829993630798 1.81029829701552  1.52459506964658 1.72753893480743  1.70647887726835 1.76657142857141  C 1.70647887726835 1.76657142857141  3.21076459155404 2.09142857142859  3.21076459155404 2.09142857142859  C 3.3924788772683 1.9688571428571  3.58276459155402 1.85828571428576  3.78076459155403 1.76142857142855  Z M 8.00476459155391 2.80114285714274  C 7.85607969128253 2.70069779281815  7.70055811329692 2.61076450462755  7.53933602012532 2.5319999999999  C 7.53933602012532 2.5319999999999  7.21190744869671 2.37257142857132  7.21190744869671 2.37257142857132  L 6.72247887726817 0.857142857142748  L 4.97305030583959 0.857142857142748  L 4.48619316298249 2.37171428571415  C 4.48619316298249 2.37171428571415  4.1579074486967 2.5319999999999  4.1579074486967 2.5319999999999  C 3.996522504019 2.61097482370133  3.84073012600783 2.70089910071513  3.69162173441103 2.80114285714274  C 3.69162173441103 2.80114285714274  3.38819316298245 3.00685714285703  3.38819316298245 3.00685714285703  L 1.83162173441102 2.67085714285705  L 0.957336020125268 4.18628571428562  L 2.02447887726817 5.36742857142846  C 2.02447887726817 5.36742857142846  1.99876459155388 5.73085714285699  1.99876459155388 5.73085714285699  C 1.98644866747145 5.91007437393881  1.98644866747145 6.08992562606093  1.99876459155388 6.26914285714275  C 1.99876459155388 6.26914285714275  2.02447887726817 6.63257142857128  2.02447887726817 6.63257142857128  L 0.955621734411011 7.81371428571413  L 1.83076459155384 9.3291428571427  L 3.38733602012528 8.99399999999989  C 3.38733602012528 8.99399999999989  3.69076459155386 9.19885714285701  3.69076459155386 9.19885714285701  C 3.83987298315066 9.29910089928461  3.99566536116191 9.38902517629842  4.15705030583962 9.46799999999985  C 4.15705030583962 9.46799999999985  4.48533602012532 9.6282857142856  4.48533602012532 9.6282857142856  L 4.97305030583959 11.142857142857  L 6.72333602012534 11.142857142857  L 7.21190744869671 9.62742857142842  C 7.21190744869671 9.62742857142842  7.53933602012532 9.46799999999985  7.53933602012532 9.46799999999985  C 7.7005444721263 9.38920988415771  7.85606429801055 9.29927760915285  8.00476459155391 9.19885714285701  C 8.00476459155391 9.19885714285701  8.30733602012532 8.99399999999989  8.30733602012532 8.99399999999989  L 9.86476459155392 9.3291428571427  L 10.7390503058396 7.81371428571413  L 9.6710503058396 6.63257142857128  C 9.6710503058396 6.63257142857128  9.69676459155389 6.26914285714275  9.69676459155389 6.26914285714275  C 9.70911981599048 6.08964092456762  9.70911981599048 5.90950193257504  9.69676459155389 5.7299999999999  C 9.69676459155389 5.7299999999999  9.6710503058396 5.36657142857129  9.6710503058396 5.36657142857129  L 10.7399074486968 4.18628571428562  L 9.86476459155392 2.67085714285705  L 8.30733602012532 3.00514285714277  C 8.30733602012532 3.00514285714277  8.00476459155391 2.80114285714274  8.00476459155391 2.80114285714274  Z M 8.41876459155401 6  C 8.41876459155401 7.42016078527922  7.26749680540465 8.57142857142858  5.84733602012543 8.57142857142858  C 4.4271752348462 8.57142857142858  3.27590744869684 7.42016078527922  3.27590744869684 6  C 3.27590744869684 4.57983921472078  4.4271752348462 3.42857142857142  5.84733602012543 3.42857142857142  C 7.26749680540465 3.42857142857142  8.41876459155401 4.57983921472078  8.41876459155401 6  Z M 5.84733602012525 7.71428571428558  C 6.7941098769781 7.71428571428558  7.56162173441101 6.94677385685267  7.56162173441101 5.99999999999983  C 7.56162173441101 5.05322614314707  6.7941098769781 4.28571428571416  5.84733602012525 4.28571428571416  C 4.9005621632725 4.28571428571416  4.13305030583959 5.05322614314707  4.13305030583959 5.99999999999983  C 4.13305030583959 6.94677385685267  4.9005621632725 7.71428571428558  5.84733602012525 7.71428571428558  Z " fill-rule="nonzero" fill="#909399" stroke="none" transform="matrix(1 0 0 1 36 290 )" />
  </g>
</svg>