<?xml version="1.0" encoding="utf-8"?>
<svg version="1.1" xmlns:xlink="http://www.w3.org/1999/xlink" width="11px" height="14px" xmlns="http://www.w3.org/2000/svg">
  <g transform="matrix(1 0 0 1 -573 -229 )">
    <path d="M 6.05023064323078 2.06938533136803  L 6.05023064323078 2.06823123584524  C 6.05023064323078 2.06823123584524  6.05023064323078 13.4268961299382  6.05023064323078 13.4268961299382  C 6.05136723006359 13.6312522206379  5.94678931669317 13.8205909017447  5.77615536590992 13.923110386462  C 5.60552141512667 14.0256298711793  5.39496306652271 14.0256298711793  5.22432911573946 13.923110386462  C 5.05369516495622 13.8205909017447  4.94911725158579 13.6312522206379  4.95025383841861 13.4268961299382  C 4.95025383841861 13.4268961299382  4.95025383841861 2.06823123584524  4.95025383841861 2.06823123584524  C 4.95025383841861 2.06823123584524  0.93971667698026 6.48313852008312  0.93971667698026 6.48313852008312  C 0.839702235455256 6.59628991594785  0.698418945435474 6.66072392411279  0.550328357747093 6.66072392411279  C 0.402237770058711 6.66072392411279  0.26095448003893 6.59628991594785  0.160940038513924 6.48313852008312  C -0.053646679504642 6.24116991274458  -0.0536466795046415 5.86926015907877  0.160940038513924 5.62729155174022  C 0.160940038513924 5.62729155174022  5.1108447908801 0.177595734330816  5.1108447908801 0.177595734330816  C 5.21085961398385 0.064438089339389  5.352146947053 0  5.50024224082469 0  C 5.64833753459638 0  5.78962486766554 0.064438089339389  5.88963969076928 0.177595734330816  C 5.88963969076928 0.177595734330816  10.8395627045583 5.62729155174022  10.8395627045583 5.62729155174022  C 11.0534790984806 5.86909478266342  11.0534790984806 6.24020011323587  10.8395627045583 6.48200334415907  C 10.7395478814546 6.5951609891505  10.5982605483854 6.65959907848989  10.4501652546137 6.65959907848989  C 10.302069960842 6.65959907848989  10.1607826277729 6.5951609891505  10.0607678046691 6.48200334415907  C 10.0607678046691 6.48200334415907  6.05023064323078 2.06938533136803  6.05023064323078 2.06938533136803  Z " fill-rule="nonzero" fill="#409eff" stroke="none" transform="matrix(1 0 0 1 573 229 )" />
  </g>
</svg>