<?xml version="1.0" encoding="utf-8"?>
<svg version="1.1" xmlns:xlink="http://www.w3.org/1999/xlink" width="9px" height="9px" xmlns="http://www.w3.org/2000/svg">
  <g transform="matrix(1 0 0 1 -553 -190 )">
    <path d="M 5.94939705882317 0.795896132425857  C 6.56960270530095 0.175877759779616  7.57495611822833 0.175877759779616  8.19516176470562 0.795896132425857  C 8.49323383641952 1.09377723423607  8.66070504566864 1.49684652169794  8.66070504566864 1.91824907360227  C 8.66070504566864 2.3396516255066  8.49323383641952 2.74377973649809  8.19516176470562 3.04166083830831  C 8.19516176470562 3.04166083830831  2.70516176470568 8.53166083830825  2.70516176470568 8.53166083830825  C 2.62420436017242 8.61291571752639  2.51904736444773 8.66568000513422  2.40551470588226 8.68201377948502  C 2.40551470588226 8.68201377948502  0.658455882352749 8.93189613242606  0.658455882352749 8.93189613242606  C 0.493375160012072 8.95560406665059  0.326773670842479 8.90013888930753  0.208846339333457 8.7822115577985  C 0.0909190078244351 8.66428422628948  0.0354538304813746 8.49768273711941  0.0591617647058978 8.33260201477921  C 0.0591617647058978 8.33260201477921  0.309044117646943 6.58554319124971  0.309044117646943 6.58554319124971  C 0.325086509134962 6.47214146618471  0.377471397604495 6.36700016521402  0.458338235294083 6.28589613242628  C 0.458338235294083 6.28589613242628  5.94939705882317 0.795896132425857  5.94939705882317 0.795896132425857  Z M 1.33080882352945 6.90954319124975  L 1.20586764705893 7.78307260301426  L 2.08045588235307 7.65813142654374  C 2.08045588235307 7.65813142654374  7.44657352941212 2.29307260301432  7.44657352941212 2.29307260301432  C 7.58419760353429 2.16015082464021  7.63939196322297 1.96331371893901  7.59094261230878 1.77821578448257  C 7.54249326139458 1.59311785002565  7.39794004710631 1.44856463573738  7.21284211264987 1.40011528482319  C 7.02774417819295 1.351665933909  6.83090707249175 1.40686029359767  6.69798529411764 1.54448436771985  C 6.69798529411764 1.54448436771985  1.33080882352945 6.90954319124975  1.33080882352945 6.90954319124975  Z " fill-rule="nonzero" fill="#409eff" stroke="none" transform="matrix(1 0 0 1 553 190 )" />
  </g>
</svg>