<?xml version="1.0" encoding="utf-8"?>
<svg version="1.1" xmlns:xlink="http://www.w3.org/1999/xlink" width="11px" height="14px" xmlns="http://www.w3.org/2000/svg">
  <g transform="matrix(1 0 0 1 -597 -229 )">
    <path d="M 6.05023064323078 11.930614668632  L 6.05023064323078 11.9317687641548  C 6.05023064323078 11.9317687641548  6.05023064323078 0.573103870061833  6.05023064323078 0.573103870061833  C 6.05136723006359 0.368747779362104  5.94678931669317 0.179409098255272  5.77615536590992 0.0768896135379724  C 5.60552141512667 -0.0256298711793335  5.39496306652271 -0.0256298711793335  5.22432911573946 0.0768896135379724  C 5.05369516495622 0.179409098255272  4.94911725158579 0.368747779362104  4.95025383841861 0.573103870061833  C 4.95025383841861 0.573103870061833  4.95025383841861 11.9317687641548  4.95025383841861 11.9317687641548  C 4.95025383841861 11.9317687641548  0.93971667698026 7.51686147991687  0.93971667698026 7.51686147991687  C 0.839702235455256 7.40371008405216  0.698418945435474 7.33927607588721  0.550328357747093 7.33927607588721  C 0.402237770058711 7.33927607588721  0.26095448003893 7.40371008405216  0.160940038513924 7.51686147991687  C -0.053646679504642 7.75883008725542  -0.0536466795046415 8.13073984092123  0.160940038513924 8.37270844825978  C 0.160940038513924 8.37270844825978  5.1108447908801 13.8224042656692  5.1108447908801 13.8224042656692  C 5.21085961398385 13.9355619106606  5.352146947053 14  5.50024224082469 14  C 5.64833753459638 14  5.78962486766554 13.9355619106606  5.88963969076928 13.8224042656692  C 5.88963969076928 13.8224042656692  10.8395627045583 8.37270844825978  10.8395627045583 8.37270844825978  C 11.0534790984806 8.13090521733658  11.0534790984806 7.75979988676413  10.8395627045583 7.51799665584093  C 10.7395478814546 7.4048390108495  10.5982605483854 7.34040092151011  10.4501652546137 7.34040092151011  C 10.302069960842 7.34040092151011  10.1607826277729 7.4048390108495  10.0607678046691 7.51799665584093  C 10.0607678046691 7.51799665584093  6.05023064323078 11.930614668632  6.05023064323078 11.930614668632  Z " fill-rule="nonzero" fill="#409eff" stroke="none" transform="matrix(1 0 0 1 597 229 )" />
  </g>
</svg>