<?xml version="1.0" encoding="utf-8"?>
<svg version="1.1" xmlns:xlink="http://www.w3.org/1999/xlink" width="12px" height="12px" xmlns="http://www.w3.org/2000/svg">
  <g transform="matrix(1 0 0 1 -549 -230 )">
    <path d="M 11 11  C 11 11  11 6  11 6  C 11 5.7238576250846  11.2238576250846 5.5  11.5 5.5  C 11.7761423749154 5.5  12 5.7238576250846  12 6  C 12 6  12 11.5  12 11.5  C 12 11.7761423749154  11.7761423749154 12  11.5 12  C 11.5 12  0.5 12  0.5 12  C 0.223857625084603 12  0 11.7761423749154  0 11.5  C 0 11.5  0 0.5  0 0.5  C 0 0.223857625084603  0.223857625084603 0  0.5 0  C 0.5 0  6 0  6 0  C 6.2761423749154 0  6.5 0.223857625084603  6.5 0.5  C 6.5 0.776142374915397  6.2761423749154 1  6 1  C 6 1  1 1  1 1  L 1 11  L 11 11  Z " fill-rule="nonzero" fill="#409eff" stroke="none" transform="matrix(1 0 0 1 549 230 )" />
  </g>
</svg>