<?xml version="1.0" encoding="utf-8"?>
<svg version="1.1" xmlns:xlink="http://www.w3.org/1999/xlink" width="8px" height="8px" xmlns="http://www.w3.org/2000/svg">
  <g transform="matrix(1 0 0 1 -376 -815 )">
    <path d="M 0.666666666666666 3.42857142857143  C 0.666666666666666 3.42857142857143  1.97266212960458 3.42857142857143  3.42857142857143 3.42857142473947  C 3.42857142857143 1.97266153557702  3.42857142857143 0.666666666666666  3.42857142857143 0.666666666666666  C 3.42857142857143 0.298476833446138  3.6844087143824 0  4 0  C 4.3155912856176 0  4.57142857142857 0.298476833446138  4.57142857142857 0.666666666666666  C 4.57142857142857 0.666666666666666  4.57142857142857 1.97266153828707  4.57142758646863 3.42857142857143  C 6.02733787310559 3.42857142857143  7.33333333333333 3.42857142857143  7.33333333333333 3.42857142857143  C 7.70152316655386 3.42857142857143  8 3.6844087143824  8 4  C 8 4.3155912856176  7.70152316655386 4.57142857142857  7.33333333333333 4.57142857142857  C 7.33333333333333 4.57142857142857  6.02733787039542 4.57142857142857  4.57142857142857 4.57142857526053  C 4.57142857142857 6.02733846442298  4.57142857142857 7.33333333333333  4.57142857142857 7.33333333333333  C 4.57142857142857 7.70152316655386  4.3155912856176 8  4 8  C 3.6844087143824 8  3.42857142857143 7.70152316655386  3.42857142857143 7.33333333333333  C 3.42857142857143 7.33333333333333  3.42857142857143 6.02733846171293  3.42857241353136 4.57142857142857  C 1.97266212689441 4.57142857142857  0.666666666666666 4.57142857142857  0.666666666666666 4.57142857142857  C 0.298476833446138 4.57142857142857  0 4.3155912856176  0 4  C 0 3.6844087143824  0.298476833446138 3.42857142857143  0.666666666666666 3.42857142857143  Z " fill-rule="nonzero" fill="#409eff" stroke="none" transform="matrix(1 0 0 1 376 815 )" />
  </g>
</svg>