<?xml version="1.0" encoding="utf-8"?>
<svg version="1.1" xmlns:xlink="http://www.w3.org/1999/xlink" width="18px" height="18px" xmlns="http://www.w3.org/2000/svg">
  <g transform="matrix(1 0 0 1 -371 -810 )">
    <path d="M 9 0  C 13.9705627484771 0  18 4.02943725152286  18 9  C 18 13.9705627484771  13.9705627484771 18  9 18  C 4.02943725152286 18  0 13.9705627484771  0 9  C 0 4.02943725152286  4.02943725152286 0  9 0  Z M 9 1.28571428571428  C 4.73951768905393 1.28571434920041  1.2857144006661 4.73951768905392  1.2857144006661 8.99999999999999  C 1.2857144006661 13.2604823109461  4.73951768905393 16.7142856507996  9 16.7142857142857  C 11.7560488638133 16.714285755354  14.3027430526539 15.2439512136154  15.680767496416 12.8571428903266  C 17.0587919401781 10.4703345670378  17.0587919401781 7.52966543296223  15.680767496416 5.14285710967341  C 14.3027430526539 2.75604878638458  11.7560488638133 1.28571424464595  9 1.28571428571428  Z " fill-rule="nonzero" fill="#409eff" stroke="none" transform="matrix(1 0 0 1 371 810 )" />
  </g>
</svg>