<?xml version="1.0" encoding="utf-8"?>
<svg version="1.1" xmlns:xlink="http://www.w3.org/1999/xlink" width="10px" height="7px" xmlns="http://www.w3.org/2000/svg">
  <g transform="matrix(1 0 0 1 -289 -16 )">
    <path d="M 3.75020625491069 5.46310688500834  C 3.75020625491069 5.46310688500834  8.93188067810629 0.186570293832112  8.93188067810629 0.186570293832112  C 9.17622774900156 -0.0621900979440382  9.57239262593327 -0.0621900979440382  9.81673969682854 0.186570293832112  C 10.0610867677238 0.435330685608264  10.0610867677238 0.838650969466805  9.81673969682855 1.08741136124296  C 9.81673969682855 1.08741136124296  4.19263576427182 6.81309611173561  4.19263576427182 6.81309611173561  C 4.07539911438603 6.9327523631884  3.91621388160926 7  3.75020625491069 7  C 3.58419862821212 7  3.42501339543535 6.9327523631884  3.30777674554956 6.81309611173561  C 3.30777674554956 6.81309611173561  0.183274560795824 3.63216013923969  0.183274560795824 3.63216013923969  C 0.0252097172155585 3.47124038235797  -0.0365216326722995 3.23669472359569  0.0213341135886848 3.01687424415631  C 0.0791898598496681 2.79705376471692  0.247843037910358 2.62535442535119  0.463763626756119 2.56645370657583  C 0.679684215601881 2.50755298780048  0.910068740648517 2.57039931015134  1.06813357951808 2.73131907182885  C 1.06813357951808 2.73131907182885  3.75020625491069 5.46310688500834  3.75020625491069 5.46310688500834  Z " fill-rule="nonzero" fill="#409eff" stroke="none" transform="matrix(1 0 0 1 289 16 )" />
  </g>
</svg>