<?xml version="1.0" encoding="utf-8"?>
<svg version="1.1" xmlns:xlink="http://www.w3.org/1999/xlink" width="6px" height="6px" xmlns="http://www.w3.org/2000/svg">
  <g transform="matrix(1 0 0 1 -435 -13 )">
    <path d="M 0.185696524747936 4.86571718560337  C 0.185696524747936 4.86571718560337  2.0564741657836 3.00000000000001  2.0564741657836 3.00000000000001  C 2.0564741657836 3.00000000000001  0.185696524747936 1.13428281439664  0.185696524747936 1.13428281439664  C -0.0650010481380679 0.875418587848823  -0.0614157202458618 0.463940936561337  0.193754776751856 0.209460676018969  C 0.448925273749573 -0.0450195845233997  0.861518991465452 -0.0485952140999906  1.12108534526577 0.201424221594961  C 1.12108534526577 0.201424221594961  2.99186298630143 2.06714140719832  2.99186298630143 2.06714140719832  C 2.99186298630143 2.06714140719832  4.8626406273371 0.201424221594961  4.8626406273371 0.201424221594961  C 5.02873132931735 0.0299229955960577  5.27468660814156 -0.038857851179496  5.50597335622075 0.0215176545857992  C 5.73726010429994 0.0818931603510944  5.91788471772637 0.262029184013477  5.97842398226416 0.492690301202571  C 6.03896324680194 0.723351418391665  5.96999584312892 0.968641387935115  5.79802944785493 1.13428281439664  C 5.79802944785493 1.13428281439664  3.92725180681926 3.00000000000001  3.92725180681926 3.00000000000001  C 3.92725180681926 3.00000000000001  5.79802944785493 4.86571718560337  5.79802944785493 4.86571718560337  C 5.96999584312891 5.0313586120649  6.03896324680193 5.27664858160835  5.97842398226414 5.50730969879744  C 5.91788471772636 5.73797081598652  5.73726010429993 5.9181068396489  5.50597335622074 5.9784823454142  C 5.27468660814156 6.0388578511795  5.02873132931735 5.97007700440395  4.8626406273371 5.79857577840505  C 4.8626406273371 5.79857577840505  2.99186298630143 3.93285859280169  2.99186298630143 3.93285859280169  C 2.99186298630143 3.93285859280169  1.12108534526577 5.79857577840505  1.12108534526577 5.79857577840505  C 0.861518991465454 6.04859521410002  0.448925273749562 6.04501958452343  0.193754776751838 5.79053932398106  C -0.0614157202458853 5.53605906343869  -0.0650010481380844 5.12458141215119  0.185696524747936 4.86571718560337  Z " fill-rule="nonzero" fill="#409eff" stroke="none" transform="matrix(1 0 0 1 435 13 )" />
  </g>
</svg>