<?xml version="1.0" encoding="utf-8"?>
<svg version="1.1" xmlns:xlink="http://www.w3.org/1999/xlink" width="5px" height="5px" xmlns="http://www.w3.org/2000/svg">
  <g transform="matrix(1 0 0 1 -529 -603 )">
    <path d="M 0.154747103956613 4.05476432133614  C 0.154747103956613 4.05476432133614  1.71372847148633 2.50000000000001  1.71372847148633 2.50000000000001  C 1.71372847148633 2.50000000000001  0.154747103956613 0.945235678663869  0.154747103956613 0.945235678663869  C -0.0541675401150565 0.729515489874019  -0.0511797668715515 0.386617447134448  0.16146231395988 0.174550563349141  C 0.374104394791311 -0.0375163204361664  0.717932492887877 -0.0404960117499922  0.934237787721473 0.167853517995801  C 0.934237787721473 0.167853517995801  2.49321915525119 1.72261783933194  2.49321915525119 1.72261783933194  C 2.49321915525119 1.72261783933194  4.05220052278091 0.167853517995801  4.05220052278091 0.167853517995801  C 4.19060944109779 0.0249358296633814  4.3955721734513 -0.03238154264958  4.58831113018396 0.0179313788214993  C 4.78105008691662 0.0682443002925786  4.93157059810531 0.218357653344564  4.98201998522013 0.410575251002143  C 5.03246937233495 0.602792848659721  4.97499653594077 0.807201156612596  4.83169120654577 0.945235678663869  C 4.83169120654577 0.945235678663869  3.27270983901605 2.50000000000001  3.27270983901605 2.50000000000001  C 3.27270983901605 2.50000000000001  4.83169120654577 4.05476432133614  4.83169120654577 4.05476432133614  C 4.97499653594076 4.19279884338742  5.03246937233494 4.39720715134029  4.98201998522012 4.58942474899786  C 4.9315705981053 4.78164234665544  4.78105008691661 4.93175569970742  4.58831113018395 4.9820686211785  C 4.3955721734513 5.03238154264958  4.19060944109779 4.97506417033662  4.05220052278091 4.83214648200421  C 4.05220052278091 4.83214648200421  2.49321915525119 3.27738216066807  2.49321915525119 3.27738216066807  C 2.49321915525119 3.27738216066807  0.934237787721473 4.83214648200421  0.934237787721473 4.83214648200421  C 0.717932492887878 5.04049601175002  0.374104394791301 5.0375163204362  0.161462313959865 4.82544943665088  C -0.0511797668715711 4.61338255286557  -0.0541675401150703 4.27048451012599  0.154747103956613 4.05476432133614  Z " fill-rule="nonzero" fill="#409eff" stroke="none" transform="matrix(1 0 0 1 529 603 )" />
  </g>
</svg>