<?xml version="1.0" encoding="utf-8"?>
<svg version="1.1" xmlns:xlink="http://www.w3.org/1999/xlink" width="12px" height="12px" xmlns="http://www.w3.org/2000/svg">
  <g transform="matrix(1 0 0 1 -164 -514 )">
    <path d="M 6 0.75  C 8.89949493661163 0.75  11.25 3.10050506338833  11.25 6  C 11.25 8.89949493661167  8.89949493661163 11.25  6 11.25  C 3.10050506338837 11.25  0.75 8.89949493661167  0.75 6  C 0.75 3.10050506338833  3.10050506338837 0.75  6 0.75  Z M 6 1.5  C 3.5147186519481 1.50000003703358  1.50000006705523 3.51471865194812  1.50000006705523 6  C 1.50000006705523 8.48528134805187  3.5147186519481 10.4999999629664  6 10.5  C 7.6076951705578 10.5000000239565  9.09326678071477 9.642304874609  9.8971143729093 8.25000001935717  C 10.7009619651038 6.85769516410537  10.7009619651038 5.14230483589463  9.8971143729093 3.74999998064283  C 9.09326678071477 2.35769512539101  7.6076951705578 1.49999997604348  6 1.5  Z " fill-rule="nonzero" fill="#409eff" stroke="none" transform="matrix(1 0 0 1 164 514 )" />
  </g>
</svg>