<?xml version="1.0" encoding="utf-8"?>
<svg version="1.1" xmlns:xlink="http://www.w3.org/1999/xlink" width="11px" height="8px" xmlns="http://www.w3.org/2000/svg">
  <g transform="matrix(1 0 0 1 -515 -403 )">
    <path d="M 0.22970994410165 4.11468562118791  C -0.0765699813672165 3.80817760342996  -0.0765699813672166 3.31132807699831  0.22970994410165 3.00482005924037  C 0.536082380079205 2.69840459293063  1.03271212843173 2.69840459293063  1.33908456440928 3.00482005924037  C 1.33908456440928 3.00482005924037  4.11330567997349 5.78026887610493  4.11330567997349 5.78026887610493  C 4.11330567997349 5.78026887610493  9.66017878151166 0.23015615437153  9.66017878151166 0.23015615437153  C 9.85834946861551 0.0317575461435845  10.1472643142766 -0.0458007358093417  10.4180918885378 0.0266967637125283  C 10.6889194627989 0.0991942632343978  10.9005146128027 0.310733448979703  10.9731714906401 0.581629554234679  C 11.0458283684774 0.852525659489656  10.9685086655385 1.14162311990824  10.7703379666144 1.34002171631907  C 10.7703379666144 1.34002171631907  4.11330567997349 8  4.11330567997349 8  C 4.11330567997349 8  0.22970994410165 4.11468562118791  0.22970994410165 4.11468562118791  Z " fill-rule="nonzero" fill="#409eff" stroke="none" transform="matrix(1 0 0 1 515 403 )" />
  </g>
</svg>