<?xml version="1.0" encoding="utf-8"?>
<svg version="1.1" xmlns:xlink="http://www.w3.org/1999/xlink" width="12px" height="13px" xmlns="http://www.w3.org/2000/svg">
  <g transform="matrix(1 0 0 1 -896 103 )">
    <path d="M 10.057321463467 11.726819737102  C 10.057321463467 11.726819737102  10.057321463467 10.9006358105214  10.057321463467 10.9006358105214  C 8.30429795970366 12.5850108146223  5.76498304535469 13.0269489075605  3.58569698970522 12.0253269400386  C 1.40641093405576 11.0237049725167  -0.000533042931059364 8.76907208341907  0 6.27923483386375  C 0 6.27923483386375  0.9998334038241 6.27923483386375  0.9998334038241 6.27923483386375  C 0.99968634928272 8.43487902606093  2.26424571313604 10.3697050189591  4.18461081835647 11.1520706210708  C 6.1049759235769 11.9344362231826  8.28754486583927 11.403986203082  9.68138421758717 9.81613868157958  C 9.68138421758717 9.81613868157958  8.22862672220565 9.81613868157958  8.22862672220565 9.81613868157958  C 7.95253043524709 9.81613868157958  7.72871017183349 9.58202783134237  7.72871017183349 9.29323746222479  C 7.72871017183349 9.00444709310721  7.95253043524709 8.77033624287  8.22862672220565 8.77033624287  C 8.22862672220565 8.77033624287  10.5572380138392 8.77033624287  10.5572380138392 8.77033624287  C 10.8333343007978 8.77033624287  11.0571545642114 9.00444709310721  11.0571545642114 9.29323746222479  C 11.0571545642114 9.29323746222479  11.0571545642114 11.726819737102  11.0571545642114 11.726819737102  C 11.0571545642114 12.0156101062196  10.8333343007978 12.2497209564568  10.5572380138392 12.2497209564568  C 10.2811417268806 12.2497209564568  10.057321463467 12.0156101062196  10.057321463467 11.726819737102  Z M 7.81473944245391 1.40604187374738  C 5.89400362282083 0.623846701277557  3.71119732029153 1.15487747525137  2.31761343060514 2.74337678858663  C 2.31761343060514 2.74337678858663  3.76937109288592 2.74337678858664  3.76937109288592 2.74337678858664  C 4.04546737984449 2.74337678858664  4.26928764325808 2.97748763882386  4.26928764325808 3.26627800794143  C 4.26928764325808 3.55506837705902  4.04546737984449 3.78917922729623  3.76937109288592 3.78917922729623  C 3.76937109288592 3.78917922729623  1.43975996815161 3.78917922729623  1.43975996815161 3.78917922729623  C 1.16366368119305 3.78917922729623  0.939843417779449 3.55506837705902  0.939843417779449 3.26627800794143  C 0.939843417779449 3.26627800794143  0.939843417779449 0.830604128186796  0.939843417779449 0.830604128186796  C 0.939843417779449 0.541813759069213  1.16366368119305 0.307702908831996  1.43975996815161 0.307702908831996  C 1.71585625511019 0.307702908831996  1.93967651852378 0.541813759069213  1.93967651852378 0.830604128186796  C 1.93967651852378 0.830604128186796  1.93967651852378 1.65678805476737  1.93967651852378 1.65678805476737  C 3.69251810675222 -0.0297104546140513  6.23317213444055 -0.47191291800683  8.41369861394268 0.529980355862249  C 10.5942250934448 1.53187362973133  12.0016258958385 3.78810110786671  11.9999971782133 6.27923483386377  C 11.9999971782133 6.27923483386377  11.000164077469 6.27923483386377  11.000164077469 6.27923483386377  C 11.0003480255193 4.12329116064998  9.73547526208699 2.1882370462172  7.81473944245391 1.40604187374738  Z " fill-rule="nonzero" fill="#ffffff" stroke="none" transform="matrix(1 0 0 1 896 -103 )" />
  </g>
</svg>