<?xml version="1.0" encoding="utf-8"?>
<svg version="1.1" xmlns:xlink="http://www.w3.org/1999/xlink" width="14px" height="12px" xmlns="http://www.w3.org/2000/svg">
  <g transform="matrix(1 0 0 1 -21 -30 )">
    <path d="M 7.48150549151733 1.02542838896049  C 7.48150549151733 1.02542838896049  11.920986540584 5.40007578255674  11.920986540584 5.40007578255674  C 11.920986540584 5.40007578255674  0.608648347829265 5.40007578255674  0.608648347829265 5.40007578255674  C 0.272501147313454 5.40007578255674  0 5.66867100365191  0 6  C 0 6.33132899634809  0.272501147313454 6.59992421744326  0.608648347829265 6.59992421744326  C 0.608648347829265 6.59992421744326  11.920986540584 6.59992421744326  11.920986540584 6.59992421744326  C 11.920986540584 6.59992421744326  7.48150549151733 10.9745716110395  7.48150549151733 10.9745716110395  C 7.24351327355214 11.209152540454  7.24351327355214 11.5894833735247  7.48150549151733 11.8240643029392  C 7.71949770948253 12.0586452323536  8.10535933407838 12.0586452323536  8.34335155204357 11.8240643029392  C 8.34335155204357 11.8240643029392  13.821186682507 6.42474634594983  13.821186682507 6.42474634594983  C 13.9356633340081 6.3121954477914  14 6.15937258105102  14 6  C 14 5.84062741894898  13.9356633340081 5.6878045522086  13.821186682507 5.57525365405017  C 13.821186682507 5.57525365405017  8.34335155204357 0.175935697060833  8.34335155204357 0.175935697060833  C 8.10535933407838 -0.0586452323536109  7.71949770948253 -0.0586452323536109  7.48150549151733 0.175935697060833  C 7.24351327355214 0.410516626475277  7.24351327355214 0.790847459546044  7.48150549151733 1.02542838896049  Z " fill-rule="nonzero" fill="#303133" stroke="none" transform="matrix(1 0 0 1 21 30 )" />
  </g>
</svg>