<?xml version="1.0" encoding="utf-8"?>
<svg version="1.1" xmlns:xlink="http://www.w3.org/1999/xlink" width="6px" height="9px" xmlns="http://www.w3.org/2000/svg">
  <g transform="matrix(1 0 0 1 -835 -23 )">
    <path d="M 5.26923076923083 1.42533936651584  C 5.26923076923083 1.42533936651584  0.961538461538566 1.42533936651584  0.961538461538566 1.42533936651584  C 0.602564102564202 1.42533936651584  0.423076923077019 1.23529411764706  0.423076923077019 0.855203619909503  C 0.423076923077019 0.475113122171948  0.602564102564202 0.285067873303168  0.961538461538566 0.285067873303168  C 0.961538461538566 0.285067873303168  5.26923076923083 0.285067873303168  5.26923076923083 0.285067873303168  C 5.6282051282052 0.285067873303168  5.80769230769238 0.475113122171948  5.80769230769238 0.855203619909503  C 5.80769230769238 1.23529411764706  5.6282051282052 1.42533936651584  5.26923076923083 1.42533936651584  Z M 3.65384615384619 4.27601809954751  C 4.8433825380971 4.27601809954751  5.80769230769226 5.29705197323656  5.80769230769226 6.55656108597285  C 5.80769230769226 7.81607019870914  4.8433825380971 8.83710407239819  3.65384615384619 8.83710407239819  C 2.46430976959516 8.83710407239819  1.5 7.81607019870914  1.5 6.55656108597285  C 1.5 5.29705197323656  2.46430976959516 4.27601809954751  3.65384615384619 4.27601809954751  Z M 4.73076923076917 6.55656108597285  C 4.73076923076917 5.92680652960471  4.24861434597153 5.41628959276018  3.65384615384608 5.41628959276018  C 3.05907796172062 5.41628959276018  2.57692307692298 5.92680652960471  2.57692307692298 6.55656108597285  C 2.57692307692298 7.186315642341  3.05907796172062 7.69683257918552  3.65384615384608 7.69683257918552  C 4.24861434597153 7.69683257918552  4.73076923076917 7.186315642341  4.73076923076917 6.55656108597285  Z " fill-rule="nonzero" fill="#409eff" stroke="none" transform="matrix(1 0 0 1 835 23 )" />
  </g>
</svg>