<?xml version="1.0" encoding="utf-8"?>
<svg version="1.1" xmlns:xlink="http://www.w3.org/1999/xlink" width="15px" height="15px" xmlns="http://www.w3.org/2000/svg">
  <g transform="matrix(1 0 0 1 -251 -24 )">
    <path d="M 7.5 0  C 11.642135623731 0  15 3.35786437626905  15 7.5  C 15 11.642135623731  11.642135623731 15  7.5 15  C 3.35786437626908 15  0 11.642135623731  0 7.5  C 0 3.35786437626905  3.35786437626908 0  7.5 0  Z M 7.50000000000006 1.07142857142857  C 3.94959807421165 1.07142862433368  1.07142866722181 3.9495980742116  1.07142866722181 7.5  C 1.07142866722181 11.0504019257884  3.94959807421165 13.9285713756663  7.50000000000006 13.9285714285714  C 9.79670738651115 13.928571462795  11.9189525438783 12.7032926780128  13.0673062470134 10.7142857419388  C 14.2156599501484 8.7252788058648  14.2156599501484 6.2747211941352  13.0673062470134 4.28571425806118  C 11.9189525438783 2.29670732198715  9.79670738651115 1.07142853720496  7.50000000000006 1.07142857142857  Z " fill-rule="nonzero" fill="#606266" stroke="none" transform="matrix(1 0 0 1 251 24 )" />
  </g>
</svg>