<?xml version="1.0" encoding="utf-8"?>
<svg version="1.1" xmlns:xlink="http://www.w3.org/1999/xlink" width="14px" height="9px" xmlns="http://www.w3.org/2000/svg">
  <g transform="matrix(1 0 0 1 -300 -27 )">
    <path d="M 1.31250515276948 2.5715246150379  C 1.31250515276948 2.5715246150379  2.18750858794913 2.5715246150379  2.18750858794913 2.5715246150379  C 2.53560659746292 2.5715246150379  2.86944741876989 2.70698394159377  3.11558988181469 2.9481030890662  C 3.36173234485948 3.18922223653863  3.5000137407186 3.51624997985975  3.5000137407186 3.85724394836309  C 3.5000137407186 3.85724394836309  5.27189569695734 3.85724394836309  5.27189569695734 3.85724394836309  C 5.50500787701085 1.58514248952463  7.51580958063549 -0.108860802297485  9.84400832486162 0.0054599418695856  C 12.1722070690877 0.119780686036659  14 2.00226917323321  14 4.28581705947149  C 14 6.56936494570977  12.1722070690877 8.45185343290632  9.84400832486162 8.56617417707339  C 7.51580958063549 8.68049492124046  5.50500787701085 6.98649162941835  5.27189569695734 4.71439017057989  C 5.27189569695734 4.71439017057989  3.5000137407186 4.71439017057989  3.5000137407186 4.71439017057989  C 3.5000137407186 5.424473350938  2.912385167898 6.00010950390508  2.18750858794913 6.00010950390508  C 2.18750858794913 6.00010950390508  1.31250515276948 6.00010950390508  1.31250515276948 6.00010950390508  C 0.587628572820549 6.00010950390508  0 5.424473350938  0 4.71439017057989  C 0 4.71439017057989  0 3.85724394836309  0 3.85724394836309  C 0 3.14716076800497  0.587628572820549 2.5715246150379  1.31250515276948 2.5715246150379  Z M 9.62503778697615 0.857232170604308  C 7.69203357377901 0.857232170604308  6.12502404625755 2.39226191184984  6.12502404625755 4.28581705947149  C 6.12502404625755 6.17937220709313  7.69203357377901 7.71440194833866  9.62503778697615 7.71440194833866  C 11.5580420001732 7.71440194833866  13.1250515276947 6.17937220709313  13.1250515276947 4.28581705947149  C 13.1250515276947 2.39226191184984  11.5580420001732 0.857232170604308  9.62503778697615 0.857232170604308  Z M 2.6250103055389 3.85724394836309  C 2.6250103055389 3.62054955491038  2.42913411459872 3.42867083725469  2.18750858794908 3.42867083725469  C 2.18750858794908 3.42867083725469  1.31250515276943 3.42867083725469  1.31250515276943 3.42867083725469  C 1.07087962611978 3.42867083725469  0.8750034351796 3.62054955491038  0.8750034351796 3.85724394836309  C 0.8750034351796 3.85724394836309  0.8750034351796 4.71439017057989  0.8750034351796 4.71439017057989  C 0.8750034351796 4.95108456403259  1.07087962611978 5.14296328168828  1.31250515276943 5.14296328168828  C 1.31250515276943 5.14296328168828  2.18750858794908 5.14296328168828  2.18750858794908 5.14296328168828  C 2.42913411459872 5.14296328168828  2.6250103055389 4.95108456403259  2.6250103055389 4.71439017057989  C 2.6250103055389 4.71439017057989  2.6250103055389 3.85724394836309  2.6250103055389 3.85724394836309  Z M 7.43752919902698 3.85724394836309  C 7.43752919902698 3.85724394836309  9.18753606938628 3.85724394836309  9.18753606938628 3.85724394836309  C 9.18753606938628 3.85724394836309  9.18753606938628 2.1429515039295  9.18753606938628 2.1429515039295  C 9.18753606938628 1.90625711047679  9.38341226032646 1.7143783928211  9.62503778697605 1.7143783928211  C 9.86666331362569 1.7143783928211  10.0625395045659 1.90625711047679  10.0625395045659 2.1429515039295  C 10.0625395045659 2.1429515039295  10.0625395045659 3.85724394836309  10.0625395045659 3.85724394836309  C 10.0625395045659 3.85724394836309  11.8125463749252 3.85724394836309  11.8125463749252 3.85724394836309  C 12.0541719015748 3.85724394836309  12.250048092515 4.04912266601878  12.250048092515 4.28581705947149  C 12.250048092515 4.52251145292419  12.0541719015748 4.71439017057988  11.8125463749252 4.71439017057988  C 11.8125463749252 4.71439017057988  10.0625395045659 4.71439017057988  10.0625395045659 4.71439017057988  C 10.0625395045659 4.71439017057988  10.0625395045659 6.42868261501347  10.0625395045659 6.42868261501347  C 10.0625395045659 6.66537700846618  9.86666331362569 6.85725572612187  9.62503778697605 6.85725572612187  C 9.38341226032646 6.85725572612187  9.18753606938628 6.66537700846618  9.18753606938628 6.42868261501347  C 9.18753606938628 6.42868261501347  9.18753606938628 4.71439017057988  9.18753606938628 4.71439017057988  C 9.18753606938628 4.71439017057988  7.43752919902698 4.71439017057988  7.43752919902698 4.71439017057988  C 7.19590367237733 4.71439017057988  7.00002748143715 4.52251145292419  7.00002748143715 4.28581705947149  C 7.00002748143715 4.04912266601878  7.19590367237733 3.85724394836309  7.43752919902698 3.85724394836309  Z " fill-rule="nonzero" fill="#409eff" stroke="none" transform="matrix(1 0 0 1 300 27 )" />
  </g>
</svg>