<?xml version="1.0" encoding="utf-8"?>
<svg version="1.1" xmlns:xlink="http://www.w3.org/1999/xlink" width="16px" height="12px" xmlns="http://www.w3.org/2000/svg">
  <g transform="matrix(1 0 0 1 -339 -10 )">
    <path d="M 0.334123555056945 6.17202843178186  C -0.111374518352315 5.71226640514494  -0.111374518352315 4.96699211549747  0.334123555056946 4.50723008886055  C 0.779756189206116 4.04760688939595  1.50212673226433 4.04760688939595  1.9477593664135 4.50723008886055  C 1.9477593664135 4.50723008886055  5.98299007996144 8.67040331415739  5.98299007996144 8.67040331415739  C 5.98299007996144 8.67040331415739  14.0511691367442 0.345234231557295  14.0511691367442 0.345234231557295  C 14.3394174088953 0.0476363192153767  14.7596571844024 -0.0687011037140125  15.1535882015095 0.0400451455687924  C 15.5475192186166 0.148791394851597  15.8552939822584 0.466100173469554  15.9609767136583 0.872444331352019  C 16.0666594450581 1.27878848923448  15.9541944226015 1.71243467986236  15.6659461332573 2.0100325744786  C 15.6659461332573 2.0100325744786  5.98299007996144 12  5.98299007996144 12  C 5.98299007996144 12  0.334123555056945 6.17202843178186  0.334123555056945 6.17202843178186  Z " fill-rule="nonzero" fill="#409eff" stroke="none" transform="matrix(1 0 0 1 339 10 )" />
  </g>
</svg>