<?xml version="1.0" encoding="utf-8"?>
<svg version="1.1" xmlns:xlink="http://www.w3.org/1999/xlink" width="14px" height="14px" xmlns="http://www.w3.org/2000/svg">
  <g transform="matrix(1 0 0 1 -829 -19 )">
    <path d="M 0 11.8461538461538  C 0 11.8461538461538  0 2.15384615384616  0 2.15384615384616  C 0 0.964309769595214  0.964309769595161 0  2.15384615384619 0  C 2.15384615384619 0  11.8461538461538 0  11.8461538461538 0  C 13.0356902304048 0  14 0.964309769595214  14 2.15384615384616  C 14 2.15384615384616  14 11.8461538461538  14 11.8461538461538  C 14 13.0356902304048  13.0356902304048 14  11.8461538461538 14  C 11.8461538461538 14  2.15384615384619 14  2.15384615384619 14  C 0.964309769595161 14  0 13.0356902304048  0 11.8461538461538  Z M 12.9230769230768 2.15384615384615  C 12.9230769230768 1.55907796172068  12.4409220382792 1.07692307692307  11.8461538461537 1.07692307692307  C 11.8461538461537 1.07692307692307  2.15384615384608 1.07692307692307  2.15384615384608 1.07692307692307  C 1.55907796172062 1.07692307692307  1.07692307692298 1.55907796172068  1.07692307692298 2.15384615384615  C 1.07692307692298 2.15384615384615  1.07692307692298 11.8461538461538  1.07692307692298 11.8461538461538  C 1.07692307692298 12.4409220382793  1.55907796172062 12.9230769230769  2.15384615384608 12.9230769230769  C 2.15384615384608 12.9230769230769  11.8461538461537 12.9230769230769  11.8461538461537 12.9230769230769  C 12.4409220382792 12.9230769230769  12.9230769230768 12.4409220382793  12.9230769230768 11.8461538461538  C 12.9230769230768 11.8461538461538  12.9230769230768 2.15384615384615  12.9230769230768 2.15384615384615  Z " fill-rule="nonzero" fill="#337ecc" stroke="none" transform="matrix(1 0 0 1 829 19 )" />
  </g>
</svg>