<?xml version="1.0" encoding="utf-8"?>
<svg version="1.1" xmlns:xlink="http://www.w3.org/1999/xlink" width="5px" height="5px" xmlns="http://www.w3.org/2000/svg">
  <g transform="matrix(1 0 0 1 -832 -21 )">
    <path d="M 2.60683760683732 0.170940170940172  C 3.92854470044957 0.170940170940172  4.99999999999975 1.24239547049041  4.99999999999975 2.56410256410257  C 4.99999999999975 3.88580965771472  3.92854470044957 4.95726495726496  2.60683760683732 4.95726495726496  C 1.28513051322519 4.95726495726496  0.21367521367501 3.88580965771472  0.21367521367501 2.56410256410257  C 0.21367521367501 1.24239547049041  1.28513051322519 0.170940170940172  2.60683760683732 0.170940170940172  Z M 2.60683760683782 1.36752136752137  C 1.94598406003176 1.36752136752137  1.4102564102566 1.90324901729649  1.4102564102566 2.56410256410256  C 1.4102564102566 3.22495611090864  1.94598406003176 3.76068376068376  2.60683760683782 3.76068376068376  C 3.26769115364388 3.76068376068376  3.80341880341904 3.22495611090864  3.80341880341904 2.56410256410256  C 3.80341880341904 1.90324901729649  3.26769115364388 1.36752136752137  2.60683760683782 1.36752136752137  Z " fill-rule="nonzero" fill="#9fceff" stroke="none" transform="matrix(1 0 0 1 832 21 )" />
  </g>
</svg>