<?xml version="1.0" encoding="utf-8"?>
<svg version="1.1" xmlns:xlink="http://www.w3.org/1999/xlink" width="10px" height="6px" xmlns="http://www.w3.org/2000/svg">
  <g transform="matrix(1 0 0 1 -159 -11 )">
    <path d="M 9.86647104628602 3.30337283718195  C 9.95195655549719 3.22298395184535  10 3.11383102537195  10 3  C 10 2.88616897462804  9.95195655549719 2.77701604815464  9.86647104628602 2.69662716281804  C 9.86647104628602 2.69662716281804  7.13941990026998 0.12567091551334  7.13941990026998 0.12567091551334  C 7.02445467897583 0.0172862398754157  6.85688921824997 -0.0250427943778324  6.69984380541045 0.0146287502865842  C 6.54279839257093 0.0543002949510009  6.42013196172592 0.169945367166198  6.37805177018056 0.318001587468539  C 6.3359715786352 0.466057807770881  6.38087060851604 0.624031914239326  6.4958358298102 0.73241658987725  C 6.4958358298102 0.73241658987725  8.447495433309 2.57150729211588  8.447495433309 2.57150729211588  C 8.447495433309 2.57150729211588  0.454508524336006 2.57150729211588  0.454508524336006 2.57150729211588  C 0.203490397677132 2.57150729211588  0 2.7633500120219  0 3  C 0 3.2366499879781  0.203490397677132 3.42849270788412  0.454508524336006 3.42849270788412  C 0.454508524336006 3.42849270788412  8.447495433309 3.42849270788412  8.447495433309 3.42849270788412  C 8.447495433309 3.42849270788412  6.4958358298102 5.26758341012275  6.4958358298102 5.26758341012275  C 6.38087060851604 5.37596808576067  6.3359715786352 5.53394219222912  6.37805177018056 5.68199841253146  C 6.42013196172592 5.8300546328338  6.54279839257093 5.945699705049  6.69984380541045 5.98537124971342  C 6.85688921824997 6.02504279437783  7.02445467897583 5.98271376012458  7.13941990026998 5.87432908448666  C 7.13941990026998 5.87432908448666  9.86647104628602 3.30337283718195  9.86647104628602 3.30337283718195  Z " fill-rule="nonzero" fill="#606266" stroke="none" transform="matrix(1 0 0 1 159 11 )" />
  </g>
</svg>