<?xml version="1.0" encoding="utf-8"?>
<svg version="1.1" xmlns:xlink="http://www.w3.org/1999/xlink" width="10px" height="11px" xmlns="http://www.w3.org/2000/svg">
  <g transform="matrix(1 0 0 1 -398 -28 )">
    <path d="M 0.909090909090909 3.20833333333333  C 0.909090909090909 3.20833333333333  0.909090909090909 1.375  0.909090909090909 1.375  C 0.909090909090909 1.12186948966089  1.112597840986 0.916666666666667  1.36363636363636 0.916666666666667  C 1.36363636363636 0.916666666666667  8.63636363636364 0.916666666666667  8.63636363636364 0.916666666666667  C 8.887402159014 0.916666666666667  9.09090909090909 1.12186948966089  9.09090909090909 1.375  C 9.09090909090909 1.375  9.09090909090909 9.625  9.09090909090909 9.625  C 9.09090909090909 9.87813051033912  8.887402159014 10.0833333333333  8.63636363636364 10.0833333333333  C 8.63636363636364 10.0833333333333  1.36363636363636 10.0833333333333  1.36363636363636 10.0833333333333  C 1.112597840986 10.0833333333333  0.909090909090909 9.87813051033912  0.909090909090909 9.625  C 0.909090909090909 9.625  0.909090909090909 7.79166666666667  0.909090909090909 7.79166666666667  C 0.909090909090909 7.53853615632755  0.705583977195815 7.33333333333333  0.454545454545455 7.33333333333333  C 0.203506931895094 7.33333333333333  0 7.53853615632755  0 7.79166666666667  C 0 7.79166666666667  0 9.625  0 9.625  C 0 10.3843915310173  0.610520795685282 11  1.36363636363636 11  C 1.36363636363636 11  8.63636363636364 11  8.63636363636364 11  C 9.38947920431472 11  10 10.3843915310173  10 9.625  C 10 9.625  10 1.375  10 1.375  C 10 0.615608468982659  9.38947920431472 0  8.63636363636364 0  C 8.63636363636364 0  1.36363636363636 0  1.36363636363636 0  C 0.610520795685282 0  0 0.615608468982659  0 1.375  C 0 1.375  0 3.20833333333333  0 3.20833333333333  C 0 3.46146384367245  0.203506931895094 3.66666666666667  0.454545454545455 3.66666666666667  C 0.705583977195815 3.66666666666667  0.909090909090909 3.46146384367245  0.909090909090909 3.20833333333333  Z " fill-rule="nonzero" fill="#606266" stroke="none" transform="matrix(1 0 0 1 398 28 )" />
  </g>
</svg>