<?xml version="1.0" encoding="utf-8"?>
<svg version="1.1" xmlns:xlink="http://www.w3.org/1999/xlink" width="11px" height="10px" xmlns="http://www.w3.org/2000/svg">
  <g transform="matrix(1 0 0 1 -41 -624 )">
    <path d="M 9.78252567548139 0.790374920247909  C 11.0172200015549 1.95291178570672  10.8736088838916 3.97183096536964  9.46278771540087 5.30105197540045  C 9.46278771540087 5.30105197540045  8.18564230423196 6.50355901838418  8.18564230423196 6.50355901838418  L 7.54616638407102 5.90230549689232  C 7.54616638407102 5.90230549689232  8.82331179523992 4.69894802459955  8.82331179523992 4.69894802459955  C 9.88187927889624 3.70309530371274  10.024587181983 2.22249787667266  9.14304975532044 1.39162844173977  C 8.26060911408135 0.561609436115926  6.68811253639739 0.695977266944377  5.62954505274108 1.69268041714023  C 5.62954505274108 1.69268041714023  4.35330285614871 2.89518746012396  4.35330285614871 2.89518746012396  L 3.71473015056421 2.29393393863209  C 3.71473015056421 2.29393393863209  4.99187556173312 1.09142689564836  4.99187556173312 1.09142689564836  C 6.40359994480032 -0.23694368507341  8.54783134940785 -0.37131151590186  9.78252567548139 0.790374920247909  Z M 1.47837085915367 8.60837155826022  C 2.36081150039268 9.43839056388407  3.93330807807663 9.30402273305562  4.99187556173294 8.30731958285977  C 4.99187556173294 8.30731958285977  6.26902097290185 7.10481253987605  6.26902097290185 7.10481253987605  L 6.90759367848635 7.70606606136791  C 6.90759367848635 7.70606606136791  5.63044826731744 8.90857310435164  5.63044826731744 8.90857310435164  C 4.21872388425023 10.2369436850734  2.07449247964271 10.3713115159019  0.839798153569173 9.20962507975209  C -0.394896172504363 8.04708821429328  -0.25128505484107 6.02816903463036  1.15953611364969 4.69894802459955  C 1.15953611364969 4.69894802459955  2.4366815248186 3.49644098161582  2.4366815248186 3.49644098161582  L 3.07525423040309 4.09769450310768  C 3.07525423040309 4.09769450310768  1.7981088192341 5.30105197540045  1.7981088192341 5.30105197540045  C 0.739541335577871 6.29690469628726  0.596833432491025 7.77750212332734  1.47837085915367 8.60837155826022  Z M 3.7138269359875 7.10481253987605  L 3.07525423040301 6.50355901838418  L 6.90759367848626 2.89518746012395  L 7.54616638407076 3.49644098161582  L 3.7138269359875 7.10481253987605  Z " fill-rule="nonzero" fill="#909399" stroke="none" transform="matrix(1 0 0 1 41 624 )" />
  </g>
</svg>