<?xml version="1.0" encoding="utf-8"?>
<svg version="1.1" xmlns:xlink="http://www.w3.org/1999/xlink" width="6px" height="6px" xmlns="http://www.w3.org/2000/svg">
  <g transform="matrix(1 0 0 1 -874 -22 )">
    <path d="M 0.5 2.57142857142857  C 0.5 2.57142857142857  1.47949659720344 2.57142857142857  2.57142857142857 2.5714285685546  C 2.57142857142857 1.47949615168276  2.57142857142857 0.5  2.57142857142857 0.5  C 2.57142857142857 0.223857625084603  2.7633065357868 0  3 0  C 3.2366934642132 0  3.42857142857143 0.223857625084603  3.42857142857143 0.5  C 3.42857142857143 0.5  3.42857142857143 1.4794961537153  3.42857068985148 2.57142857142857  C 4.52050340482919 2.57142857142857  5.5 2.57142857142857  5.5 2.57142857142857  C 5.7761423749154 2.57142857142857  6 2.7633065357868  6 3  C 6 3.2366934642132  5.7761423749154 3.42857142857143  5.5 3.42857142857143  C 5.5 3.42857142857143  4.52050340279656 3.42857142857143  3.42857142857143 3.4285714314454  C 3.42857142857143 4.52050384831723  3.42857142857143 5.5  3.42857142857143 5.5  C 3.42857142857143 5.7761423749154  3.2366934642132 6  3 6  C 2.7633065357868 6  2.57142857142857 5.7761423749154  2.57142857142857 5.5  C 2.57142857142857 5.5  2.57142857142857 4.5205038462847  2.57142931014852 3.42857142857143  C 1.47949659517081 3.42857142857143  0.5 3.42857142857143  0.5 3.42857142857143  C 0.223857625084603 3.42857142857143  0 3.2366934642132  0 3  C 0 2.7633065357868  0.223857625084603 2.57142857142857  0.5 2.57142857142857  Z " fill-rule="nonzero" fill="#409eff" stroke="none" transform="matrix(1 0 0 1 874 22 )" />
  </g>
</svg>