<?xml version="1.0" encoding="utf-8"?>
<svg version="1.1" xmlns:xlink="http://www.w3.org/1999/xlink" width="25px" height="25px" xmlns="http://www.w3.org/2000/svg">
  <g transform="matrix(1 0 0 1 -38 -29 )">
    <path d="M 12.5 25  C 5.59644062711508 25  0 19.4035593728849  0 12.5  C 0 5.59644062711508  5.59644062711508 0  12.5 0  C 19.4035593728849 0  25 5.59644062711508  25 12.5  C 25 19.4035593728849  19.4035593728849 25  12.5 25  Z M 13.4732142857143 14.2892857142857  C 13.4732142857143 14.2892857142857  14.1232142857142 7.13571428571429  14.1232142857142 7.13571428571429  C 14.1648601272429 6.67950709524423  14.0126518526981 6.22682754927891  13.7038387907645 5.88845812168174  C 13.395025728831 5.55008869408458  12.9581040980275 5.35725296422272  12.5 5.35714285714285  C 12.0415851061842 5.3567509273269  11.6041853520808 5.54936856493553  11.2949773414138 5.88779843155566  C 10.9857693307468 6.22622829817578  10.8333257359692 6.67919744681496  10.875 7.13571428571429  C 10.875 7.13571428571429  11.5267857142857 14.2892857142857  11.5267857142857 14.2892857142857  C 11.5791228778507 14.7874080044129  11.9991357523124 15.1656025835556  12.5 15.1656025835556  C 13.0008642476875 15.1656025835556  13.4208771221492 14.7874080044129  13.4732142857143 14.2892857142857  Z M 12.5 16.7857142857143  C 11.711021785956 16.7857142857143  11.0714285714286 17.4253075002417  11.0714285714286 18.2142857142857  C 11.0714285714286 19.0032639283297  11.711021785956 19.6428571428571  12.5 19.6428571428571  C 13.288978214044 19.6428571428571  13.9285714285714 19.0032639283297  13.9285714285714 18.2142857142857  C 13.9285714285714 17.4253075002417  13.288978214044 16.7857142857143  12.5 16.7857142857143  Z " fill-rule="nonzero" fill="#e6a23c" stroke="none" transform="matrix(1 0 0 1 38 29 )" />
  </g>
</svg>