<?xml version="1.0" encoding="utf-8"?>
<svg version="1.1" xmlns:xlink="http://www.w3.org/1999/xlink" width="18px" height="18px" xmlns="http://www.w3.org/2000/svg">
  <g transform="matrix(1 0 0 1 -242 -179 )">
    <path d="M 2.636038848332 2.636038848332  C 4.3238662311009 0.948211465563093  6.61305161884853 0  9 0  C 11.3869483811515 0  13.6761331558228 0.948211465563093  15.3639605385917 2.636038848332  C 17.0517879213606 4.3238662311009  18 6.61305161884853  18 9  C 18 11.3869483811515  17.0517879213606 13.6761331558228  15.3639605385917 15.3639605385917  C 13.6761331558228 17.0517879213606  11.3869483811515 18  9 18  C 6.61305161884853 18  4.3238662311009 17.0517879213606  2.636038848332 15.3639605385917  C 0.948211465563093 13.6761331558228  0 11.3869483811515  0 9  C 0 6.61305161884853  0.948211465563093 4.3238662311009  2.636038848332 2.636038848332  Z M 11.0905719484602 5.81785726547241  C 11.0905719484602 5.81785726547241  9 7.90842860085624  9 7.90842860085624  C 9 7.90842860085624  6.90942866461618 5.81785726547241  6.90942866461618 5.81785726547241  C 6.76467729679176 5.67310589764799  6.56835231823581 5.59178536278861  6.36364296504429 5.59178536278861  C 6.15893361185278 5.59178536278861  5.96260863329683 5.67310589764799  5.81785726547241 5.81785726547241  C 5.67310589764799 5.96260863329683  5.59178536278861 6.15893361185278  5.59178536278861 6.36364296504429  C 5.59178536278861 6.56835231823581  5.67310589764799 6.76467729679176  5.81785726547241 6.90942866461618  C 5.81785726547241 6.90942866461618  7.90842860085624 9  7.90842860085624 9  C 7.90842860085624 9  5.81785726547241 11.0905719484602  5.81785726547241 11.0905719484602  C 5.74618365934917 11.1622455497938  5.68932901136577 11.2473344589983  5.65053953443255 11.3409805297852  C 5.61175005749932 11.434626600572  5.59178536478669 11.5349952546614  5.59178536278861 11.6363570349557  C 5.59178536079053 11.7377188152501  5.61175005989415 11.8380886859127  5.65053953443255 11.9317347662789  C 5.68932900897094 12.0253808466452  5.74618366413883 12.1104697462704  5.81785726547241 12.1821433476039  C 5.889530866806 12.2538169489375  5.97461976643119 12.3106709910291  6.0682658467974 12.3494604655675  C 6.1619119271636 12.3882499401058  6.26228118474994 12.4082152522858  6.36364296504429 12.4082152502877  C 6.46500474533864 12.4082152482897  6.56537401250431 12.3882499425007  6.65902008329119 12.3494604655675  C 6.75266615407807 12.3106709886342  6.83775506328259 12.2538169537272  6.90942866461618 12.1821433476039  C 6.90942866461618 12.1821433476039  9 10.0915713991438  9 10.0915713991438  C 9 10.0915713991438  11.0905719484602 12.1821433476039  11.0905719484602 12.1821433476039  C 11.1622455497938 12.2538169585168  11.2473344589983 12.3106709862394  11.3409805297852 12.3494604655675  C 11.434626600572 12.3882499448955  11.5349952546614 12.4082152470837  11.6363570349557 12.4082152502877  C 11.7377188152501 12.4082152534918  11.8380886859127 12.3882499401058  11.9317347662789 12.3494604655675  C 12.0253808466452 12.3106709910291  12.1104697414807 12.2538169537272  12.1821433476039 12.1821433476039  C 12.2538169537272 12.1104697414807  12.3106709910291 12.0253808466452  12.3494604655675 11.9317347662789  C 12.3882499401058 11.8380886859127  12.4082152534918 11.7377188152501  12.4082152502877 11.6363570349557  C 12.4082152470837 11.5349952546614  12.3882499448955 11.434626600572  12.3494604655675 11.3409805297852  C 12.3106709862394 11.2473344589983  12.2538169585168 11.1622455497938  12.1821433476039 11.0905719484602  C 12.1821433476039 11.0905719484602  10.0915713991438 9  10.0915713991438 9  C 10.0915713991438 9  12.1821433476039 6.90942866461618  12.1821433476039 6.90942866461618  C 12.2538169537272 6.83775506328259  12.3106709886342 6.75266615407807  12.3494604655675 6.65902008329119  C 12.3882499425007 6.56537401250431  12.4082152482897 6.46500474533864  12.4082152502877 6.36364296504429  C 12.4082152522858 6.26228118474994  12.3882499401058 6.1619119271636  12.3494604655675 6.0682658467974  C 12.3106709910291 5.97461976643119  12.2538169489375 5.889530866806  12.1821433476039 5.81785726547241  C 12.1104697462704 5.74618366413883  12.0253808466452 5.68932900897094  11.9317347662789 5.65053953443255  C 11.8380886859127 5.61175005989415  11.7377188152501 5.59178536079053  11.6363570349557 5.59178536278861  C 11.5349952546614 5.59178536478669  11.434626600572 5.61175005749932  11.3409805297852 5.65053953443255  C 11.2473344589983 5.68932901136577  11.1622455497938 5.74618365934917  11.0905719484602 5.81785726547241  Z " fill-rule="nonzero" fill="#f56c6c" stroke="none" transform="matrix(1 0 0 1 242 179 )" />
  </g>
</svg>