<?xml version="1.0" encoding="utf-8"?>
<svg version="1.1" xmlns:xlink="http://www.w3.org/1999/xlink" width="14px" height="14px" xmlns="http://www.w3.org/2000/svg">
  <g transform="matrix(1 0 0 1 -304 -9 )">
    <path d="M 12.746792609341 0.224841547332398  C 12.746792609341 0.224841547332398  12.746792609341 0.226299248815512  12.746792609341 0.226299248815512  L 7.00072842548389 5.97297527309683  C 7.00072842548389 5.97297527309683  1.25466580551735 0.226299248815512  1.25466580551735 0.226299248815512  C 1.11646466371834 0.0998189786670517  0.93479809353297 0.0315422567004622  0.747511725952352 0.0356924412234682  C 0.560225358371735 0.0398426257464743  0.38176150579131 0.116099936265903  0.249297540064643 0.248578029780248  C 0.116833574337975 0.381056123294594  0.0405843987996066 0.559538966280214  0.0364346568624214 0.746845308666973  C 0.0322849149252362 0.934151651053733  0.100554352980234 1.1158375966724  0.227021134963559 1.25405347815081  C 0.227021134963559 1.25405347815081  5.97016901040082 7.00072919830986  5.97016901040082 7.00072919830986  C 5.97016901040082 7.00072919830986  0.225563588933295 12.7459471300937  0.225563588933295 12.7459471300937  C 0.155381126125592 12.8128382801655  0.0992777865594923 12.8930863065237  0.0605512426066452 12.981973816587  C 0.021824698653798 13.0708613266504  0.00125639371057582 13.1665942488443  5.57819567407562E-05 13.2635458541407  C -0.00114482979709431 13.360497459437  0.0170464508769057 13.4567109545549  0.053559956605015 13.5465304092974  C 0.0900734623331242 13.63634986404  0.144172304140577 13.7179632418957  0.21267678293705 13.786572204883  C 0.281181261733524 13.8551811678702  0.362708708180945 13.9094016012335  0.452466737040088 13.9460462764362  C 0.542224765899232 13.9826909516388  0.638402142078318 14.0010202176953  0.735345004690182 13.9999569015298  C 0.832287867302047 13.9988935853644  0.928040017285459 13.9784586422233  1.01697285493043 13.9398539994636  C 1.1059056925754 13.9012493567038  1.18622482719505 13.8452545138138  1.25320825948708 13.7751594519265  C 1.25320825948708 13.7751594519265  7.00072842548389 8.02994152014262  7.00072842548389 8.02994152014262  C 7.00072842548389 8.02994152014262  12.746792609341 13.776616458273  12.746792609341 13.776616458273  C 12.88499375114 13.9030967284214  13.0666599737942 13.971374493093  13.2539463413748 13.96722430857  C 13.4412327089554 13.9630741240469  13.6196962140046 13.8868168135275  13.7521601797312 13.7543387200132  C 13.8846241454579 13.6218606264988  13.9608733237114 13.4433766973622  13.9650230656486 13.2560703549755  C 13.9691728075857 13.0687640125887  13.9009037143469 12.8870784145384  13.7744369323636 12.74886253306  C 13.7744369323636 12.74886253306  8.02837274850643 7.00218759492959  8.02837274850643 7.00218759492959  C 8.02837274850643 7.00218759492959  13.7744369323636 1.25405347815081  13.7744369323636 1.25405347815081  C 13.8446193951713 1.18716232807906  13.9007223926363 1.10691430172087  13.9394489365892 1.01802679165753  C 13.978175480542 0.929139281594183  13.9987437832474 0.83340601183192  13.9999443950012 0.736454406535555  C 14.0011450067551 0.63950280123919  13.9829533807876 0.543289349567372  13.9464398750595 0.453469894824837  C 13.9099263693314 0.363650440082302  13.855827869625 0.282037409794852  13.7873233908286 0.2134284468076  C 13.7188189120321 0.144819483820348  13.6372918131159 0.0905990504570374  13.5475337842568 0.0539543752544076  C 13.4577757553976 0.0173097000517777  13.3615973366248 -0.00101956686651139  13.264654474013 4.37492989362246E-05  C 13.1677116114011 0.00110706546438384  13.0719605040114 0.0215416618989812  12.9830276663664 0.0601463046587162  C 12.8940948287215 0.0987509474184513  12.8137760416331 0.15474648544513  12.746792609341 0.224841547332398  Z " fill-rule="nonzero" fill="#409eff" stroke="none" transform="matrix(1 0 0 1 304 9 )" />
  </g>
</svg>