<?xml version="1.0" encoding="utf-8"?>
<svg version="1.1" xmlns:xlink="http://www.w3.org/1999/xlink" width="14px" height="14px" xmlns="http://www.w3.org/2000/svg">
  <g transform="matrix(1 0 0 1 -524 -229 )">
    <path d="M 1.5 13.5000357261742  C 1.5 13.5000357261742  1.5 3.00078549902858  1.5 3.00078549902858  C 1.5 3.00078549902858  0.5 3.00078549902858  0.5 3.00078549902858  C 0.367391750216484 3.00078549902858  0.240214772522449 2.94811074503513  0.146446585655212 2.85434925812505  C 0.0526783987879753 2.76058777121496  0 2.63341999981541  0 2.50082122520275  C 0 2.36822245059009  0.0526783987879753 2.24105467919054  0.146446585655212 2.14729319228045  C 0.240214772522449 2.05353170537036  0.367391750216484 2.00085695137692  0.5 2.00085695137692  C 0.5 2.00085695137692  4.5 2.00085695137692  4.5 2.00085695137692  C 4.5 2.00085695137692  4.5 0.499964214225447  4.5 0.499964214225447  C 4.5 0.367365439612787  4.55267851799726 0.240197668213234  4.6464467048645 0.146436181303148  C 4.74021489173174 0.0526746943930613  4.86739175021648 0  5 0  C 5 0  9 0  9 0  C 9.13260824978352 0  9.25978558510542 0.0526746943930613  9.35355377197266 0.146436181303148  C 9.44732195883989 0.240197668213234  9.5 0.367365439612787  9.5 0.499964214225447  C 9.5 0.499964214225447  9.5 2.00085695137692  9.5 2.00085695137692  C 9.5 2.00085695137692  13.5 2.00085695137692  13.5 2.00085695137692  C 13.6326082497835 2.00085695137692  13.7597855851054 2.05353170537036  13.8535537719727 2.14729319228045  C 13.9473219588399 2.24105467919054  14 2.36822245059009  14 2.50082122520275  C 14 2.63341999981541  13.9473219588399 2.76058777121496  13.8535537719727 2.85434925812505  C 13.7597855851054 2.94811074503513  13.6326082497835 3.00078549902858  13.5 3.00078549902858  C 13.5 3.00078549902858  12.5 3.00078549902858  12.5 3.00078549902858  C 12.5 3.00078549902858  12.5 13.5000357261742  12.5 13.5000357261742  C 12.5 13.6326345007868  12.4473219588399 13.7598027489895  12.3535537719727 13.8535642358996  C 12.2597855851054 13.9473257228096  12.1326082497835 14  12 14  C 12 14  2 14  2 14  C 1.86739175021648 14  1.74021489173174 13.9473257228096  1.6464467048645 13.8535642358996  C 1.55267851799726 13.7598027489895  1.5 13.6326345007868  1.5 13.5000357261742  Z M 5.5 2.00085695137692  L 8.5 2.00085695137692  L 8.5 1.00092840372525  L 5.5 1.00092840372525  L 5.5 2.00085695137692  Z M 2.5 3.00078549902858  L 2.5 13.0000714523483  L 11.5 13.0000714523483  L 11.5 3.00078549902858  L 2.5 3.00078549902858  Z M 5.8535532951355 10.8537785929446  C 5.75978510826826 10.9475400798546  5.63260824978352 11.000214357045  5.5 11.000214357045  C 5.36739175021648 11.000214357045  5.24021489173174 10.9475400798546  5.1464467048645 10.8537785929446  C 5.05267851799726 10.7600171060345  5 10.6328488578318  5 10.5002500832192  C 5 10.5002500832192  5 5.50060686815775  5 5.50060686815775  C 5 5.36800809354509  5.05267851799726 5.24084032214554  5.1464467048645 5.14707883523545  C 5.24021489173174 5.05331734832536  5.36739175021648 5.00064259433191  5.5 5.00064259433191  C 5.63260824978352 5.00064259433191  5.75978510826826 5.05331734832536  5.8535532951355 5.14707883523545  C 5.94732148200274 5.24084032214554  6 5.36800809354509  6 5.50060686815775  C 6 5.50060686815775  6 10.5002500832192  6 10.5002500832192  C 6 10.6328488578318  5.94732148200274 10.7600171060345  5.8535532951355 10.8537785929446  Z M 8.85355377197266 10.8537785929446  C 8.75978558510542 10.9475400798546  8.63260824978352 11.000214357045  8.5 11.000214357045  C 8.36739175021648 11.000214357045  8.24021441489458 10.9475400798546  8.14644622802734 10.8537785929446  C 8.05267804116011 10.7600171060345  8 10.6328488578318  8 10.5002500832192  C 8 10.5002500832192  8 5.50060686815775  8 5.50060686815775  C 8 5.36800809354509  8.05267804116011 5.24084032214554  8.14644622802734 5.14707883523545  C 8.24021441489458 5.05331734832536  8.36739175021648 5.00064259433191  8.5 5.00064259433191  C 8.63260824978352 5.00064259433191  8.75978558510542 5.05331734832536  8.85355377197266 5.14707883523545  C 8.94732195883989 5.24084032214554  9 5.36800809354509  9 5.50060686815775  C 9 5.50060686815775  9 10.5002500832192  9 10.5002500832192  C 9 10.6328488578318  8.94732195883989 10.7600171060345  8.85355377197266 10.8537785929446  Z " fill-rule="nonzero" fill="#409eff" stroke="none" transform="matrix(1 0 0 1 524 229 )" />
  </g>
</svg>