<?xml version="1.0" encoding="utf-8"?>
<svg version="1.1" xmlns:xlink="http://www.w3.org/1999/xlink" width="13px" height="9px" xmlns="http://www.w3.org/2000/svg">
  <g transform="matrix(1 0 0 1 -453 -24 )">
    <path d="M 0.712330523608922 5.93694090707167  C 0.712330523608922 5.93694090707167  3.55006983703668 7.96315539590901  3.55006983703668 7.96315539590901  C 3.55006983703668 7.96315539590901  9.26383611383786 0.19148022936639  9.26383611383786 0.19148022936639  C 9.2965113606925 0.144026553489141  9.33886020717461 0.103302220336189  9.38837250408447 0.0717211332208451  C 9.43788480099433 0.0401400461055012  9.49355252014686 0.0183452159190927  9.55207563916419 0.00762862565464354  C 9.61059875818151 -0.00308796460980561  9.67078645350509 -0.0025082594039142  9.72906985676337 0.00933357919429463  C 9.78735326002165 0.0211754177925035  9.84254592946431 0.044038289221792  9.89137696963109 0.0765667587343075  C 9.94020800979788 0.109095228246823  9.98168281324261 0.150627216184134  10.0133429467173 0.19870066212791  C 10.045003080192 0.246774108071686  10.0662044402758 0.300410362878974  10.0756892647381 0.356429986969452  C 10.0851740892004 0.41244961105993  10.0827494176025 0.469712217783756  10.0685597011786 0.524823204975774  C 10.0543699847547 0.579934192167792  10.0287041334369 0.631771876377  9.993082792243 0.677263030211018  C 9.993082792243 0.677263030211018  4.01575469723719 8.80755187851451  4.01575469723719 8.80755187851451  C 3.98157219790893 8.85420835975508  3.9378763285118 8.8938364839592  3.8872701285997 8.92407570025158  C 3.83666392868759 8.95431491654397  3.78018288820973 8.97454694555547  3.72119188760336 8.98356533937143  C 3.66220088699699 8.9925837331874  3.60190691375069 8.99020428961785  3.54390194936225 8.97656926919782  C 3.48589698497382 8.9629342487778  3.43136748777876 8.93832248771452  3.38356276926598 8.90420000476125  C 3.38356276926598 8.90420000476125  0.178084010790366 6.61517162727333  0.178084010790366 6.61517162727333  C 0.131311843330424 6.58177168723249  0.0919070014531937 6.53992735397959  0.062119352958859 6.49202769429373  C 0.0323317044645244 6.44412803460787  0.0127445875258084 6.39111101927991  0.00447635835488912 6.33600392937722  C -0.0122220842590661 6.22471014358083  0.0181974207343265 6.11165901507519  0.089042907629733 6.02172005028956  C 0.15988839452514 5.93178108550393  0.265356588283251 5.87232174512404  0.38224567828834 5.85642263173947  C 0.49913476829343 5.84052351835489  0.617869869992329 5.8694866866407  0.712330523608922 5.93694090707167  Z M 12.5547945903421 3.91327040700137  C 12.5547945903421 3.91327040700137  9.88356213239453 3.91327040700137  9.88356213239453 3.91327040700137  C 9.76548631205675 3.91327040700137  9.65224623671437 3.86861018114865  9.56875402862015 3.78911461896315  C 9.48526182052594 3.70961905677766  9.43835672273661 3.60180001707985  9.43835672273661 3.48937630793956  C 9.43835672273661 3.37695259879927  9.48526182052594 3.26913355910146  9.56875402862015 3.18963799691597  C 9.65224623671437 3.11014243473048  9.76548631205675 3.06548220887775  9.88356213239453 3.06548220887775  C 9.88356213239453 3.06548220887775  12.5547945903421 3.06548220887775  12.5547945903421 3.06548220887775  C 12.6728704106799 3.06548220887775  12.7861104860222 3.11014243473048  12.8696026941165 3.18963799691597  C 12.9530949022107 3.26913355910146  13 3.37695259879927  13 3.48937630793956  C 13 3.60180001707985  12.9530949022107 3.70961905677766  12.8696026941165 3.78911461896315  C 12.7861104860222 3.86861018114865  12.6728704106799 3.91327040700137  12.5547945903421 3.91327040700137  Z M 12.5539038194781 6.45663500137223  C 12.5539038194781 6.45663500137223  8.10274049376284 6.45663500137223  8.10274049376284 6.45663500137223  C 7.98466467342506 6.45663500137223  7.87142459808268 6.41197517977642  7.78793238998846 6.33247961759093  C 7.70444018189424 6.25298405540543  7.65753508410492 6.14516461145071  7.65753508410492 6.03274090231042  C 7.65753508410492 5.92031719317013  7.70444018189424 5.8124977492154  7.78793238998846 5.73300218702991  C 7.87142459808268 5.65350662484442  7.98466467342506 5.60884680324861  8.10274049376284 5.60884680324861  C 8.10274049376284 5.60884680324861  12.5539038194781 5.60884680324861  12.5539038194781 5.60884680324861  C 12.6719796398159 5.60884680324861  12.7852197151583 5.65350662484442  12.8687119232525 5.73300218702991  C 12.9522041313467 5.8124977492154  12.999109229136 5.92031719317013  12.999109229136 6.03274090231042  C 12.999109229136 6.14516461145071  12.9522041313467 6.25298405540543  12.8687119232525 6.33247961759093  C 12.7852197151583 6.41197517977642  12.6719796398159 6.45663500137223  12.5539038194781 6.45663500137223  Z M 12.5539038194781 9  C 12.5539038194781 9  6.32191885513115 9  6.32191885513115 9  C 6.20384303479337 9  6.09060338403195 8.95534017840419  6.00711117593773 8.8758446162187  C 5.92361896784351 8.7963490540332  5.87671344547322 8.68852961007848  5.87671344547322 8.57610590093819  C 5.87671344547322 8.4636821917979  5.92361896784351 8.35586274784318  6.00711117593773 8.27636718565768  C 6.09060338403195 8.19687162347219  6.20384303479337 8.15221180187638  6.32191885513115 8.15221180187638  C 6.32191885513115 8.15221180187638  12.5539038194781 8.15221180187638  12.5539038194781 8.15221180187638  C 12.6719796398159 8.15221180187638  12.7852197151583 8.19687162347219  12.8687119232525 8.27636718565768  C 12.9522041313467 8.35586274784318  12.999109229136 8.4636821917979  12.999109229136 8.57610590093819  C 12.999109229136 8.68852961007848  12.9522041313467 8.7963490540332  12.8687119232525 8.8758446162187  C 12.7852197151583 8.95534017840419  12.6719796398159 9  12.5539038194781 9  Z " fill-rule="nonzero" fill="#79bbff" stroke="none" transform="matrix(1 0 0 1 453 24 )" />
  </g>
</svg>