<?xml version="1.0" encoding="utf-8"?>
<svg version="1.1" xmlns:xlink="http://www.w3.org/1999/xlink" width="21px" height="18px" xmlns="http://www.w3.org/2000/svg">
  <g transform="matrix(1 0 0 1 -34 -47 )">
    <path d="M 9.777741762724 1.53814258344073  C 9.777741762724 1.53814258344073  3.11852018912401 8.10011367383511  3.11852018912401 8.10011367383511  C 3.11852018912401 8.10011367383511  20.0870274782561 8.10011367383511  20.0870274782561 8.10011367383511  C 20.5912482790298 8.10011367383511  21 8.50300650547787  21 9  C 21 9.49699349452213  20.5912482790298 9.89988632616489  20.0870274782561 9.89988632616489  C 20.0870274782561 9.89988632616489  3.11852018912401 9.89988632616489  3.11852018912401 9.89988632616489  C 3.11852018912401 9.89988632616489  9.777741762724 16.4618574165593  9.777741762724 16.4618574165593  C 10.1347300896718 16.8137288106809  10.1347300896718 17.3842250602871  9.777741762724 17.7360964544087  C 9.42075343577621 18.0879678485304  8.84196099888243 18.0879678485304  8.48497267193464 17.7360964544088  C 8.48497267193464 17.7360964544088  0.268219976239559 9.63711951892474  0.268219976239559 9.63711951892474  C 0.0965049989878091 9.4682931716871  0 9.23905887157654  0 9  C 0 8.76094112842346  0.0965049989878091 8.53170682831291  0.268219976239559 8.36288048107526  C 0.268219976239559 8.36288048107526  8.48497267193464 0.263903545591249  8.48497267193464 0.263903545591249  C 8.84196099888243 -0.0879678485304164  9.42075343577621 -0.0879678485304164  9.777741762724 0.263903545591249  C 10.1347300896718 0.615774939712916  10.1347300896718 1.18627118931907  9.777741762724 1.53814258344073  Z " fill-rule="nonzero" fill="#000000" stroke="none" transform="matrix(1 0 0 1 34 47 )" />
  </g>
</svg>