<?xml version="1.0" encoding="utf-8"?>
<svg version="1.1" xmlns:xlink="http://www.w3.org/1999/xlink" width="13px" height="8px" xmlns="http://www.w3.org/2000/svg">
  <g transform="matrix(1 0 0 1 -702 -27 )">
    <path d="M 13 7.55555555555556  C 13 7.80101544436924  12.80599005826 8  12.5666666666667 8  C 12.5666666666667 8  3.9 8  3.9 8  C 3.66067660840663 8  3.46666666666667 7.80101544436924  3.46666666666667 7.55555555555556  C 3.46666666666667 7.31009566674187  3.66067660840663 7.11111111111111  3.9 7.11111111111111  C 3.9 7.11111111111111  12.5666666666667 7.11111111111111  12.5666666666667 7.11111111111111  C 12.80599005826 7.11111111111111  13 7.31009566674187  13 7.55555555555556  Z M 11.2666666666667 4  C 11.2666666666667 4.24545988881369  11.0726567249267 4.44444444444445  10.8333333333333 4.44444444444445  C 10.8333333333333 4.44444444444445  2.16666666666667 4.44444444444445  2.16666666666667 4.44444444444445  C 1.9273432750733 4.44444444444445  1.73333333333333 4.24545988881369  1.73333333333333 4  C 1.73333333333333 3.75454011118631  1.9273432750733 3.55555555555556  2.16666666666667 3.55555555555556  C 2.16666666666667 3.55555555555556  10.8333333333333 3.55555555555556  10.8333333333333 3.55555555555556  C 11.0726567249267 3.55555555555556  11.2666666666667 3.75454011118631  11.2666666666667 4  Z M 9.1 0.888888888888889  C 9.1 0.888888888888889  0.433333333333333 0.888888888888889  0.433333333333333 0.888888888888889  C 0.194009941739967 0.888888888888889  0 0.68990433325813  0 0.444444444444444  C 0 0.198984555630759  0.194009941739967 0  0.433333333333333 0  C 0.433333333333333 0  9.1 0  9.1 0  C 9.33932339159337 0  9.53333333333333 0.198984555630759  9.53333333333333 0.444444444444444  C 9.53333333333333 0.68990433325813  9.33932339159337 0.888888888888889  9.1 0.888888888888889  Z " fill-rule="nonzero" fill="#ffffff" stroke="none" transform="matrix(1 0 0 1 702 27 )" />
  </g>
</svg>