<?xml version="1.0" encoding="utf-8"?>
<svg version="1.1" xmlns:xlink="http://www.w3.org/1999/xlink" width="10px" height="10px" xmlns="http://www.w3.org/2000/svg">
  <g transform="matrix(1 0 0 1 -57 -475 )">
    <path d="M 2.32243360125192 5.62815388994332  C 2.32243360125192 5.62815388994332  5.95350377034448 2.1436254815838  5.95350377034448 2.1436254815838  C 6.55231349488791 1.56910734689817  7.42509769514945 1.34473246893116  8.2430870041866 1.55502069412923  C 9.06107631322375 1.76530891932731  9.69999869355927 2.3783124631484  9.91917826397837 3.16311881941381  C 10.1383578343975 3.94792517567921  9.9044960034779 4.78530358691975  9.30568626108855 5.3598217044834  C 9.30568626108855 5.3598217044834  5.39493836356719 9.11192429777895  5.39493836356719 9.11192429777895  C 4.16077156809072 10.2960252465502  2.15979186965346 10.2960252322465  0.925625092567509 9.11192426583079  C -0.308541684518442 7.92782329941504  -0.308541699426903 6.00801631814768  0.925625059268528 4.82391533408745  C 0.925625059268528 4.82391533408745  5.95350377034448 0  5.95350377034448 0  L 6.51206917712178 0.53590637039595  C 6.51206917712178 0.53590637039595  1.48419046604582 5.3598217044834  1.48419046604582 5.3598217044834  C 0.558510831901945 6.24794976766882  0.558510831901944 7.68788986419757  1.48419046604582 8.576017927383  C 2.4098701001897 9.46414599056842  3.91069332264601 9.46414599056842  4.83637295678989 8.576017927383  C 4.83637295678989 8.576017927383  8.74712085431126 4.82391533408745  8.74712085431126 4.82391533408745  C 9.14637439218999 4.44085812112785  9.30230065183445 3.88254006187745  9.15616371930661 3.35927416937808  C 9.01002678677878 2.8360082768787  8.58402833898966 2.42729108963622  8.03863787109758 2.28708241909996  C 7.4932474032055 2.1468737485637  6.91132270310183 2.29647462760416  6.51206917712177 2.67953185197975  C 6.51206917712177 2.67953185197975  2.88099900802921 6.16406026033927  2.88099900802921 6.16406026033927  C 2.77830964781741 6.25921755033711  2.73712591219647 6.40013114462343  2.77327680280026 6.53264079084219  C 2.80942769340404 6.66515043706095  2.91728728981944 6.76863454854728  3.05539967013582 6.8033189245129  C 3.1935120504522 6.83800330047853  3.34038371210988 6.79849024433833  3.43956441480651 6.69996663073522  C 3.43956441480651 6.69996663073522  7.07063458389907 3.2161962228996  7.07063458389907 3.2161962228996  L 7.62999004075667 3.75210259329555  C 7.62999004075667 3.75210259329555  3.9981298215838 7.23587300113117  3.9981298215838 7.23587300113117  C 3.70058771349393 7.5314438419405  3.25997272852089 7.64998301036113  2.84563558757173 7.54592988246425  C 2.43129844662257 7.44187675456737  2.10771965737637 7.13142442010839  1.99926698556501 6.73389548145209  C 1.89081431375365 6.3363665427958  2.01436552061651 5.91362575993683  2.32243360125192 5.62815388994332  Z " fill-rule="nonzero" fill="#909399" stroke="none" transform="matrix(1 0 0 1 57 475 )" />
  </g>
</svg>