<?xml version="1.0" encoding="utf-8"?>
<svg version="1.1" xmlns:xlink="http://www.w3.org/1999/xlink" width="12px" height="7px" xmlns="http://www.w3.org/2000/svg">
  <g transform="matrix(1 0 0 1 -35 -668 )">
    <path d="M 11.1670729202804 0.155793859676053  C 11.1670729202804 0.155793859676053  11.1670729202804 0.156938959577685  11.1670729202804 0.156938959577685  L 5.99947071012905 5.73586568033066  C 5.99947071012905 5.73586568033066  0.8318684999777 0.156938959577685  0.8318684999777 0.156938959577685  C 0.639846356445156 -0.0507861866570514  0.333222721065045 -0.0507861866570514  0.141200577532501 0.156938959577684  C 0.0508913987421029 0.254937151612903  0 0.389069847323962  0 0.529096427608208  C 0 0.669123007892454  0.0508913987421033 0.803255703603515  0.141200577532501 0.901253895638734  C 0.141200577532501 0.901253895638734  5.6386277386719 6.83745178570102  5.6386277386719 6.83745178570102  C 5.83939240318739 7.05418273809966  6.15954901707071 7.05418273809966  6.3603136815862 6.83745178570102  C 6.3603136815862 6.83745178570102  11.8577408427256 0.902398995540368  11.8577408427256 0.902398995540368  C 11.9486957142216 0.804319259024286  12 0.669691569714623  12 0.52909642760821  C 12 0.388501285501798  11.9486957142216 0.253873596192136  11.8577408427256 0.155793859676053  C 11.6657186991931 -0.0519312865586842  11.3590950638129 -0.0519312865586842  11.1670729202804 0.155793859676053  Z " fill-rule="nonzero" fill="#303133" stroke="none" transform="matrix(1 0 0 1 35 668 )" />
  </g>
</svg>