<?xml version="1.0" encoding="utf-8"?>
<svg version="1.1" xmlns:xlink="http://www.w3.org/1999/xlink" width="14px" height="4px" xmlns="http://www.w3.org/2000/svg">
  <g transform="matrix(1 0 0 1 -1097 -27 )">
    <path d="M 1.75000002765887 0  C 1.12478523982981 0  0.547062946006406 0.381197826124045  0.234455548288452 0.999999982564897  C -0.0781518494295028 1.61880213900575  -0.0781518494295028 2.38119783992083  0.234455548288452 2.99999999636168  C 0.547062946006406 3.61880215280253  1.12478523982981 3.9999999939842  1.75000002765887 3.99999997892658  C 2.71649832036894 3.99999995564951  3.49999998156073 3.10456946684624  3.49999998156073 1.99999998946328  C 3.49999998156073 0.895430512080338  2.71649832036894 0  1.75000002765887 0  Z M 8.51554447937042 0.999999982564897  C 8.82815187708837 1.61880213900575  8.82815187708837 2.38119783992083  8.51554447937042 2.99999999636168  C 8.20293708165246 3.61880215280253  7.62521478782906 3.9999999939842  7 3.99999997892658  C 6.03350170728993 3.99999995564951  5.25000004609814 3.10456946684624  5.25000004609814 1.99999998946329  C 5.25000004609814 0.89543051208033  6.03350170728993 0  7 0  C 7.62521478782906 0  8.20293708165246 0.381197826124045  8.51554447937042 0.999999982564897  Z M 12.2499999723411 3.99999997892658  C 11.2835016796311 3.99999995564951  10.5000000184393 3.10456946684624  10.5000000184393 1.99999998946329  C 10.5000000184393 0.89543051208033  11.2835016796311 0  12.2499999723411 0  C 12.8752147601702 0  13.4529370539936 0.381197826124045  13.7655444517115 0.999999982564897  C 14.0781518494295 1.61880213900575  14.0781518494295 2.38119783992083  13.7655444517115 2.99999999636168  C 13.4529370539936 3.61880215280253  12.8752147601702 3.9999999939842  12.2499999723411 3.99999997892658  Z M 2.39951910341711 2.42857142620549  C 2.53349370595129 2.1633704993663  2.53349370595129 1.83662947956027  2.39951910341711 1.57142855272109  C 2.26554450088287 1.3062276258819  2.01794922620712 1.14285712392964  1.75000002765887 1.14285713683617  C 1.33578646746798 1.14285713683617  1.00000003161011 1.52661306353087  1.00000003161011 1.99999998946329  C 1.00000003161011 2.47338691539571  1.33578646746798 2.85714284209041  1.75000002765887 2.85714284209041  C 2.01794922620712 2.85714285499694  2.26554450088287 2.69377235304468  2.39951910341711 2.42857142620549  Z M 6.25000000395124 1.99999998946329  C 6.25000000395124 2.47338691539571  6.58578643980911 2.85714284209041  7 2.85714284209041  C 7.41421356019083 2.85714284209041  7.7499999960487 2.47338691539571  7.7499999960487 1.99999998946329  C 7.7499999960487 1.52661306353087  7.41421356019083 1.14285713683617  7 1.14285713683617  C 6.58578643980911 1.14285713683617  6.25000000395124 1.52661306353087  6.25000000395124 1.99999998946329  Z M 12.9999999683899 1.99999998946329  C 12.9999999683899 1.52661306353087  12.664213532532 1.14285713683617  12.2499999723411 1.14285713683617  C 11.8357864121503 1.14285713683617  11.4999999762924 1.52661306353087  11.4999999762924 1.99999998946329  C 11.4999999762924 2.47338691539571  11.8357864121503 2.85714284209041  12.2499999723412 2.85714284209041  C 12.664213532532 2.85714284209041  12.9999999683899 2.47338691539571  12.9999999683899 1.99999998946329  Z " fill-rule="nonzero" fill="#409eff" stroke="none" transform="matrix(1 0 0 1 1097 27 )" />
  </g>
</svg>