<?xml version="1.0" encoding="utf-8"?>
<svg version="1.1" xmlns:xlink="http://www.w3.org/1999/xlink" width="18px" height="15px" xmlns="http://www.w3.org/2000/svg">
  <g transform="matrix(1 0 0 1 -193 206 )">
    <path d="M 9.61907848909371 1.28178548620061  C 9.61907848909371 1.28178548620061  15.3269826950366 6.75009472819593  15.3269826950366 6.75009472819593  C 15.3269826950366 6.75009472819593  0.782547875780484 6.75009472819593  0.782547875780484 6.75009472819593  C 0.350358617974441 6.75009472819593  0 7.08583875456489  0 7.5  C 0 7.91416124543511  0.350358617974441 8.24990527180407  0.782547875780484 8.24990527180407  C 0.782547875780484 8.24990527180407  15.3269826950366 8.24990527180407  15.3269826950366 8.24990527180407  C 15.3269826950366 8.24990527180407  9.61907848909371 13.7182145137994  9.61907848909371 13.7182145137994  C 9.31308849456703 14.0114406755674  9.31308849456704 14.4868542169059  9.61907848909371 14.780080378674  C 9.92506848362039 15.073306540442  10.4211762866722 15.073306540442  10.7271662811989 14.780080378674  C 10.7271662811989 14.780080378674  17.7700971632232 8.03093293243729  17.7700971632232 8.03093293243729  C 17.917281429439 7.89024430973925  18 7.69921572631378  18 7.5  C 18 7.30078427368622  17.917281429439 7.10975569026076  17.7700971632232 6.96906706756272  C 17.7700971632232 6.96906706756272  10.7271662811989 0.219919621326041  10.7271662811989 0.219919621326041  C 10.4211762866722 -0.0733065404420137  9.92506848362039 -0.0733065404420137  9.61907848909371 0.219919621326041  C 9.31308849456704 0.513145783094096  9.31308849456703 0.988559324432555  9.61907848909371 1.28178548620061  Z " fill-rule="nonzero" fill="#409eff" stroke="none" transform="matrix(1 0 0 1 193 -206 )" />
  </g>
</svg>