<?xml version="1.0" encoding="utf-8"?>
<svg version="1.1" xmlns:xlink="http://www.w3.org/1999/xlink" width="18px" height="15px" xmlns="http://www.w3.org/2000/svg">
  <g transform="matrix(1 0 0 1 -100 206 )">
    <path d="M 8.38092151090629 1.28178548620061  C 8.38092151090629 1.28178548620061  2.67301730496344 6.75009472819593  2.67301730496344 6.75009472819593  C 2.67301730496344 6.75009472819593  17.2174521242195 6.75009472819593  17.2174521242195 6.75009472819593  C 17.6496413820256 6.75009472819593  18 7.08583875456489  18 7.5  C 18 7.91416124543511  17.6496413820256 8.24990527180407  17.2174521242195 8.24990527180407  C 17.2174521242195 8.24990527180407  2.67301730496344 8.24990527180407  2.67301730496344 8.24990527180407  C 2.67301730496344 8.24990527180407  8.38092151090629 13.7182145137994  8.38092151090629 13.7182145137994  C 8.68691150543297 14.0114406755674  8.68691150543296 14.4868542169059  8.38092151090629 14.780080378674  C 8.07493151637961 15.073306540442  7.5788237133278 15.073306540442  7.27283371880112 14.780080378674  C 7.27283371880112 14.780080378674  0.229902836776765 8.03093293243729  0.229902836776765 8.03093293243729  C 0.0827185705609792 7.89024430973925  0 7.69921572631378  0 7.5  C 0 7.30078427368622  0.0827185705609792 7.10975569026076  0.229902836776765 6.96906706756272  C 0.229902836776765 6.96906706756272  7.27283371880112 0.219919621326041  7.27283371880112 0.219919621326041  C 7.5788237133278 -0.0733065404420137  8.07493151637961 -0.0733065404420137  8.38092151090629 0.219919621326041  C 8.68691150543296 0.513145783094096  8.68691150543297 0.988559324432555  8.38092151090629 1.28178548620061  Z " fill-rule="nonzero" fill="#409eff" stroke="none" transform="matrix(1 0 0 1 100 -206 )" />
  </g>
</svg>