<?xml version="1.0" encoding="utf-8"?>
<svg version="1.1" xmlns:xlink="http://www.w3.org/1999/xlink" width="15px" height="9px" xmlns="http://www.w3.org/2000/svg">
  <g transform="matrix(1 0 0 1 -1174 -103 )">
    <path d="M 15 8.5  C 15 8.77614237491539  14.7761423749154 9  14.5 9  C 14.5 9  4.5 9  4.5 9  C 4.22385762508458 9  4 8.77614237491539  4 8.5  C 4 8.2238576250846  4.22385762508458 8  4.5 8  C 4.5 8  14.5 8  14.5 8  C 14.7761423749154 8  15 8.2238576250846  15 8.5  Z M 13 4.5  C 13 4.7761423749154  12.7761423749154 5  12.5 5  C 12.5 5  2.5 5  2.5 5  C 2.22385762508458 5  2 4.7761423749154  2 4.5  C 2 4.2238576250846  2.22385762508458 4  2.5 4  C 2.5 4  12.5 4  12.5 4  C 12.7761423749154 4  13 4.2238576250846  13 4.5  Z M 10.5 1  C 10.5 1  0.5 1  0.5 1  C 0.223857625084577 1  0 0.776142374915397  0 0.5  C 0 0.223857625084603  0.223857625084577 0  0.5 0  C 0.5 0  10.5 0  10.5 0  C 10.7761423749154 0  11 0.223857625084603  11 0.5  C 11 0.776142374915397  10.7761423749154 1  10.5 1  Z " fill-rule="nonzero" fill="#606266" stroke="none" transform="matrix(1 0 0 1 1174 103 )" />
  </g>
</svg>