<?xml version="1.0" encoding="utf-8"?>
<svg version="1.1" xmlns:xlink="http://www.w3.org/1999/xlink" width="11px" height="13px" xmlns="http://www.w3.org/2000/svg">
  <g transform="matrix(1 0 0 1 -1119 -77 )">
    <path d="M 1.65 7.04166666666667  C 1.65 7.04166666666667  1.65 5.95833333333333  1.65 5.95833333333333  C 1.65 5.65917909384165  1.89624338759307 5.41666666666667  2.2 5.41666666666667  C 2.2 5.41666666666667  4.95 5.41666666666667  4.95 5.41666666666667  C 4.95 5.41666666666667  4.95 4.33333333333333  4.95 4.33333333333333  C 4.03873016277917 4.33333333333333  3.3 3.60579605180837  3.3 2.70833333333333  C 3.3 2.70833333333333  3.3 1.625  3.3 1.625  C 3.3 0.727537281524961  4.03873016277917 0  4.95 0  C 4.95 0  6.05 0  6.05 0  C 6.96126983722078 0  7.7 0.727537281524961  7.7 1.625  C 7.7 1.625  7.7 2.70833333333333  7.7 2.70833333333333  C 7.7 3.60579605180837  6.96126983722078 4.33333333333333  6.05 4.33333333333333  C 6.05 4.33333333333333  6.05 5.41666666666667  6.05 5.41666666666667  C 6.05 5.41666666666667  8.8 5.41666666666667  8.8 5.41666666666667  C 9.10375661240693 5.41666666666667  9.35 5.65917909384165  9.35 5.95833333333333  C 9.35 5.95833333333333  9.35 7.04166666666667  9.35 7.04166666666667  C 9.35 7.34082090615835  9.10375661240693 7.58333333333333  8.8 7.58333333333333  C 8.49624338759307 7.58333333333333  8.25 7.34082090615835  8.25 7.04166666666667  C 8.25 7.04166666666667  8.25 6.5  8.25 6.5  L 2.75 6.5  C 2.75 6.5  2.75 7.04166666666667  2.75 7.04166666666667  C 2.75 7.34082090615835  2.50375661240693 7.58333333333333  2.2 7.58333333333333  C 1.89624338759307 7.58333333333333  1.65 7.34082090615835  1.65 7.04166666666667  Z M 4.4 11.375  C 4.4 12.272462718475  3.66126983722083 13  2.75 13  C 2.75 13  1.65 13  1.65 13  C 0.738730162779216 13  0 12.272462718475  0 11.375  C 0 11.375  0 10.2916666666667  0 10.2916666666667  C 0 9.39420394819163  0.738730162779216 8.66666666666667  1.65 8.66666666666667  C 1.65 8.66666666666667  2.75 8.66666666666667  2.75 8.66666666666667  C 3.66126983722083 8.66666666666667  4.4 9.39420394819163  4.4 10.2916666666667  C 4.4 10.2916666666667  4.4 11.375  4.4 11.375  Z M 8.25 13  C 7.33873016277922 13  6.6 12.272462718475  6.6 11.375  C 6.6 11.375  6.6 10.2916666666667  6.6 10.2916666666667  C 6.6 9.39420394819163  7.33873016277922 8.66666666666667  8.25 8.66666666666667  C 8.25 8.66666666666667  9.35 8.66666666666667  9.35 8.66666666666667  C 10.2612698372208 8.66666666666667  11 9.39420394819163  11 10.2916666666667  C 11 10.2916666666667  11 11.375  11 11.375  C 11 12.272462718475  10.2612698372208 13  9.35 13  C 9.35 13  8.25 13  8.25 13  Z M 6.6 1.625  C 6.6 1.32584576050832  6.35375661240693 1.08333333333333  6.05 1.08333333333333  C 6.05 1.08333333333333  4.95 1.08333333333333  4.95 1.08333333333333  C 4.64624338759307 1.08333333333333  4.4 1.32584576050832  4.4 1.625  C 4.4 1.625  4.4 2.70833333333333  4.4 2.70833333333333  C 4.4 3.00748757282501  4.64624338759307 3.25  4.95 3.25  C 4.95 3.25  6.05 3.25  6.05 3.25  C 6.35375661240693 3.25  6.6 3.00748757282501  6.6 2.70833333333333  C 6.6 2.70833333333333  6.6 1.625  6.6 1.625  Z M 2.75 11.9166666666667  C 3.05375661240693 11.9166666666667  3.3 11.6741542394917  3.3 11.375  C 3.3 11.375  3.3 10.2916666666667  3.3 10.2916666666667  C 3.3 9.99251242717498  3.05375661240693 9.75  2.75 9.75  C 2.75 9.75  1.65 9.75  1.65 9.75  C 1.34624338759307 9.75  1.1 9.99251242717498  1.1 10.2916666666667  C 1.1 10.2916666666667  1.1 11.375  1.1 11.375  C 1.1 11.6741542394917  1.34624338759307 11.9166666666667  1.65 11.9166666666667  C 1.65 11.9166666666667  2.75 11.9166666666667  2.75 11.9166666666667  Z M 9.9 10.2916666666667  C 9.9 9.99251242717498  9.65375661240693 9.75  9.35 9.75  C 9.35 9.75  8.25 9.75  8.25 9.75  C 7.94624338759307 9.75  7.7 9.99251242717498  7.7 10.2916666666667  C 7.7 10.2916666666667  7.7 11.375  7.7 11.375  C 7.7 11.6741542394917  7.94624338759307 11.9166666666667  8.25 11.9166666666667  C 8.25 11.9166666666667  9.35 11.9166666666667  9.35 11.9166666666667  C 9.65375661240693 11.9166666666667  9.9 11.6741542394917  9.9 11.375  C 9.9 11.375  9.9 10.2916666666667  9.9 10.2916666666667  Z " fill-rule="nonzero" fill="#ffffff" stroke="none" transform="matrix(1 0 0 1 1119 77 )" />
  </g>
</svg>