<?xml version="1.0" encoding="utf-8"?>
<svg version="1.1" xmlns:xlink="http://www.w3.org/1999/xlink" width="14px" height="14px" viewBox="20 127  14 14" xmlns="http://www.w3.org/2000/svg">
  <path d="M 27 127  C 30.92 127  34 130.08  34 134  C 34 137.92  30.92 141  27 141  C 23.08 141  20 137.92  20 134  C 20 130.08  23.08 127  27 127  Z " fill-rule="nonzero" fill="#ffffff" stroke="none" />
  <path d="M 27 127.5  C 30.64 127.5  33.5 130.36  33.5 134  C 33.5 137.64  30.64 140.5  27 140.5  C 23.36 140.5  20.5 137.64  20.5 134  C 20.5 130.36  23.36 127.5  27 127.5  Z " stroke-width="1" stroke="#409eff" fill="none" />
  <path d="M 27 137.5  C 25.04 137.5  23.5 135.96  23.5 134  C 23.5 132.04  25.04 130.5  27 130.5  C 28.96 130.5  30.5 132.04  30.5 134  C 30.5 135.96  28.96 137.5  27 137.5  " fill-rule="nonzero" fill="#409eff" stroke="none" />
</svg>