<?xml version="1.0" encoding="utf-8"?>
<svg version="1.1" xmlns:xlink="http://www.w3.org/1999/xlink" width="14px" height="14px" viewBox="180 81  14 14" xmlns="http://www.w3.org/2000/svg">
  <path d="M 187 81  C 190.92 81  194 84.08  194 88  C 194 91.92  190.92 95  187 95  C 183.08 95  180 91.92  180 88  C 180 84.08  183.08 81  187 81  Z " fill-rule="nonzero" fill="#ffffff" stroke="none" />
  <path d="M 187 81.5  C 190.64 81.5  193.5 84.36  193.5 88  C 193.5 91.64  190.64 94.5  187 94.5  C 183.36 94.5  180.5 91.64  180.5 88  C 180.5 84.36  183.36 81.5  187 81.5  Z " stroke-width="1" stroke="#409eff" fill="none" />
  <path d="M 187 91.5  C 185.04 91.5  183.5 89.96  183.5 88  C 183.5 86.04  185.04 84.5  187 84.5  C 188.96 84.5  190.5 86.04  190.5 88  C 190.5 89.96  188.96 91.5  187 91.5  " fill-rule="nonzero" fill="#409eff" stroke="none" />
</svg>