<?xml version="1.0" encoding="utf-8"?>
<svg version="1.1" xmlns:xlink="http://www.w3.org/1999/xlink" width="18px" height="18px" xmlns="http://www.w3.org/2000/svg">
  <g transform="matrix(1 0 0 1 0 -24 )">
    <path d="M 16.388733354867 0.289081989427369  C 16.388733354867 0.289081989427369  16.388733354867 0.290956177048515  16.388733354867 0.290956177048515  L 9.00093654705072 7.67953963683878  C 9.00093654705072 7.67953963683878  1.61314174995087 0.290956177048515  1.61314174995087 0.290956177048515  C 1.43545456763787 0.128338686857638  1.20188326311382 0.0405543300434514  0.961086504795881 0.0458902815730306  C 0.720289746477945 0.0512262331026098  0.490836221731685 0.149271346627589  0.320525408654541 0.319600324003177  C 0.150214595577397 0.489929301378764  0.0521799413137799 0.719407242360275  0.0468445588231132 0.960229682571823  C 0.0415091763324466 1.20105212278337  0.129284168117444 1.4346483385788  0.291884316381719 1.61235447190819  C 0.291884316381719 1.61235447190819  7.67593158480105 9.00093754068411  7.67593158480105 9.00093754068411  C 7.67593158480105 9.00093754068411  0.290010328628522 16.3876463101205  0.290010328628522 16.3876463101205  C 0.199775733590046 16.4736492173556  0.127642868433633 16.5768252512447  0.0778515976371152 16.6911091927547  C 0.0280603268405974 16.8053931342647  0.00161536334216891 16.9284783199427  7.17196586666865E-05 17.0531303838952  C -0.00147192402483554 17.1777824478476  0.0219168654131645 17.3014855129992  0.0688628013493049 17.4169676690967  C 0.115808737285445 17.5324498251942  0.185364391037884 17.6373813110088  0.273441578061922 17.7255928348495  C 0.361518765085959 17.8138043586903  0.466339767661215 17.8835163444431  0.581742947622971 17.9306309268465  C 0.697146127584726 17.9777455092499  0.820802754100695 18.0013117084654  0.945443577458806 17.9999445876812  C 1.07008440081692 17.9985774668971  1.19319430793845 17.9723039685728  1.3075365277677 17.9226694278817  C 1.42187874759695 17.8730348871906  1.52514620639364 17.8010415177605  1.61126776219768 17.7109192953341  C 1.61126776219768 17.7109192953341  9.00093654705072 10.3242105258977  9.00093654705072 10.3242105258977  C 9.00093654705072 10.3242105258977  16.388733354867 17.7127925892081  16.388733354867 17.7127925892081  C 16.56642053718 17.875410079399  16.7999913948782 17.9631957768338  17.0407881531961 17.9578598253042  C 17.2815849115141 17.9525238737746  17.5110379894345 17.8544787602497  17.6813488025116 17.6841497828741  C 17.8516596155887 17.5138208054985  17.9496942733432 17.2843414680372  17.9550296558339 17.0435190278256  C 17.9603650383245 16.8026965876141  17.8725904898746 16.5691008186922  17.7099903416103 16.3913946853628  C 17.7099903416103 16.3913946853628  10.322193533794 9.00281262205234  10.322193533794 9.00281262205234  C 10.322193533794 9.00281262205234  17.7099903416103 1.61235447190819  17.7099903416103 1.61235447190819  C 17.8002249366488 1.52635156467308  17.872357361961 1.42317553078398  17.9221486327575 1.30889158927396  C 17.971939903554 1.19460764776395  17.9983848641752 1.07152201521247  17.9999285078587 0.94686995126  C 18.0014721515422 0.82221788730753  17.9780829181555 0.698514878015192  17.9311369822194 0.583032721917648  C 17.8841910462833 0.467550565820103  17.8146358323751 0.362619526879096  17.726558645351 0.274408003038343  C 17.638481458327 0.18619647919759  17.5336609025776 0.116484493444762  17.4182577226159 0.0693699110413812  C 17.3028545426541 0.022255328638  17.1791965756605 -0.00131087168551465  17.0545557523024 5.62490986322887E-05  C 16.9299149289443 0.00142336988277922  16.8068063623004 0.0276964224415472  16.6924641424711 0.0773309631326351  C 16.5781219226419 0.126965503823723  16.4748549106711 0.198959767000882  16.388733354867 0.289081989427369  Z " fill-rule="nonzero" fill="#303133" stroke="none" transform="matrix(1 0 0 1 0 24 )" />
  </g>
</svg>