<?xml version="1.0" encoding="utf-8"?>
<svg version="1.1" xmlns:xlink="http://www.w3.org/1999/xlink" width="8px" height="8px" xmlns="http://www.w3.org/2000/svg">
  <g transform="matrix(1 0 0 1 -82 -14 )">
    <path d="M 5.28835294117615 0.707463228822984  C 5.8396468491564 0.15633578647077  6.73329432731407 0.15633578647077  7.28458823529389 0.707463228822984  C 7.54954118792846 0.972246430432064  7.69840448503879 1.33053024150928  7.69840448503879 1.70511028764646  C 7.69840448503879 2.07969033378365  7.54954118792846 2.43891532133164  7.28458823529389 2.70369852294072  C 7.28458823529389 2.70369852294072  2.40458823529394 7.58369852294067  2.40458823529394 7.58369852294067  C 2.33262609793104 7.65592508224568  2.23915321284243 7.70282667123042  2.13823529411756 7.71734558176446  C 2.13823529411756 7.71734558176446  0.585294117646888 7.93946322882317  0.585294117646888 7.93946322882317  C 0.438555697788508 7.96053694813386  0.290465485193315 7.91123456827336  0.185641190518629 7.80641027359867  C 0.0808168958439423 7.70158597892399  0.0315145159834441 7.55349576632836  0.0525882352941313 7.40675734647041  C 0.0525882352941313 7.40675734647041  0.274705882352838 5.85381616999974  0.274705882352838 5.85381616999974  C 0.288965785897744 5.75301463660863  0.335530131203996 5.65955570241246  0.407411764705852 5.58746322882336  C 0.407411764705852 5.58746322882336  5.28835294117615 0.707463228822984  5.28835294117615 0.707463228822984  Z M 1.18294117647062 6.14181616999978  L 1.07188235294127 6.9182867582349  L 1.84929411764717 6.80722793470555  C 1.84929411764717 6.80722793470555  6.61917647058855 2.03828675823495  6.61917647058855 2.03828675823495  C 6.74150898091937 1.92013406634685  6.79057063397597 1.74516775016801  6.74750454427447 1.5806362528734  C 6.70443845457296 1.41610475557836  6.57594670853894 1.28761300954434  6.41141521124433 1.24454691984283  C 6.24688371394929 1.20148083014133  6.07191739777045 1.25054248319793  5.95376470588235 1.37287499352875  C 5.95376470588235 1.37287499352875  1.18294117647062 6.14181616999978  1.18294117647062 6.14181616999978  Z " fill-rule="nonzero" fill="#337ecc" stroke="none" transform="matrix(1 0 0 1 82 14 )" />
  </g>
</svg>