<?xml version="1.0" encoding="utf-8"?>
<svg version="1.1" xmlns:xlink="http://www.w3.org/1999/xlink" width="12px" height="11px" xmlns="http://www.w3.org/2000/svg">
  <g transform="matrix(1 0 0 1 -352 -28 )">
    <path d="M 5.58728100727086 0.939976023213781  C 5.58728100727086 0.939976023213781  1.78201153664229 4.95006946734368  1.78201153664229 4.95006946734368  C 1.78201153664229 4.95006946734368  11.4783014161463 4.95006946734368  11.4783014161463 4.95006946734368  C 11.766427588017 4.95006946734368  12 5.19628175334759  12 5.5  C 12 5.80371824665241  11.766427588017 6.04993053265632  11.4783014161463 6.04993053265632  C 11.4783014161463 6.04993053265632  1.78201153664229 6.04993053265632  1.78201153664229 6.04993053265632  C 1.78201153664229 6.04993053265632  5.58728100727086 10.0600239767862  5.58728100727086 10.0600239767862  C 5.79127433695531 10.2750564954161  5.79127433695531 10.6236930923977  5.58728100727086 10.8387256110276  C 5.3832876775864 11.0537581296575  5.05254914221853 11.0537581296575  4.84855581253408 10.8387256110276  C 4.84855581253408 10.8387256110276  0.153268557851177 5.88935081712068  0.153268557851177 5.88935081712068  C 0.0551457137073195 5.78617916047545  0 5.6460915326301  0 5.5  C 0 5.35390846736989  0.0551457137073195 5.21382083952455  0.153268557851177 5.11064918287932  C 0.153268557851177 5.11064918287932  4.84855581253408 0.16127438897243  4.84855581253408 0.16127438897243  C 5.05254914221853 -0.0537581296574767  5.3832876775864 -0.0537581296574767  5.58728100727086 0.16127438897243  C 5.79127433695531 0.376306907602337  5.79127433695531 0.724943504583873  5.58728100727086 0.939976023213781  Z " fill-rule="nonzero" fill="#9fceff" stroke="none" transform="matrix(1 0 0 1 352 28 )" />
  </g>
</svg>