<?xml version="1.0" encoding="utf-8"?>
<svg version="1.1" xmlns:xlink="http://www.w3.org/1999/xlink" width="21px" height="21px" xmlns="http://www.w3.org/2000/svg">
  <g transform="matrix(1 0 0 1 -160 -56 )">
    <path d="M 0 10.5  C 0 4.70101012677667  4.70101012677671 0  10.5 0  C 16.2989898732233 0  21 4.70101012677667  21 10.5  C 21 16.2989898732233  16.2989898732233 21  10.5 21  C 4.70101012677671 21  0 16.2989898732233  0 10.5  Z M 15.5797672632399 6.8177593286687  C 15.2673254771508 6.73474973258083  14.9343655304635 6.8256904391374  14.7074999999999 7.056  C 14.7074999999999 7.056  9.19199999999998 12.5715  9.19199999999998 12.5715  C 9.19199999999998 12.5715  6.85949999999997 10.2375  6.85949999999997 10.2375  C 6.63201113562593 10.010011135626  6.30043889195321 9.92116662070129  5.9896833241402 10.0044333241403  C 5.67892775632728 10.0877000275792  5.43620002757922 10.3304277563273  5.35293332414025 10.6411833241403  C 5.26966662070129 10.9519388919532  5.35851113562595 11.283511135626  5.58599999999998 11.511  C 5.58599999999998 11.511  8.55599999999993 14.481  8.55599999999993 14.481  C 8.72441729070994 14.6507395214222  8.95363519714849 14.7462101318476  9.19274999999996 14.7462101318476  C 9.43186480285144 14.7462101318476  9.66108270928999 14.6507395214222  9.8295 14.481  C 9.8295 14.481  15.9794999999999 8.3295  15.9794999999999 8.3295  C 16.2100767732798 8.10290605841926  16.3014098266154 7.77005352113675  16.2187685164357 7.45751412107811  C 16.1361272062559 7.14497472101946  15.892209049329 6.90076892475658  15.5797672632399 6.8177593286687  Z " fill-rule="nonzero" fill="#67c23a" stroke="none" transform="matrix(1 0 0 1 160 56 )" />
  </g>
</svg>