<?xml version="1.0" encoding="utf-8"?>
<svg version="1.1" xmlns:xlink="http://www.w3.org/1999/xlink" width="11px" height="12px" xmlns="http://www.w3.org/2000/svg">
  <g transform="matrix(1 0 0 1 -1203 111 )">
    <path d="M 1.43809677943144 6.00025912197871  C 1.43809677943144 6.00025912197871  6.61013387127328 0.831268288734598  6.61013387127328 0.831268288734598  C 6.80197929201774 0.639399504863866  6.80197929201774 0.333593695450556  6.61013387127328 0.14172491157983  C 6.51908295019594 0.0509176568961383  6.39421891231543 -0.000193572225122856  6.26390453867649 0  C 6.13359016503757 0.000195782329210406  6.00888767801779 0.0516798400969459  5.91812316249411 0.142758709746476  C 5.91812316249411 0.142758709746476  0.418123940264593 5.63946356181828  0.418123940264593 5.63946356181828  C 0.217241127142565 5.84020184778733  0.217241127142565 6.1603163961701  0.418123940264593 6.36105468213916  C 0.418123940264593 6.36105468213916  5.91812316249411 11.8577595342109  5.91812316249411 11.8577595342109  C 6.00903095929731 11.9487024551115  6.13381419239499 12  6.26412851688371 12  C 6.39444284137242 12  6.51922607447008 11.9487024551115  6.61013387127328 11.8577595342109  C 6.80266941485851 11.6657626205416  6.80266941485851 11.3591792725588  6.61013387127328 11.1671823588895  C 6.61013387127328 11.1671823588895  1.43809677943144 6.00025912197871  1.43809677943144 6.00025912197871  Z M 5.68356125046924 6.00025912197871  C 5.68356125046924 6.00025912197871  10.8555983423111 0.831268288734598  10.8555983423111 0.831268288734598  C 11.0474437630555 0.639399504863872  11.0474437630555 0.333593695450556  10.8555983423111 0.14172491157983  C 10.7645474212337 0.0509176568961383  10.6396833833532 -0.000193572225122856  10.5093690097143 0  C 10.3790546360754 0.000195782329210406  10.2543521490556 0.0516798400969459  10.1635876335319 0.142758709746482  C 10.1635876335319 0.142758709746482  4.6635884113024 5.63946356181828  4.6635884113024 5.63946356181828  C 4.46270559818037 5.84020184778733  4.46270559818037 6.1603163961701  4.6635884113024 6.36105468213916  C 4.6635884113024 6.36105468213916  10.1635876335319 11.8577595342109  10.1635876335319 11.8577595342109  C 10.2544954303351 11.9487024551115  10.3792786634328 12  10.5095929879215 12  C 10.6399073124102 12  10.7646905455079 11.9487024551115  10.8555983423111 11.8577595342109  C 11.0481338858963 11.6657626205416  11.0481338858963 11.3591792725588  10.8555983423111 11.1671823588895  C 10.8555983423111 11.1671823588895  5.68356125046924 6.00025912197871  5.68356125046924 6.00025912197871  Z " fill-rule="nonzero" fill="#a0cfff" stroke="none" transform="matrix(1 0 0 1 1203 -111 )" />
  </g>
</svg>