<?xml version="1.0" encoding="utf-8"?>
<svg version="1.1" xmlns:xlink="http://www.w3.org/1999/xlink" width="21px" height="21px" xmlns="http://www.w3.org/2000/svg">
  <g transform="matrix(1 0 0 1 -120 -24 )">
    <path d="M 10.5 21  C 4.70101012677667 21  0 16.2989898732233  0 10.5  C 0 4.70101012677667  4.70101012677667 0  10.5 0  C 16.2989898732233 0  21 4.70101012677667  21 10.5  C 21 16.2989898732233  16.2989898732233 21  10.5 21  Z M 11.3175 12.003  C 11.3175 12.003  11.8635 5.994  11.8635 5.994  C 11.8984825068841 5.61078596000516  11.7706275562664 5.23053514139428  11.5112245842422 4.94630482221266  C 11.251821612218 4.66207450303104  10.8848074423431 4.50009248994709  10.5 4.5  C 10.1149314891947 4.49967077895459  9.74751569574785 4.66146959454585  9.48778096678759 4.94575068250675  C 9.22804623782733 5.23003177046766  9.0999936182141 5.61052585532456  9.13499999999998 5.994  C 9.13499999999998 5.994  9.68249999999998 12.003  9.68249999999998 12.003  C 9.72646321739461 12.4214227237069  10.0792740319424 12.7391061701867  10.5 12.7391061701867  C 10.9207259680575 12.7391061701867  11.2735367826053 12.4214227237069  11.3175 12.003  Z M 10.5 14.1  C 9.83725830020306 14.1  9.3 14.637258300203  9.3 15.3  C 9.3 15.9627416997969  9.83725830020306 16.5  10.5 16.5  C 11.1627416997969 16.5  11.7 15.9627416997969  11.7 15.3  C 11.7 14.637258300203  11.1627416997969 14.1  10.5 14.1  Z " fill-rule="nonzero" fill="#e6a23c" stroke="none" transform="matrix(1 0 0 1 120 24 )" />
  </g>
</svg>