<?xml version="1.0" encoding="utf-8"?>
<svg version="1.1" xmlns:xlink="http://www.w3.org/1999/xlink" width="14px" height="10px" xmlns="http://www.w3.org/2000/svg">
  <g transform="matrix(1 0 0 1 -16 -15 )">
    <path d="M 0 5  C 0 5  2.625 0  7 0  C 11.375 0  14 5  14 5  C 14 5  11.375 10  7 10  C 2.625 10  0 5  0 5  Z M 12.971874833107 5  C 12.252624809742 3.86545452204618  10.0808749198914 0.909090909090909  7 0.909090909090909  C 3.9200000166893 0.909090909090909  1.74824997037649 3.86454549702731  1.02812495827675 5  C 1.74737498164177 6.13454547795382  3.91912508010864 9.09090909090909  7 9.09090909090909  C 10.0799999833107 9.09090909090909  12.2517498210073 6.13545450297269  12.971874833107 5  Z M 4.83448565006256 2.75011496110396  C 5.40881580114365 2.1534083106301  6.18777450919151 1.81818181818182  7 1.81818181818182  C 7.81222549080849 1.81818181818182  8.59118419885635 2.1534083106301  9.16551434993744 2.75011496110396  C 9.73984450101852 3.34682161157781  10.0625 4.15612936019897  10.0625 5  C 10.0625 5.84387063980103  9.73984450101852 6.65317838842219  9.16551434993744 7.24988503889604  C 8.59118419885635 7.84659168936989  7.81222549080849 8.18181818181818  7 8.18181818181818  C 6.18777450919151 8.18181818181818  5.40881580114365 7.84659168936989  4.83448565006256 7.24988503889604  C 4.26015549898148 6.65317838842219  3.9375 5.84387063980103  3.9375 5  C 3.9375 4.15612936019897  4.26015549898148 3.34682161157781  4.83448565006256 2.75011496110396  Z M 9.1875 5  C 9.1875 3.74727270819924  8.20662495493889 2.72727272727273  7 2.72727272727273  C 6.42005217820406 2.72799448073122  5.86405655369163 2.96767362139442  5.45397120714188 3.39373631910844  C 5.04388586059213 3.81979901682247  4.8131946877038 4.3974568085237  4.8125 5  C 4.8125 6.25272729180076  5.79337504506111 7.27272727272727  7 7.27272727272727  C 8.20662495493889 7.27272727272727  9.1875 6.25272729180076  9.1875 5  Z " fill-rule="nonzero" fill="#337ecc" stroke="none" transform="matrix(1 0 0 1 16 15 )" />
  </g>
</svg>