<?xml version="1.0" encoding="utf-8"?>
<svg version="1.1" xmlns:xlink="http://www.w3.org/1999/xlink" width="13px" height="13px" xmlns="http://www.w3.org/2000/svg">
  <g transform="matrix(1 0 0 1 -749 -236 )">
    <path d="M 1.39285714285714 12.5357474600189  C 1.39285714285714 12.5357474600189  1.39285714285714 2.7864436776694  1.39285714285714 2.7864436776694  C 1.39285714285714 2.7864436776694  0.464285714285714 2.7864436776694  0.464285714285714 2.7864436776694  C 0.341149482343878 2.7864436776694  0.223056574485132 2.73753140610405  0.135986115251269 2.65046716825897  C 0.0489156560174056 2.56340293041389  0 2.44531857125717  0 2.32219113768827  C 0 2.19906370411937  0.0489156560174056 2.08097934496264  0.135986115251269 1.99391510711756  C 0.223056574485132 1.90685086927248  0.341149482343878 1.85793859770714  0.464285714285714 1.85793859770714  C 0.464285714285714 1.85793859770714  4.17857142857143 1.85793859770714  4.17857142857143 1.85793859770714  C 4.17857142857143 1.85793859770714  4.17857142857143 0.464252484637915  4.17857142857143 0.464252484637915  C 4.17857142857143 0.341125051069016  4.22748719528317 0.223040691912289  4.31455765451704 0.135976454067209  C 4.4016281137509 0.0489122162221284  4.51972091091531 0  4.64285714285714 0  C 4.64285714285714 0  8.35714285714286 0  8.35714285714286 0  C 8.48027908908469 0  8.59837232902646 0.0489122162221284  8.68544278826032 0.135976454067209  C 8.77251324749419 0.223040691912289  8.82142857142857 0.341125051069016  8.82142857142857 0.464252484637915  C 8.82142857142857 0.464252484637915  8.82142857142857 1.85793859770714  8.82142857142857 1.85793859770714  C 8.82142857142857 1.85793859770714  12.5357142857143 1.85793859770714  12.5357142857143 1.85793859770714  C 12.6588505176561 1.85793859770714  12.7769437575979 1.90685086927248  12.8640142168318 1.99391510711756  C 12.9510846760656 2.08097934496264  13 2.19906370411937  13 2.32219113768827  C 13 2.44531857125717  12.9510846760656 2.56340293041389  12.8640142168318 2.65046716825897  C 12.7769437575979 2.73753140610405  12.6588505176561 2.7864436776694  12.5357142857143 2.7864436776694  C 12.5357142857143 2.7864436776694  11.6071428571429 2.7864436776694  11.6071428571429 2.7864436776694  C 11.6071428571429 2.7864436776694  11.6071428571429 12.5357474600189  11.6071428571429 12.5357474600189  C 11.6071428571429 12.6588748935878  11.5582275332085 12.7769596954902  11.4711570739746 12.8640239333353  C 11.3840866147407 12.9510881711804  11.265993374799 13  11.1428571428571 13  C 11.1428571428571 13  1.85714285714286 13  1.85714285714286 13  C 1.73400662520102 13  1.61591382803661 12.9510881711804  1.52884336880275 12.8640239333353  C 1.44177290956889 12.7769596954902  1.39285714285714 12.6588748935878  1.39285714285714 12.5357474600189  Z M 5.10714285714286 1.85793859770714  L 7.89285714285714 1.85793859770714  L 7.89285714285714 0.929433517744874  L 5.10714285714286 0.929433517744874  L 5.10714285714286 1.85793859770714  Z M 2.32142857142857 2.7864436776694  L 2.32142857142857 12.0714949200377  L 10.6785714285714 12.0714949200377  L 10.6785714285714 2.7864436776694  L 2.32142857142857 2.7864436776694  Z M 5.43544234548296 10.0785086934485  C 5.3483718862491 10.1655729312936  5.23027908908469 10.2144847601132  5.10714285714286 10.2144847601132  C 4.98400662520102 10.2144847601132  4.86591382803662 10.1655729312936  4.77884336880275 10.0785086934485  C 4.69177290956889 9.99144445560343  4.64285714285714 9.87335965370098  4.64285714285714 9.75023222013208  C 4.64285714285714 9.75023222013208  4.64285714285714 5.10770637757505  4.64285714285714 5.10770637757505  C 4.64285714285714 4.98457894400615  4.69177290956889 4.86649458484943  4.77884336880275 4.77943034700434  C 4.86591382803662 4.69236610915926  4.98400662520102 4.64345383759392  5.10714285714286 4.64345383759392  C 5.23027908908469 4.64345383759392  5.3483718862491 4.69236610915926  5.43544234548296 4.77943034700434  C 5.52251280471683 4.86649458484943  5.57142857142857 4.98457894400615  5.57142857142857 5.10770637757505  C 5.57142857142857 5.10770637757505  5.57142857142857 9.75023222013208  5.57142857142857 9.75023222013208  C 5.57142857142857 9.87335965370098  5.52251280471683 9.99144445560343  5.43544234548296 10.0785086934485  Z M 8.22115707397461 10.0785086934485  C 8.13408661474075 10.1655729312936  8.01599337479898 10.2144847601132  7.89285714285714 10.2144847601132  C 7.76972091091531 10.2144847601132  7.65162767097354 10.1655729312936  7.56455721173968 10.0785086934485  C 7.47748675250581 9.99144445560343  7.42857142857143 9.87335965370098  7.42857142857143 9.75023222013208  C 7.42857142857143 9.75023222013208  7.42857142857143 5.10770637757505  7.42857142857143 5.10770637757505  C 7.42857142857143 4.98457894400615  7.47748675250581 4.86649458484943  7.56455721173968 4.77943034700434  C 7.65162767097354 4.69236610915926  7.76972091091531 4.64345383759392  7.89285714285714 4.64345383759392  C 8.01599337479898 4.64345383759392  8.13408661474075 4.69236610915926  8.22115707397461 4.77943034700434  C 8.30822753320847 4.86649458484943  8.35714285714286 4.98457894400615  8.35714285714286 5.10770637757505  C 8.35714285714286 5.10770637757505  8.35714285714286 9.75023222013208  8.35714285714286 9.75023222013208  C 8.35714285714286 9.87335965370098  8.30822753320847 9.99144445560343  8.22115707397461 10.0785086934485  Z " fill-rule="nonzero" fill="#9fceff" stroke="none" transform="matrix(1 0 0 1 749 236 )" />
  </g>
</svg>