<?xml version="1.0" encoding="utf-8"?>
<svg version="1.1" xmlns:xlink="http://www.w3.org/1999/xlink" width="10px" height="10px" xmlns="http://www.w3.org/2000/svg">
  <g transform="matrix(1 0 0 1 -22 -22 )">
    <path d="M 9.10485186381502 0.160601105237427  C 9.10485186381502 0.160601105237427  9.10485186381502 0.161642320582509  9.10485186381502 0.161642320582509  L 5.00052030391706 4.26641090935488  C 5.00052030391706 4.26641090935488  0.896189861083819 0.161642320582509  0.896189861083819 0.161642320582509  C 0.797474759798817 0.0712992704764655  0.667712923952121 0.022530183357473  0.533936947108823 0.0254946008739059  C 0.400160970265525 0.0284590183903388  0.272686789850936 0.0829285259042163  0.178069671474745 0.17755573555732  C 0.0834525530985538 0.272182945210424  0.0289888562854333 0.399670690200153  0.0260247549017296 0.533460934762124  C 0.0230606535180259 0.667251179324095  0.0718245378430245 0.797026854766001  0.1621579535454 0.895752484393438  C 0.1621579535454 0.895752484393438  4.26440643600058 5.00052085593562  4.26440643600058 5.00052085593562  C 4.26440643600058 5.00052085593562  0.161116849238068 9.10424795006695  0.161116849238068 9.10424795006695  C 0.110986518661137 9.15202734297534  0.0709127046853517 9.20934736180262  0.0432508875761751 9.27283844041929  C 0.0155890704669986 9.33632951903597  0.000897424078982728 9.40471017774594  3.98442548148258E-05 9.4739613243862  C -0.000817735569353076 9.54321247102646  0.0121760363406469 9.61193639611064  0.038257111860725 9.67609314949817  C 0.064338187380803 9.74024990288569  0.102980217243269 9.79854517278266  0.151911987812179 9.84755157491641  C 0.200843758381088 9.89655797705016  0.259077648700675 9.93528685802396  0.323190526457206 9.96146162602584  C 0.387303404213737 9.98763639402771  0.456001530055942 10.0007287269252  0.525246431921559 9.99996921537845  C 0.594491333787176 9.9992097038317  0.662885726632471 9.98461331587378  0.726409182093165 9.95703857104539  C 0.789932637553859 9.92946382621701  0.847303447996468 9.88946750986697  0.895148756776487 9.83939960851892  C 0.895148756776487 9.83939960851892  5.00052030391706 5.73567251438759  5.00052030391706 5.73567251438759  C 5.00052030391706 5.73567251438759  9.10485186381502 9.84044032733785  9.10485186381502 9.84044032733785  C 9.20356696510002 9.93078337744389  9.33332855271011 9.97955320935211  9.46710452955341 9.97658879183568  C 9.60088050639671 9.97362437431925  9.7283544385747 9.91915486680537  9.82297155695089 9.82452765715226  C 9.91758867532708 9.72990044749916  9.97205237407955 9.60241192668732  9.97501647546325 9.46862168212535  C 9.97798057684695 9.33483143756338  9.92921693881921 9.20505601038455  9.83888352311683 9.10633038075711  C 9.83888352311683 9.10633038075711  5.73455196321888 5.00156256780685  5.73455196321888 5.00156256780685  C 5.73455196321888 5.00156256780685  9.83888352311683 0.895752484393438  9.83888352311683 0.895752484393438  C 9.88901385369376 0.847973091485043  9.92908742331165 0.790653072657764  9.95674924042082 0.72716199404109  C 9.98441105753 0.663670915424416  9.99910270231957 0.595290008451372  9.99996028214374 0.526038861811111  C 10.0008178619679 0.45678771517085  9.98782384341975 0.388063821119551  9.96174276789967 0.323907067732026  C 9.93566169237959 0.259750314344502  9.89701990687503 0.201455292710609  9.84808813630612 0.152448890576857  C 9.79915636573721 0.103442488443106  9.74092272365423 0.0647136074693125  9.6768098458977 0.038538839467434  C 9.61269696814117 0.0123640714655555  9.54399809758916 -0.000728262047508137  9.47475319572354 3.12494992401604E-05  C 9.40550829385792 0.000790761045988458  9.33711464572243 0.0153869013564151  9.27359119026174 0.0429616461847973  C 9.21006773480104 0.0705363910131795  9.15269717259504 0.110533203889379  9.10485186381502 0.160601105237427  Z " fill-rule="nonzero" fill="#909399" stroke="none" transform="matrix(1 0 0 1 22 22 )" />
  </g>
</svg>