<?xml version="1.0" encoding="utf-8"?>
<svg version="1.1" xmlns:xlink="http://www.w3.org/1999/xlink" width="12px" height="12px" xmlns="http://www.w3.org/2000/svg">
  <g transform="matrix(1 0 0 1 -840 -60 )">
    <path d="M 10.1432875980597 9.51709717372884  C 10.1432875980597 9.51709717372884  11.8755105066082 11.2484336146331  11.8755105066082 11.2484336146331  C 11.9562934986628 11.3320744180811  12.0009935101785 11.4440979800507  11.9999830826785 11.5603763342744  C 11.9989726551786 11.6766546884982  11.9523322748024 11.7878836452006  11.8701079600015 11.8701079600015  C 11.7878836452006 11.9523322748024  11.6766546884982 11.9989726551786  11.5603763342744 11.9999830826785  C 11.4440979800507 12.0009935101785  11.3320744180811 11.9562934986628  11.2484336146331 11.8755105066082  C 11.2484336146331 11.8755105066082  9.51621070608459 10.1432875980597  9.51621070608459 10.1432875980597  C 8.38424343940987 11.1131220049733  6.92063524119131 11.6068278428343  5.43250591418985 11.5208067193909  C 3.94437658718839 11.4347855959475  2.5474042379159 10.7757246376045  1.53472544561811 9.68191925320176  C 0.52204665332031 8.58811386879898  -0.0276188624676417 7.14458959741216  0.00106901250214506 5.65425224276103  C 0.0297568874719318 4.16391488810989  0.634568093381923 2.74261395031932  1.68859102185062 1.68859102185062  C 2.74261395031932 0.634568093381923  4.16391488810989 0.0297568874719318  5.65425224276103 0.00106901250214506  C 7.14458959741216 -0.0276188624676417  8.58811386879898 0.52204665332031  9.68191925320176 1.53472544561811  C 10.7757246376045 2.5474042379159  11.4347855959475 3.94437658718839  11.5208067193909 5.43250591418985  C 11.6068278428343 6.92063524119131  11.1131220049733 8.38424343940987  10.1432875980597 9.51621070608459  Z M 2.31583370357596 9.21472373696864  C 3.23068332656288 10.1295733599556  4.47148574895414 10.6435302558893  5.76527850880578 10.6435302558893  C 7.05907126865743 10.6435302558893  8.29987411398172 10.1295733599556  9.21472373696864 9.21472373696864  C 10.1295733599556 8.29987411398172  10.6435302558893 7.05907126865743  10.6435302558893 5.76527850880578  C 10.6435302558893 4.47148574895414  10.1295733599556 3.23068332656288  9.21472373696864 2.31583370357596  C 8.29987411398172 1.40098408058904  7.05907126865743 0.887026761722277  5.76527850880578 0.887026761722276  C 4.47148574895414 0.887026761722277  3.23068332656288 1.40098408058904  2.31583370357596 2.31583370357596  C 1.40098408058904 3.23068332656288  0.887026761722278 4.47148574895414  0.887026761722276 5.76527850880578  C 0.887026761722277 7.05907126865743  1.40098408058904 8.29987411398172  2.31583370357596 9.21472373696864  Z " fill-rule="nonzero" fill="#909399" stroke="none" transform="matrix(1 0 0 1 840 60 )" />
  </g>
</svg>