<?xml version="1.0" encoding="utf-8"?>
<svg version="1.1" xmlns:xlink="http://www.w3.org/1999/xlink" width="14px" height="16px" xmlns="http://www.w3.org/2000/svg">
  <defs>
    <mask fill="white" id="clip17">
      <path d="M 6.96527371170306 0.000631754272126462  C 6.92749814148405 0.00919569330445173  6.89318960809984 0.0294380933956755  6.86748945744492 0.0587632980701532  C 5.13387235778241 1.9045560767451  2.66132247389854 2.7296918184268  0.178476740590647 2.79094585657741  C 0.0790247560903403 2.79406004642373  0 2.87645569660305  0 2.97701994557114  C 0 9.72692263114773  2.93349473365657 14.7398547880393  6.94821812727381 15.9925065118242  C 6.98201022348243 16.0024978293919  7.01798977651757 16.0024978293919  7.0517818727262 15.9925065118242  C 11.0665052663434 14.739555825814  14 9.72692263114773  14 2.97701994557114  C 14 2.87645901840556  13.9209785333184 2.79406170732498  13.8215232594094 2.79094585657741  C 11.338545949751 2.72969846203181  8.86602895995474 1.9045560767451  7.13251054255508 0.0587632980701522  C 7.09409024821878 0.0173703170834545  7.03896633619073 -0.00403870004673306  6.98294441557074 0.000631754272125517  C 6.97716229284948 0.000372221842586141  6.97138017012822 0.000372221842586141  6.96559804740696 0.000631754272125517  Z " fill-rule="evenodd" />
    </mask>
  </defs>
  <g transform="matrix(1 0 0 1 -1 -10 )">
    <path d="M 6.96527371170306 0.000631754272126462  C 6.92749814148405 0.00919569330445173  6.89318960809984 0.0294380933956755  6.86748945744492 0.0587632980701532  C 5.13387235778241 1.9045560767451  2.66132247389854 2.7296918184268  0.178476740590647 2.79094585657741  C 0.0790247560903403 2.79406004642373  0 2.87645569660305  0 2.97701994557114  C 0 9.72692263114773  2.93349473365657 14.7398547880393  6.94821812727381 15.9925065118242  C 6.98201022348243 16.0024978293919  7.01798977651757 16.0024978293919  7.0517818727262 15.9925065118242  C 11.0665052663434 14.739555825814  14 9.72692263114773  14 2.97701994557114  C 14 2.87645901840556  13.9209785333184 2.79406170732498  13.8215232594094 2.79094585657741  C 11.338545949751 2.72969846203181  8.86602895995474 1.9045560767451  7.13251054255508 0.0587632980701522  C 7.09409024821878 0.0173703170834545  7.03896633619073 -0.00403870004673306  6.98294441557074 0.000631754272125517  C 6.97716229284948 0.000372221842586141  6.97138017012822 0.000372221842586141  6.96559804740696 0.000631754272125517  Z " fill-rule="nonzero" fill="#ffffff" stroke="none" fill-opacity="0" transform="matrix(1 0 0 1 1 10 )" />
    <path d="M 6.96527371170306 0.000631754272126462  C 6.92749814148405 0.00919569330445173  6.89318960809984 0.0294380933956755  6.86748945744492 0.0587632980701532  C 5.13387235778241 1.9045560767451  2.66132247389854 2.7296918184268  0.178476740590647 2.79094585657741  C 0.0790247560903403 2.79406004642373  0 2.87645569660305  0 2.97701994557114  C 0 9.72692263114773  2.93349473365657 14.7398547880393  6.94821812727381 15.9925065118242  C 6.98201022348243 16.0024978293919  7.01798977651757 16.0024978293919  7.0517818727262 15.9925065118242  C 11.0665052663434 14.739555825814  14 9.72692263114773  14 2.97701994557114  C 14 2.87645901840556  13.9209785333184 2.79406170732498  13.8215232594094 2.79094585657741  C 11.338545949751 2.72969846203181  8.86602895995474 1.9045560767451  7.13251054255508 0.0587632980701522  C 7.09409024821878 0.0173703170834545  7.03896633619073 -0.00403870004673306  6.98294441557074 0.000631754272125517  C 6.97716229284948 0.000372221842586141  6.97138017012822 0.000372221842586141  6.96559804740696 0.000631754272125517  Z " stroke-width="2" stroke="#a8abb2" fill="none" transform="matrix(1 0 0 1 1 10 )" mask="url(#clip17)" />
  </g>
</svg>