<?xml version="1.0" encoding="utf-8"?>
<svg version="1.1" xmlns:xlink="http://www.w3.org/1999/xlink" width="8px" height="12px" xmlns="http://www.w3.org/2000/svg">
  <g transform="matrix(1 0 0 1 -4 -11 )">
    <path d="M 4 12  C 3.72385762508461 12  3.5 11.7664094346943  3.5 11.4782608695652  C 3.5 11.4782608695652  3.5 8.34782608695652  3.5 8.34782608695652  C 3.5 8.05967752182741  3.72385762508461 7.82608695652174  4 7.82608695652174  C 4.27614237491539 7.82608695652174  4.5 8.05967752182741  4.5 8.34782608695652  C 4.5 8.34782608695652  4.5 11.4782608695652  4.5 11.4782608695652  C 4.5 11.7664094346943  4.27614237491539 12  4 12  Z M 0 6.26086956521739  C 0 6.26086956521739  0 4.17391304347826  0 4.17391304347826  C 0 1.86872452244537  1.79086100067681 0  4 0  C 6.20913899932317 0  8 1.86872452244537  8 4.17391304347826  C 8 4.17391304347826  8 6.26086956521739  8 6.26086956521739  L 0 6.26086956521739  Z M 4 1.04347826086957  C 2.34314575050763 1.04347826086957  1 2.44502165270361  1 4.17391304347826  C 1 4.17391304347826  1 5.21739130434783  1 5.21739130434783  L 7 5.21739130434783  C 7 5.21739130434783  7 4.17391304347826  7 4.17391304347826  C 7 2.44502165270361  5.65685424949238 1.04347826086957  4 1.04347826086957  Z " fill-rule="nonzero" fill="#a8abb2" stroke="none" transform="matrix(1 0 0 1 4 11 )" />
  </g>
</svg>