<?xml version="1.0" encoding="utf-8"?>
<svg version="1.1" xmlns:xlink="http://www.w3.org/1999/xlink" width="12px" height="9px" xmlns="http://www.w3.org/2000/svg">
  <g transform="matrix(1 0 0 1 -2 -16 )">
    <path d="M 0 7.5  C 0 7.5  0 1.5  0 1.5  C 0 0.671572875253815  0.671572875253815 0  1.5 0  C 1.5 0  10.5 0  10.5 0  C 11.3284271247462 0  12 0.671572875253815  12 1.5  C 12 1.5  12 7.5  12 7.5  C 12 8.32842712474618  11.3284271247462 9  10.5 9  C 10.5 9  1.5 9  1.5 9  C 0.671572875253815 9  0 8.32842712474618  0 7.5  Z M 11 1.5  C 11 1.22385762508461  10.7761423749154 1  10.5 1  C 10.5 1  1.5 1  1.5 1  C 1.22385762508461 1  1 1.22385762508461  1 1.5  C 1 1.5  1 7.5  1 7.5  C 1 7.77614237491539  1.22385762508461 8  1.5 8  C 1.5 8  10.5 8  10.5 8  C 10.7761423749154 8  11 7.77614237491539  11 7.5  C 11 7.5  11 1.5  11 1.5  Z " fill-rule="nonzero" fill="#a8abb2" stroke="none" transform="matrix(1 0 0 1 2 16 )" />
  </g>
</svg>