<?xml version="1.0" encoding="utf-8"?>
<svg version="1.1" xmlns:xlink="http://www.w3.org/1999/xlink" width="13px" height="14px" xmlns="http://www.w3.org/2000/svg">
  <g transform="matrix(1 0 0 1 -2 -11 )">
    <path d="M 2.16666666666667 4.25  C 2.16666666666667 2.04086100067684  4.10676608406655 0.25  6.5 0.25  C 8.89323391593342 0.25  10.8333333333333 2.04086100067681  10.8333333333333 4.25  C 10.8333333333333 6.45913899932319  8.89323391593342 8.25  6.5 8.25  C 4.10676608406655 8.25  2.16666666666667 6.45913899932319  2.16666666666667 4.25  Z M 9.75 4.25  C 9.75 2.59314575050763  8.29492543695007 1.25  6.5 1.25  C 4.70507456304993 1.25  3.25 2.59314575050763  3.25 4.25  C 3.25 5.90685424949237  4.70507456304993 7.25  6.5 7.25  C 8.29492543695007 7.25  9.75 5.90685424949237  9.75 4.25  Z M 13 13.25  C 13 13.5261423749154  12.757487572825 13.75  12.4583333333333 13.75  C 12.1591790938417 13.75  11.9166666666667 13.5261423749154  11.9166666666667 13.25  C 11.9166666666667 13.25  11.9166666666667 11.75  11.9166666666667 11.75  C 11.9166666666667 10.9215728752538  11.1891293851417 10.25  10.2916666666667 10.25  C 10.2916666666667 10.25  2.70833333333333 10.25  2.70833333333333 10.25  C 1.8108706148583 10.25  1.08333333333333 10.9215728752538  1.08333333333333 11.75  C 1.08333333333333 11.75  1.08333333333333 13.25  1.08333333333333 13.25  C 1.08333333333333 13.5261423749154  0.840820906158344 13.75  0.541666666666667 13.75  C 0.242512427174989 13.75  0 13.5261423749154  0 13.25  C 0 13.25  0 11.75  0 11.75  C 0 10.369288125423  1.21256213587494 9.25  2.70833333333333 9.25  C 2.70833333333333 9.25  10.2916666666667 9.25  10.2916666666667 9.25  C 11.7874378641251 9.25  13 10.369288125423  13 11.75  C 13 11.75  13 13.25  13 13.25  Z " fill-rule="nonzero" fill="#a8abb2" stroke="none" transform="matrix(1 0 0 1 2 11 )" />
  </g>
</svg>