<?xml version="1.0" encoding="utf-8"?>
<svg version="1.1" xmlns:xlink="http://www.w3.org/1999/xlink" width="11px" height="8px" xmlns="http://www.w3.org/2000/svg">
  <g transform="matrix(1 0 0 1 -139 -17 )">
    <path d="M 0 4.44444444444445  L 0.916666666666667 4.44444444444445  L 0.916666666666667 7.11111111111111  L 10.0833333333333 7.11111111111111  L 10.0833333333333 0.888888888888889  L 8.25 0.888888888888889  L 8.25 0  C 8.25 0  10.4124166666667 0  10.4124166666667 0  C 10.6168333333333 0  10.6910833333333 0.0204444444444442  10.7653333333333 0.0595555555555557  C 10.8394993933835 0.0972855069887307  10.9002001544334 0.155837054489534  10.9395 0.227555555555556  C 10.9789166666667 0.299555555555556  11 0.371555555555556  11 0.569777777777778  C 11 0.569777777777778  11 7.43022222222222  11 7.43022222222222  C 11 7.62844444444445  10.9789166666667 7.70044444444445  10.9385833333333 7.77244444444445  C 10.8996743209179 7.84436304812943  10.8392930375577 7.90322439217786  10.7653333333333 7.94133333333333  C 10.6910833333333 7.97955555555555  10.6168333333333 8  10.4124166666667 8  C 10.4124166666667 8  0.587583333333333 8  0.587583333333333 8  C 0.383166666666667 8  0.308916666666667 7.97955555555556  0.234666666666667 7.94044444444444  C 0.160500606616523 7.90271449301127  0.0997998455665831 7.84416294551047  0.0604999999999999 7.77244444444444  C 0.022 7.70044444444444  0 7.62844444444444  0 7.43111111111111  C 0 7.43111111111111  0 4.44444444444445  0 4.44444444444445  Z " fill-rule="nonzero" fill="#409eff" stroke="none" transform="matrix(1 0 0 1 139 17 )" />
  </g>
</svg>