<?xml version="1.0" encoding="utf-8"?>
<svg version="1.1" xmlns:xlink="http://www.w3.org/1999/xlink" width="12px" height="12px" xmlns="http://www.w3.org/2000/svg">
  <g transform="matrix(1 0 0 1 -77 -14 )">
    <path d="M 11.9999999629664 6  C 11.9999999629664 9.31370844960665  9.31370853901365 11.9999999301688  6.00000008940697 12  C 3.85640652866329 12.000000031942  1.87564438178721 10.8564064994787  0.803847592194513 9.00000002580957  C -0.267949197398187 7.14359355214048  -0.267949197398187 4.85640644785952  0.803847592194513 2.99999997419043  C 1.87564438178721 1.14359350052134  3.85640652866329 0  6.00000008940697 0  C 9.31370853901365 0  11.9999999629664 2.68629155039335  11.9999999629664 6  Z M 0.857143023184368 6  C 0.857143023184368 8.84032154063071  3.15967854877624 11.1428571005331  6.00000008940697 11.1428571428571  C 7.83736599861584 11.142857170236  9.53516212450958 10.1626341424103  10.4538450870176 8.57142859355106  C 11.3725280495257 6.98022304469184  11.3725280495257 5.01977695530816  10.4538450870176 3.42857140644894  C 9.53516212450958 1.83736585758973  7.83736599861584 0.857142829763975  6.00000008940697 0.857142857142857  C 3.15967854877624 0.857142899466944  0.857143023184368 3.15967845936928  0.857143023184368 6  Z " fill-rule="nonzero" fill="#409eff" stroke="none" transform="matrix(1 0 0 1 77 14 )" />
  </g>
</svg>