<?xml version="1.0" encoding="utf-8"?>
<svg version="1.1" xmlns:xlink="http://www.w3.org/1999/xlink" width="10px" height="6px" xmlns="http://www.w3.org/2000/svg">
  <g transform="matrix(1 0 0 1 -79 -16 )">
    <path d="M 0 4.54545454545454  C 0 2.03506931895094  2.01471862576143 0  4.5 0  C 6.98528137423857 0  9 2.03506931895094  9 4.54545454545454  C 9 4.79649306810491  8.79852813742386 5  8.55 5  C 8.30147186257614 5  8.1 4.79649306810491  8.1 4.54545454545454  C 8.1 2.53714636425166  6.48822509939086 0.909090909090908  4.5 0.909090909090908  C 2.51177490060914 0.909090909090908  0.9 2.53714636425166  0.9 4.54545454545454  C 0.9 4.7964930681049  0.698528137423857 5  0.45 5  C 0.201471862576143 5  0 4.7964930681049  0 4.54545454545454  Z " fill-rule="nonzero" fill="#409eff" stroke="none" transform="matrix(1 0 0 1 79 16 )" />
  </g>
</svg>