<?xml version="1.0" encoding="utf-8"?>
<svg version="1.1" xmlns:xlink="http://www.w3.org/1999/xlink" width="9px" height="9px" xmlns="http://www.w3.org/2000/svg">
  <g transform="matrix(1 0 0 1 -199 -16 )">
    <path d="M 0 1.8  C 0 0.805887450304572  0.805887450304579 0  1.8 0  C 1.8 0  7.2 0  7.2 0  C 8.19411254969542 0  9 0.805887450304572  9 1.8  C 9 1.8  9 7.2  9 7.2  C 9 8.19411254969543  8.19411254969542 9  7.2 9  C 7.2 9  1.8 9  1.8 9  C 0.805887450304579 9  0 8.19411254969543  0 7.2  C 0 7.2  0 1.8  0 1.8  Z M 8.1 1.8  C 8.1 1.30294372515229  7.69705627484771 0.9  7.2 0.9  C 7.2 0.9  1.8 0.9  1.8 0.9  C 1.30294372515229 0.9  0.9 1.30294372515229  0.9 1.8  C 0.9 1.8  0.9 7.2  0.9 7.2  C 0.9 7.69705627484771  1.30294372515229 8.1  1.8 8.1  C 1.8 8.1  7.2 8.1  7.2 8.1  C 7.69705627484771 8.1  8.1 7.69705627484771  8.1 7.2  C 8.1 7.2  8.1 1.8  8.1 1.8  Z " fill-rule="nonzero" fill="#409eff" stroke="none" transform="matrix(1 0 0 1 199 16 )" />
  </g>
</svg>