<?xml version="1.0" encoding="utf-8"?>
<svg version="1.1" xmlns:xlink="http://www.w3.org/1999/xlink" width="12px" height="12px" xmlns="http://www.w3.org/2000/svg">
  <g transform="matrix(1 0 0 1 -197 -14 )">
    <path d="M 5.57142857142857 0.428571428571429  C 5.57142857142857 0.191877964358233  5.76330653578678 0  6 0  C 6.23669346421322 0  6.42857142857143 0.191877964358233  6.42857142857143 0.428571428571429  C 6.42857142857143 0.428571428571429  6.42857142857143 2.14285714285714  6.42857142857143 2.14285714285714  L 5.57142857142857 2.14285714285714  C 5.57142857142857 2.14285714285714  5.57142857142857 0.428571428571429  5.57142857142857 0.428571428571429  Z M 7.71428571428572 0.428571428571429  C 7.71428571428572 0.191877964358233  7.90616367864392 0  8.14285714285714 0  C 8.37955060707036 0  8.57142857142857 0.191877964358233  8.57142857142857 0.428571428571429  C 8.57142857142857 0.428571428571429  8.57142857142857 2.14285714285714  8.57142857142857 2.14285714285714  L 7.71428571428572 2.14285714285714  C 7.71428571428572 2.14285714285714  7.71428571428572 0.428571428571429  7.71428571428572 0.428571428571429  Z M 3.85714285714286 0  C 4.09383632135608 0  4.28571428571429 0.191877964358233  4.28571428571429 0.428571428571429  C 4.28571428571429 0.428571428571429  4.28571428571429 2.14285714285714  4.28571428571429 2.14285714285714  L 3.42857142857143 2.14285714285714  C 3.42857142857143 2.14285714285714  3.42857142857143 0.428571428571429  3.42857142857143 0.428571428571429  C 3.42857142857143 0.191877964358233  3.62044939292964 0  3.85714285714286 0  Z M 5.57142857142857 11.5714285714286  C 5.57142857142857 11.5714285714286  5.57142857142857 9.85714285714286  5.57142857142857 9.85714285714286  L 6.42857142857143 9.85714285714286  C 6.42857142857143 9.85714285714286  6.42857142857143 11.5714285714286  6.42857142857143 11.5714285714286  C 6.42857142857143 11.8081220356418  6.23669346421322 12  6 12  C 5.76330653578678 12  5.57142857142857 11.8081220356418  5.57142857142857 11.5714285714286  Z M 7.71428571428572 9.85714285714286  L 8.57142857142857 9.85714285714286  C 8.57142857142857 9.85714285714286  8.57142857142857 11.5714285714286  8.57142857142857 11.5714285714286  C 8.57142857142857 11.8081220356418  8.37955060707036 12  8.14285714285714 12  C 7.90616367864392 12  7.71428571428572 11.8081220356418  7.71428571428572 11.5714285714286  C 7.71428571428572 11.5714285714286  7.71428571428572 9.85714285714286  7.71428571428572 9.85714285714286  Z M 4.28571428571429 9.85714285714286  C 4.28571428571429 9.85714285714286  4.28571428571429 11.5714285714286  4.28571428571429 11.5714285714286  C 4.28571428571429 11.8081220356418  4.09383632135608 12  3.85714285714286 12  C 3.62044939292964 12  3.42857142857143 11.8081220356418  3.42857142857143 11.5714285714286  C 3.42857142857143 11.5714285714286  3.42857142857143 9.85714285714286  3.42857142857143 9.85714285714286  L 4.28571428571429 9.85714285714286  Z M 0.428571428571429 6.42857142857143  C 0.191877964358209 6.42857142857143  0 6.2366934642132  0 6  C 0 5.7633065357868  0.191877964358209 5.57142857142857  0.428571428571429 5.57142857142857  C 0.428571428571429 5.57142857142857  2.14285714285714 5.57142857142857  2.14285714285714 5.57142857142857  L 2.14285714285714 6.42857142857143  C 2.14285714285714 6.42857142857143  0.428571428571429 6.42857142857143  0.428571428571429 6.42857142857143  Z M 0 3.85714285714286  C 0 3.62044939292966  0.191877964358209 3.42857142857143  0.428571428571429 3.42857142857143  C 0.428571428571429 3.42857142857143  2.14285714285714 3.42857142857143  2.14285714285714 3.42857142857143  L 2.14285714285714 4.28571428571429  C 2.14285714285714 4.28571428571429  0.428571428571429 4.28571428571429  0.428571428571429 4.28571428571429  C 0.191877964358209 4.28571428571429  0 4.09383632135605  0 3.85714285714286  Z M 0.428571428571429 7.71428571428572  C 0.428571428571429 7.71428571428572  2.14285714285714 7.71428571428572  2.14285714285714 7.71428571428572  L 2.14285714285714 8.57142857142857  C 2.14285714285714 8.57142857142857  0.428571428571429 8.57142857142857  0.428571428571429 8.57142857142857  C 0.191877964358209 8.57142857142857  0 8.37955060707034  0 8.14285714285714  C 0 7.90616367864395  0.191877964358209 7.71428571428572  0.428571428571429 7.71428571428572  Z M 9.85714285714286 6.42857142857143  L 9.85714285714286 5.57142857142857  C 9.85714285714286 5.57142857142857  11.5714285714286 5.57142857142857  11.5714285714286 5.57142857142857  C 11.8081220356418 5.57142857142857  12 5.7633065357868  12 6  C 12 6.2366934642132  11.8081220356418 6.42857142857143  11.5714285714286 6.42857142857143  C 11.5714285714286 6.42857142857143  9.85714285714286 6.42857142857143  9.85714285714286 6.42857142857143  Z M 9.85714285714286 3.42857142857143  C 9.85714285714286 3.42857142857143  11.5714285714286 3.42857142857143  11.5714285714286 3.42857142857143  C 11.8081220356418 3.42857142857143  12 3.62044939292966  12 3.85714285714286  C 12 4.09383632135605  11.8081220356418 4.28571428571429  11.5714285714286 4.28571428571429  C 11.5714285714286 4.28571428571429  9.85714285714286 4.28571428571429  9.85714285714286 4.28571428571429  L 9.85714285714286 3.42857142857143  Z M 11.5714285714286 7.71428571428572  C 11.8081220356418 7.71428571428572  12 7.90616367864395  12 8.14285714285714  C 12 8.37955060707034  11.8081220356418 8.57142857142857  11.5714285714286 8.57142857142857  C 11.5714285714286 8.57142857142857  9.85714285714286 8.57142857142857  9.85714285714286 8.57142857142857  L 9.85714285714286 7.71428571428572  C 9.85714285714286 7.71428571428572  11.5714285714286 7.71428571428572  11.5714285714286 7.71428571428572  Z " fill-rule="nonzero" fill="#409eff" stroke="none" transform="matrix(1 0 0 1 197 14 )" />
  </g>
</svg>