<?xml version="1.0" encoding="utf-8"?>
<svg version="1.1" xmlns:xlink="http://www.w3.org/1999/xlink" width="13px" height="13px" xmlns="http://www.w3.org/2000/svg">
  <g transform="matrix(1 0 0 1 -16 -21 )">
    <path d="M 6.5 0  C 10.0898508739002 0  13 2.91014912609984  13 6.5  C 13 10.0898508739002  10.0898508739002 13  6.5 13  C 2.91014912609987 13  0 10.0898508739002  0 6.5  C 0 2.91014912609984  2.91014912609987 0  6.5 0  Z M 6.50000000000005 0.928571428571428  C 3.4229849976501 0.928571474422525  0.928571511592236 3.42298499765006  0.928571511592236 6.5  C 0.928571511592236 9.57701500234994  3.4229849976501 12.0714285255775  6.50000000000005 12.0714285714286  C 8.49047973497633 12.071428601089  10.3297588713612 11.0095203209445  11.3249987474116 9.28571430968031  C 12.320238623462 7.56190829841616  12.320238623462 5.43809170158384  11.3249987474116 3.71428569031969  C 10.3297588713612 1.99047967905553  8.49047973497633 0.928571398910969  6.50000000000005 0.928571428571428  Z " fill-rule="nonzero" fill="#ffffff" stroke="none" transform="matrix(1 0 0 1 16 21 )" />
  </g>
</svg>