<?xml version="1.0" encoding="utf-8"?>
<svg version="1.1" xmlns:xlink="http://www.w3.org/1999/xlink" width="14px" height="14px" xmlns="http://www.w3.org/2000/svg">
  <g transform="matrix(1 0 0 1 -648 -68 )">
    <path d="M 13.9853913043478 6.99269565217391  C 13.9853913043478 10.8546548210777  10.8546548210777 13.9853913043478  6.99269565217391 13.9853913043478  C 3.13073648327017 13.9853913043478  0 10.8546548210777  0 6.99269565217392  C 0 3.13073648327017  3.13073648327017 0  6.99269565217391 0  C 10.8546548210777 0  13.9853913043478 3.13073648327017  13.9853913043478 6.99269565217391  Z M 8.98247491638796 3.39820735785953  C 8.98247491638796 2.86380379041249  8.55994648829432 2.50320624303233  8.04152508361204 2.50320624303233  C 7.52210479375697 2.50320624303233  7.10257302118172 2.86380379041249  7.10257302118172 3.39820735785953  C 7.10257302118172 3.93261092530658  7.52210479375697 4.29320847268673  8.04152508361204 4.29320847268673  C 8.56094537346711 4.29320847268673  8.98247491638796 3.93261092530658  8.98247491638796 3.39820735785953  Z M 5.92388851727982 11.4811861761427  C 6.98270680044593 11.4811861761427  7.60800891861761 10.7999464882943  8.22531995540691 9.9139353400223  C 8.22531995540691 9.80705462653289  8.26127982162765 9.52936454849498  8.24030323299889 9.37154069119287  C 8.24030323299889 9.37154069119287  7.41921962095875 10.31648606466  7.41921962095875 10.31648606466  C 7.24940914158306 10.4952865105909  7.03664659977704 10.6191482720178  6.93675808249722 10.5861850613155  C 6.84314048589923 10.5517263496222  6.78849319410667 10.454293193713  6.80790189520624 10.3564414715719  C 6.80790189520624 10.3564414715719  8.1763745819398 6.03326644370122  8.1763745819398 6.03326644370122  C 8.2882497212932 5.484878483835  7.98059308807135 4.9844370122631  7.32832107023412 4.92050836120401  C 6.64008918617615 4.92050836120401  5.62721962095875 5.61872909698997  5.01090746934225 6.50474024526198  C 5.01090746934225 6.61062207357859  4.99092976588629 6.87432775919732  5.01190635451505 7.03215161649944  C 5.01190635451505 7.03215161649944  5.83199108138239 6.08620735785953  5.83199108138239 6.08620735785953  C 6.00180156075808 5.90940468227425  6.19958082497213 5.78454403567447  6.29946934225195 5.81850613154961  C 6.40183984307547 5.85524963723847  6.45600661332827 5.9671350971049  6.42133333333334 6.07022519509476  C 6.42133333333334 6.07022519509476  5.06484726867336 10.3724236343367  5.06484726867336 10.3724236343367  C 4.90802229654404 10.875861761427  5.20469119286511 11.3693110367893  5.92388851727982 11.4811861761427  Z " fill-rule="nonzero" fill="#909399" stroke="none" transform="matrix(1 0 0 1 648 68 )" />
  </g>
</svg>