<?xml version="1.0" encoding="utf-8"?>
<svg version="1.1" xmlns:xlink="http://www.w3.org/1999/xlink" width="10px" height="10px" xmlns="http://www.w3.org/2000/svg">
  <g transform="matrix(1 0 0 1 -303 -23 )">
    <path d="M 0 9.1665106994195  L 0 8.3332085595356  L 3.40403924142572 8.3332085595356  C 3.58083486026379 7.83365166980635  4.05324311813628 7.49971925895509  4.58316176936144 7.49971925895509  C 5.1130804205866 7.49971925895509  5.5854886784591 7.83365166980635  5.76228429729716 8.3332085595356  C 5.76228429729716 8.3332085595356  9.99962567860678 8.3332085595356  9.99962567860678 8.3332085595356  L 9.99962567860678 9.1665106994195  C 9.99962567860678 9.1665106994195  5.76228429729716 9.1665106994195  5.76228429729716 9.1665106994195  C 5.5854886784591 9.66606758914875  5.1130804205866 10  4.58316176936144 10  C 4.05324311813628 10  3.58083486026379 9.66606758914875  3.40403924142572 9.1665106994195  C 3.40403924142572 9.1665106994195  0 9.1665106994195  0 9.1665106994195  Z M 5.90394566107742 5.41665106994195  C 5.90394566107742 5.41665106994195  0 5.41665106994195  0 5.41665106994195  L 0 4.58334893005805  C 0 4.58334893005805  5.90394566107742 4.58334893005805  5.90394566107742 4.58334893005805  C 6.08074127991548 4.0837920403288  6.55314953778798 3.74985962947755  7.08306818901314 3.74985962947755  C 7.6129868402383 3.74985962947755  8.08539509811079 4.0837920403288  8.26219071694886 4.58334893005805  C 8.26219071694886 4.58334893005805  9.99962567860678 4.58334893005805  9.99962567860678 4.58334893005805  L 9.99962567860678 5.41665106994195  C 9.99962567860678 5.41665106994195  8.26219071694885 5.41665106994195  8.26219071694885 5.41665106994195  C 8.08539509811079 5.9162079596712  7.6129868402383 6.25014037052245  7.08306818901313 6.25014037052245  C 6.55314953778798 6.25014037052245  6.08074127991548 5.9162079596712  5.90394566107742 5.41665106994195  Z M 0 1.6667914404644  L 0 0.833489300580505  C 0 0.833489300580505  1.73743496165793 0.833489300580505  1.73743496165793 0.833489300580505  C 1.91423058049599 0.333932410851254  2.38663883836848 0  2.91655748959365 0  C 3.44647614081881 0  3.9188843986913 0.333932410851254  4.09568001752936 0.833489300580505  C 4.09568001752936 0.833489300580505  9.99962567860678 0.833489300580505  9.99962567860678 0.833489300580505  L 9.99962567860678 1.6667914404644  C 9.99962567860678 1.6667914404644  4.09568001752936 1.6667914404644  4.09568001752936 1.6667914404644  C 3.9188843986913 2.16634833019365  3.44647614081881 2.50028074104491  2.91655748959365 2.50028074104491  C 2.38663883836848 2.50028074104491  1.91423058049599 2.16634833019365  1.73743496165793 1.6667914404644  C 1.73743496165793 1.6667914404644  0 1.6667914404644  0 1.6667914404644  Z " fill-rule="nonzero" fill="#606266" stroke="none" transform="matrix(1 0 0 1 303 23 )" />
  </g>
</svg>