<?xml version="1.0" encoding="utf-8"?>
<svg version="1.1" xmlns:xlink="http://www.w3.org/1999/xlink" width="11px" height="11px" xmlns="http://www.w3.org/2000/svg">
  <g transform="matrix(1 0 0 1 -103 -22 )">
    <path d="M 10.0833333333333 10.0833333333333  C 10.0833333333333 10.0833333333333  10.0833333333333 5.5  10.0833333333333 5.5  C 10.0833333333333 5.24686948966089  10.2885361563276 5.04166666666667  10.5416666666667 5.04166666666667  C 10.7947971770058 5.04166666666667  11 5.24686948966089  11 5.5  C 11 5.5  11 10.5416666666667  11 10.5416666666667  C 11 10.7947971770058  10.7947971770058 11  10.5416666666667 11  C 10.5416666666667 11  0.458333333333333 11  0.458333333333333 11  C 0.20520282299422 11  0 10.7947971770058  0 10.5416666666667  C 0 10.5416666666667  0 0.458333333333333  0 0.458333333333333  C 0 0.20520282299422  0.20520282299422 0  0.458333333333333 0  C 0.458333333333333 0  5.5 0  5.5 0  C 5.75313051033911 0  5.95833333333333 0.20520282299422  5.95833333333333 0.458333333333333  C 5.95833333333333 0.711463843672447  5.75313051033911 0.916666666666667  5.5 0.916666666666667  C 5.5 0.916666666666667  0.916666666666667 0.916666666666667  0.916666666666667 0.916666666666667  L 0.916666666666667 10.0833333333333  L 10.0833333333333 10.0833333333333  Z " fill-rule="nonzero" fill="#606266" stroke="none" transform="matrix(1 0 0 1 103 22 )" />
  </g>
</svg>