<?xml version="1.0" encoding="utf-8"?>
<svg version="1.1" xmlns:xlink="http://www.w3.org/1999/xlink" width="7px" height="7px" xmlns="http://www.w3.org/2000/svg">
  <g transform="matrix(1 0 0 1 -107 -22 )">
    <path d="M 4.62730882352913 0.619030325220111  C 5.10969099301185 0.136793813161924  5.89163253639981 0.136793813161924  6.37401470588215 0.619030325220111  C 6.6058485394374 0.850715626628056  6.73610392440894 1.16421396132062  6.73610392440894 1.49197150169065  C 6.73610392440894 1.81972904206069  6.6058485394374 2.13405090616518  6.37401470588215 2.36573620757313  C 6.37401470588215 2.36573620757313  2.1040147058822 6.63573620757309  2.1040147058822 6.63573620757309  C 2.04104783568966 6.69893444696497  1.95925906123712 6.73997333732661  1.87095588235287 6.7526773840439  C 1.87095588235287 6.7526773840439  0.512132352941027 6.94703032522027  0.512132352941027 6.94703032522027  C 0.383736235564945 6.96546982961712  0.25415729954415 6.92233024723919  0.1624360417038 6.83060898939884  C 0.0707147838634495 6.73888773155849  0.0275752014855136 6.60930879553732  0.0460147058823649 6.48091267816161  C 0.0460147058823649 6.48091267816161  0.240367647058734 5.12208914874977  0.240367647058734 5.12208914874977  C 0.252845062660526 5.03388780703255  0.293588864803496 4.95211123961091  0.35648529411762 4.88903032522044  C 0.35648529411762 4.88903032522044  4.62730882352913 0.619030325220111  4.62730882352913 0.619030325220111  Z M 1.03507352941179 5.3740891487498  L 0.93789705882361 6.05350091345554  L 1.61813235294128 5.95632444286735  C 1.61813235294128 5.95632444286735  5.79177941176498 1.78350091345558  5.79177941176498 1.78350091345558  C 5.89882035830445 1.6801173080535  5.94174930472897 1.52702178139701  5.90406647624016 1.38305672126422  C 5.86638364775134 1.23909166113106  5.75395336997158 1.12666138335129  5.60998830983879 1.08897855486248  C 5.46602324970563 1.05129572637366  5.31292772304914 1.09422467279819  5.20954411764706 1.20126561933766  C 5.20954411764706 1.20126561933766  1.03507352941179 5.3740891487498  1.03507352941179 5.3740891487498  Z " fill-rule="nonzero" fill="#409eff" stroke="none" transform="matrix(1 0 0 1 107 22 )" />
  </g>
</svg>