<?xml version="1.0" encoding="utf-8"?>
<svg version="1.1" xmlns:xlink="http://www.w3.org/1999/xlink" width="4px" height="4px" xmlns="http://www.w3.org/2000/svg">
  <g transform="matrix(1 0 0 1 -141 -18 )">
    <path d="M 0.12379768316529 3.24381145706891  C 0.12379768316529 3.24381145706891  1.37098277718907 2  1.37098277718907 2  C 1.37098277718907 2  0.12379768316529 0.756188542931095  0.12379768316529 0.756188542931095  C -0.0433340320920452 0.583612391899215  -0.0409438134972412 0.309293957707558  0.129169851167904 0.139640450679312  C 0.299283515833049 -0.0300130563489332  0.574345994310301 -0.0323968093999938  0.747390230177178 0.13428281439664  C 0.747390230177178 0.13428281439664  1.99457532420095 1.37809427146555  1.99457532420095 1.37809427146555  C 1.99457532420095 1.37809427146555  3.24176041822473 0.13428281439664  3.24176041822473 0.13428281439664  C 3.35248755287823 0.0199486637307051  3.51645773876104 -0.025905234119664  3.67064890414717 0.0143451030571995  C 3.8248400695333 0.0545954402340629  3.94525647848425 0.174686122675652  3.98561598817611 0.328460200801714  C 4.02597549786796 0.482234278927777  3.97999722875261 0.645760925290076  3.86535296523662 0.756188542931095  C 3.86535296523662 0.756188542931095  2.61816787121284 2  2.61816787121284 2  C 2.61816787121284 2  3.86535296523662 3.24381145706891  3.86535296523662 3.24381145706891  C 3.97999722875261 3.35423907470993  4.02597549786796 3.51776572107223  3.9856159881761 3.67153979919829  C 3.94525647848424 3.82531387732435  3.82484006953329 3.94540455976593  3.67064890414716 3.9856548969428  C 3.51645773876104 4.02590523411966  3.35248755287823 3.9800513362693  3.24176041822473 3.86571718560337  C 3.24176041822473 3.86571718560337  1.99457532420095 2.62190572853446  1.99457532420095 2.62190572853446  C 1.99457532420095 2.62190572853446  0.747390230177178 3.86571718560337  0.747390230177178 3.86571718560337  C 0.574345994310303 4.03239680940001  0.299283515833041 4.03001305634896  0.129169851167892 3.86035954932071  C -0.0409438134972568 3.69070604229246  -0.0433340320920562 3.41638760810079  0.12379768316529 3.24381145706891  Z " fill-rule="nonzero" fill="#409eff" stroke="none" transform="matrix(1 0 0 1 141 18 )" />
  </g>
</svg>