<?xml version="1.0" encoding="utf-8"?>
<svg version="1.1" xmlns:xlink="http://www.w3.org/1999/xlink" width="14px" height="14px" xmlns="http://www.w3.org/2000/svg">
  <g transform="matrix(1 0 0 1 -136 -13 )">
    <path d="M 7 0  C 10.8659932488156 0  14 3.13400675118445  14 7  C 14 10.8659932488156  10.8659932488156 14  7 14  C 3.13400675118445 14  0 10.8659932488156  0 7  C 0 3.13400675118445  3.13400675118444 0  7 0  Z M 7 1  C 3.68629153593083 1.0000000493781  1.00000008940697 3.68629153593083  1.00000008940697 7  C 1.00000008940697 10.3137084640692  3.68629153593083 12.9999999506219  7 13  C 9.14359356074367 13.000000031942  11.1243557076197 11.8564064994787  12.1961524972124 10.0000000258096  C 13.2679492868052 8.14359355214048  13.2679492868052 5.85640644785952  12.1961524972124 3.99999997419043  C 11.1243557076197 2.14359350052135  9.14359356074367 0.999999968057968  7 1  Z " fill-rule="nonzero" fill="#c0c4cc" stroke="none" transform="matrix(1 0 0 1 136 13 )" />
  </g>
</svg>