<?xml version="1.0" encoding="utf-8"?>
<svg version="1.1" xmlns:xlink="http://www.w3.org/1999/xlink" width="12px" height="17px" xmlns="http://www.w3.org/2000/svg">
  <g transform="matrix(1 0 0 1 -16 -12 )">
    <path d="M 11.1476043438208 10.9267478280897  C 11.1476043438208 9.31541271419201  10.3963299341054 7.87968661861214  9.22508982947147 6.95027327675416  C 9.87126281920401 6.21302338932833  10.2637294508094 5.24791626328988  10.2637294508094 4.1905772788989  C 10.2637294508094 1.8764761029704  8.3877983497125 0.000600000000076761  6.0736971737838 0.000600000000076761  L 3.60576623768131 0.000600000000076761  L 1 0.000600000000076761  L 1 16.0006000000001  L 3.60576623768131 16.0006000000001  L 6.07375217191043 16.0006000000001  C 8.87596172164764 16.0006000000001  11.1476043438208 13.7289573778269  11.1476043438208 10.9267478280897  Z M 6.07375217191043 8.38055455779795  C 7.47774434842692 8.38055455779795  8.62000044032879 9.52275565157311  8.62000044032879 10.9267478280897  C 8.62000044032879 12.3307400046062  7.47774434842692 13.472996096508  6.0736971737838 13.472996096508  L 3.60582123580794 13.472996096508  L 3.60582123580794 8.38055455779795  L 6.07375217191043 8.38055455779795  Z M 7.73612554731733 4.1905772788989  C 7.73612554731733 5.10717605725313  6.99040594839117 5.85289565617927  6.0736971737838 5.85289565617927  L 3.60582123580794 5.85289565617927  L 3.60582123580794 2.52820390349211  C 3.60582123580794 2.52820390349211  6.07309219439091 2.52820390349211  6.07375217191043 2.52820390349211  C 6.99040594839117 2.52820390349211  7.73612554731733 3.27392350241826  7.73612554731733 4.1905772788989  Z " fill-rule="nonzero" fill="#1d50a2" stroke="none" transform="matrix(1 0 0 1 16 12 )" />
  </g>
</svg>