<?xml version="1.0" encoding="utf-8"?>
<svg version="1.1" xmlns:xlink="http://www.w3.org/1999/xlink" width="12px" height="12px" xmlns="http://www.w3.org/2000/svg">
  <g transform="matrix(1 0 0 1 -1328 -124 )">
    <path d="M 1.942 1.58047603959417  C 1.942 1.58047603959417  1.942 0.790512130887783  1.942 0.790512130887783  C 1.942 0.514382371586982  1.7181423749154 0.290534973478674  1.442 0.290534973478674  C 1.1658576250846 0.290534973478674  0.942000000000002 0.514382371586982  0.942000000000002 0.790512130887783  C 0.942000000000002 0.790512130887783  0.942000000000002 3.11940573009941  0.942000000000002 3.11940573009941  C 0.942000000000002 3.39553548940021  1.1658576250846 3.61938288750852  1.442 3.61938288750852  C 1.442 3.61938288750852  3.77 3.61938288750852  3.77 3.61938288750852  C 4.0461423749154 3.61938288750852  4.27 3.39553548940021  4.27 3.11940573009941  C 4.27 2.84327597079861  4.0461423749154 2.6194285726903  3.77 2.6194285726903  C 3.77 2.6194285726903  2.317 2.6194285726903  2.317 2.6194285726903  C 3.86526491873152 0.932675158558724  6.36147755338559 0.513058957467274  8.37619277570545 1.60087133164236  C 10.3909079980253 2.68868370581744  11.4092607449904 5.00593172584676  10.848095818687 7.22565355874826  C 10.2869308923837 9.44537539164977  8.28965526762669 11.0003160682229  6 11.0000456851818  C 4.67391755080228 11.0000456851818  3.40214798630744 10.4732855495867  2.46446609406726 9.53564649551424  C 1.52678420182709 8.59800744144177  1 7.32629597797067  1 6.0002741110907  C 1 6.0002741110907  0 6.0002741110907  0 6.0002741110907  C 0 9.31383122270031  2.68629150101524 12  6 12  C 9.31370849898476 12  12 9.31383122270031  12 6.0002741110907  C 12.0001689379211 3.62000460265413  10.5931424267214 1.4647227180982  8.41390576527058 0.50709834012892  C 6.23466910381973 -0.450526037840357  3.6953763820799 -0.0293795813273267  1.942 1.58047603959417  Z " fill-rule="nonzero" fill="#409eff" stroke="none" transform="matrix(1 0 0 1 1328 124 )" />
  </g>
</svg>