<?xml version="1.0" encoding="utf-8"?>
<svg version="1.1" xmlns:xlink="http://www.w3.org/1999/xlink" width="11px" height="13px" xmlns="http://www.w3.org/2000/svg">
  <g transform="matrix(1 0 0 1 -2 -1 )">
    <path d="M 1.83333333333333 3.94642857142857  C 1.83333333333333 1.89508521491421  3.47495591728708 0.232142857142857  5.5 0.232142857142857  C 7.5250440827129 0.232142857142857  9.16666666666667 1.89508521491418  9.16666666666667 3.94642857142857  C 9.16666666666667 5.99777192794296  7.5250440827129 7.66071428571429  5.5 7.66071428571429  C 3.47495591728708 7.66071428571429  1.83333333333333 5.99777192794296  1.83333333333333 3.94642857142857  Z M 8.25 3.94642857142857  C 8.25 2.4079210540428  7.01878306203467 1.16071428571429  5.5 1.16071428571429  C 3.98121693796533 1.16071428571429  2.75 2.4079210540428  2.75 3.94642857142857  C 2.75 5.48493608881434  3.98121693796533 6.73214285714286  5.5 6.73214285714286  C 7.01878306203467 6.73214285714286  8.25 5.48493608881434  8.25 3.94642857142857  Z M 11 12.3035714285714  C 11 12.5599893481357  10.7947971770058 12.7678571428571  10.5416666666667 12.7678571428571  C 10.2885361563276 12.7678571428571  10.0833333333333 12.5599893481357  10.0833333333333 12.3035714285714  C 10.0833333333333 12.3035714285714  10.0833333333333 10.9107142857143  10.0833333333333 10.9107142857143  C 10.0833333333333 10.1414605270214  9.46772486435067 9.51785714285714  8.70833333333333 9.51785714285714  C 8.70833333333333 9.51785714285714  2.29166666666667 9.51785714285714  2.29166666666667 9.51785714285714  C 1.53227513564933 9.51785714285714  0.916666666666667 10.1414605270214  0.916666666666667 10.9107142857143  C 0.916666666666667 10.9107142857143  0.916666666666667 12.3035714285714  0.916666666666667 12.3035714285714  C 0.916666666666667 12.5599893481357  0.711463843672445 12.7678571428571  0.458333333333333 12.7678571428571  C 0.205202822994221 12.7678571428571  0 12.5599893481357  0 12.3035714285714  C 0 12.3035714285714  0 10.9107142857143  0 10.9107142857143  C 0 9.62862468789281  1.02601411497111 8.58928571428571  2.29166666666667 8.58928571428571  C 2.29166666666667 8.58928571428571  8.70833333333333 8.58928571428571  8.70833333333333 8.58928571428571  C 9.97398588502889 8.58928571428571  11 9.62862468789281  11 10.9107142857143  C 11 10.9107142857143  11 12.3035714285714  11 12.3035714285714  Z " fill-rule="nonzero" fill="#606266" stroke="none" transform="matrix(1 0 0 1 2 1 )" />
  </g>
</svg>