<?xml version="1.0" encoding="utf-8"?>
<svg version="1.1" xmlns:xlink="http://www.w3.org/1999/xlink" width="9px" height="5px" xmlns="http://www.w3.org/2000/svg">
  <g transform="matrix(1 0 0 1 -679 -164 )">
    <path d="M 8.3753046902103 0.112099256841204  L 4.49960303259679 4.0970469145219  C 4.49960303259679 4.0970469145219  0.623901374983275 0.112099256841204  0.623901374983275 0.112099256841204  C 0.479884767333867 -0.0362758476121796  0.249917040798784 -0.0362758476121796  0.105900433149376 0.112099256841203  C 0.0381685490565772 0.182097965437788  0 0.27790703380283  0 0.377926019720149  C 0 0.477945005637467  0.0381685490565775 0.573754074002511  0.105900433149376 0.643752782599095  C 0.105900433149376 0.643752782599095  4.22897080400393 4.88389413264358  4.22897080400393 4.88389413264358  C 4.37954430239054 5.03870195578547  4.61966176280303 5.03870195578547  4.77023526118965 4.88389413264358  C 4.77023526118965 4.88389413264358  8.8933056320442 0.644570711100263  8.8933056320442 0.644570711100263  C 8.96152178566622 0.574513756445919  9 0.478351121224731  9 0.37792601972015  C 9 0.27750091821557  8.96152178566622 0.181338282994383  8.8933056320442 0.111281328340038  C 8.74928902439479 -0.0370937761133459  8.51932129785971 -0.0370937761133459  8.3753046902103 0.111281328340038  Z " fill-rule="nonzero" fill="#000000" stroke="none" transform="matrix(1 0 0 1 679 164 )" />
  </g>
</svg>