<?xml version="1.0" encoding="utf-8"?>
<svg version="1.1" xmlns:xlink="http://www.w3.org/1999/xlink" width="12px" height="12px" xmlns="http://www.w3.org/2000/svg">
  <g transform="matrix(1 0 0 1 -409 -22 )">
    <path d="M 0.759905585498144 6.67885714285714  C 0.759905585498144 6.67885714285714  4.13146114105371 9.93257142857143  4.13146114105371 9.93257142857143  C 4.13146114105371 9.93257142857143  4.13146114105371 0.428571428571429  4.13146114105371 0.428571428571429  C 4.13146114105371 0.191877964358231  4.33044569668447 0  4.57590558549815 0  C 4.82136547431183 0  5.02035002994259 0.191877964358231  5.02035002994259 0.428571428571429  C 5.02035002994259 0.428571428571429  5.02035002994259 10.9654285714286  5.02035002994259 10.9654285714286  C 5.02031198512499 11.1386310255556  4.91216298628529 11.2947853130154  4.74626468950017 11.3611751941355  C 4.58036639271505 11.4275650752555  4.38933494615412 11.3911380820991  4.26212780772036 11.2688571428571  C 4.26212780772036 11.2688571428571  0.130572252164812 7.28571428571429  0.130572252164812 7.28571428571429  C 0.046979629331367 7.20531063170557  0 7.09613765216421  0 6.98228571428572  C 0 6.86843377640722  0.046979629331367 6.75926079686586  0.130572252164812 6.67885714285714  C 0.30402547446402 6.51212104726671  0.586452363198936 6.51212104726671  0.759905585498144 6.67885714285714  Z M 7.24257225216479 12  C 6.99711236335111 12  6.79812780772035 11.8081220356418  6.79812780772035 11.5714285714286  C 6.79812780772035 11.5714285714286  6.79812780772035 1.03457142857143  6.79812780772035 1.03457142857143  C 6.7985242979307 0.861524908729534  6.90680478518809 0.705687083651615  7.07262286302385 0.639516756241937  C 7.23844094085964 0.573346428832259  7.42925754145623 0.609828436445086  7.55635002994258 0.732  C 7.55635002994258 0.732  11.6879055854981 4.71428571428571  11.6879055854981 4.71428571428571  C 11.7714982083316 4.79468936829443  11.8184778376629 4.90386234783579  11.8184778376629 5.01771428571428  C 11.8184778376629 5.13156622359278  11.7714982083316 5.24073920313414  11.6879055854981 5.32114285714286  C 11.5144523631989 5.48787895273329  11.232025474464 5.48787895273329  11.0585722521648 5.32114285714286  C 11.0585722521648 5.32114285714286  7.68701669660924 2.06914285714286  7.68701669660924 2.06914285714286  C 7.68701669660924 2.06914285714286  7.68701669660924 11.5714285714286  7.68701669660924 11.5714285714286  C 7.68701669660924 11.8081220356418  7.48803214097848 12  7.24257225216479 12  Z " fill-rule="nonzero" fill="#606266" stroke="none" transform="matrix(1 0 0 1 409 22 )" />
  </g>
</svg>