<?xml version="1.0" encoding="utf-8"?>
<svg version="1.1" xmlns:xlink="http://www.w3.org/1999/xlink" width="12px" height="12px" xmlns="http://www.w3.org/2000/svg">
  <g transform="matrix(1 0 0 1 -193 -22 )">
    <path d="M 0.500000000000008 12  C 0.223857625084601 12  0 11.7761423749154  0 11.5  C 0 11.2238576250846  0.223857625084601 11  0.500000000000008 11  C 0.500000000000008 11  11.5 11  11.5 11  C 11.7761423749154 11  12 11.2238576250846  12 11.5  C 12 11.7761423749154  11.7761423749154 12  11.5 12  C 11.5 12  0.500000000000008 12  0.500000000000008 12  Z M 5.49999999999999 0  L 6.49999999999998 0  L 6.49999999999998 7.03599999999999  L 10.192 3.343  L 10.899 4.05  L 5.95 8.99999999999999  L 0.999999999999992 4.05  L 1.707 3.343  L 5.49999999999999 7.13599999999999  L 5.49999999999999 0  Z " fill-rule="nonzero" fill="#606266" stroke="none" transform="matrix(1 0 0 1 193 22 )" />
  </g>
</svg>