<?xml version="1.0" encoding="utf-8"?>
<svg version="1.1" xmlns:xlink="http://www.w3.org/1999/xlink" width="8px" height="8px" xmlns="http://www.w3.org/2000/svg">
  <g transform="matrix(1 0 0 1 -1324 -71 )">
    <path d="M 7.28388149105201 0.129313856466007  L 4.00041624313365 3.4131287274839  C 4.00041624313365 3.4131287274839  0.716951888867055 0.129313856466007  0.716951888867055 0.129313856466007  C 0.637979807839054 0.0570394163811724  0.534170339161697 0.0180241466859784  0.427149557687058 0.0203956806991247  C 0.32012877621242 0.022767214712271  0.218149431880749 0.0663428207233731  0.142455737179796 0.142044588445856  C 0.066762042478843 0.217746356168339  0.0231910850283466 0.319736552160122  0.0208198039213837 0.426768747809699  C 0.0184485228144207 0.533800943459276  0.0574596302744196 0.6376214838128  0.12972636283632 0.716601987514751  C 0.12972636283632 0.716601987514751  3.41152514880047 4.00041668474849  3.41152514880047 4.00041668474849  C 3.41152514880047 4.00041668474849  0.128893479390454 7.28339836005356  0.128893479390454 7.28339836005356  C 0.0887892149289095 7.32162187438027  0.0567301637482813 7.3674778894421  0.0346007100609401 7.41827075233544  C 0.0124712563735989 7.46906361522877  0.000717939263186182 7.52376814219675  3.18754038518607E-05 7.57916905950896  C -0.000654188455482461 7.63456997682117  0.00974082907251756 7.68954911688851  0.03060568948858 7.74087451959853  C 0.0514705499046424 7.79219992230855  0.0823841737946152 7.83883613822613  0.121529590249743 7.87804125993313  C 0.160675006704871 7.91724638164013  0.20726211896054 7.94822948641917  0.258552421165765 7.96916930082067  C 0.30984272337099 7.99010911522217  0.364801224044753 8.00058298154016  0.420197145537247 7.99997537230276  C 0.475593067029741 7.99936776306536  0.530308581305977 7.98769065269902  0.581127345674532 7.96563085683632  C 0.631946110043087 7.94357106097361  0.677842758397174 7.91157400789357  0.716119005421189 7.87151968681514  C 0.716119005421189 7.87151968681514  4.00041624313365 4.58853801151007  4.00041624313365 4.58853801151007  C 4.00041624313365 4.58853801151007  7.28388149105201 7.87235226187028  7.28388149105201 7.87235226187028  C 7.36285357208001 7.94462670195511  7.46666284216809 7.98364256748169  7.57368362364273 7.98127103346854  C 7.68070440511737 7.9788994994554  7.78268355085976 7.9353238934443  7.85837724556071 7.85962212572181  C 7.93407094026166 7.78392035799933  7.97764189926364 7.68192954134985  7.9800131803706 7.57489734570028  C 7.98238446147756 7.4678651500507  7.94337355105537 7.36404480830764  7.87110681849347 7.28506430460569  C 7.87110681849347 7.28506430460569  4.58764157057511 4.00125005424548  4.58764157057511 4.00125005424548  C 4.58764157057511 4.00125005424548  7.87110681849347 0.716601987514751  7.87110681849347 0.716601987514751  C 7.91121108295501 0.678378473188035  7.94326993864932 0.632522458126212  7.96539939233666 0.581729595232872  C 7.987528846024 0.530936732339533  7.99928216185565 0.476232006761097  7.99996822571499 0.420831089448889  C 8.00065428957432 0.36543017213668  7.9902590747358 0.310451056895641  7.96939421431974 0.259125654185621  C 7.94852935390367 0.207800251475601  7.91761592550003 0.161164234168487  7.8784705090449 0.121959112461486  C 7.83932509258977 0.0827539907544844  7.79273817892338 0.05177088597545  7.74144787671816 0.0308310715739472  C 7.69015757451293 0.00989125717244443  7.63519847807132 -0.00058260963800651  7.57980255657883 2.49995993921283E-05  C 7.52440663508634 0.000632608836790766  7.46969171657795 0.0123095210851321  7.41887295220939 0.0343693169478378  C 7.36805418784084 0.0564291128105436  7.32215773807603 0.088426563111503  7.28388149105201 0.128480884189942  Z " fill-rule="nonzero" fill="#a8abb2" stroke="none" transform="matrix(1 0 0 1 1324 71 )" />
  </g>
</svg>