<?xml version="1.0" encoding="utf-8"?>
<svg version="1.1" xmlns:xlink="http://www.w3.org/1999/xlink" width="14px" height="14px" xmlns="http://www.w3.org/2000/svg">
  <g transform="matrix(1 0 0 1 -1243 -123 )">
    <path d="M 11.8338355310696 11.1022458237654  C 11.8338355310696 11.1022458237654  11.8338355310696 11.103280036017  11.8338355310696 11.103280036017  C 11.8338355310696 11.103280036017  13.8547622577096 13.1231725504053  13.8547622577096 13.1231725504053  C 13.9490090817733 13.2207534877613  14.0011590952082 13.3514476433925  13.999980263125 13.4871057233202  C 13.9988014310417 13.6227638032479  13.9443876539362 13.7525309194007  13.8484592866685 13.8484592866685  C 13.7525309194007 13.9443876539362  13.6227638032479 13.9988014310417  13.4871057233202 13.999980263125  C 13.3514476433925 14.0011590952082  13.2207534877613 13.9490090817733  13.1231725504053 13.8547622577096  C 13.1231725504053 13.8547622577096  11.1022458237654 11.8338355310696  11.1022458237654 11.8338355310696  C 9.78161734597819 12.9653090058021  8.07407444805653 13.5412991499733  6.33792356655482 13.4409411726227  C 4.60177268505312 13.3405831952721  2.97197161090189 12.571678743872  1.79051301988779 11.2955724620687  C 0.609054428873695 10.0194661802655  -0.0322220062122486 8.33535453031418  0.00124718125250257 6.59662761655453  C 0.0347163687172537 4.85790070279488  0.74032944227891 3.19971627537255  1.97002285882573 1.97002285882573  C 3.19971627537255 0.74032944227891  4.85790070279488 0.0347163687172537  6.59662761655453 0.00124718125250257  C 8.33535453031418 -0.0322220062122486  10.0194661802655 0.609054428873695  11.2955724620687 1.79051301988779  C 12.571678743872 2.97197161090189  13.3405831952721 4.60177268505312  13.4409411726227 6.33792356655482  C 13.5412991499733 8.07407444805653  12.9653090058021 9.78161734597819  11.8338355310696 11.1022458237654  Z M 2.70180598750529 10.7505110264634  C 3.76913054765669 11.8178355866148  5.21673337377983 12.4174519652042  6.72615826027341 12.4174519652042  C 8.235583146767 12.4174519652042  9.68318646631201 11.8178355866148  10.7505110264634 10.7505110264634  C 11.8178355866148 9.68318646631201  12.4174519652042 8.235583146767  12.4174519652042 6.72615826027341  C 12.4174519652042 5.21673337377983  11.8178355866148 3.76913054765669  10.7505110264634 2.70180598750529  C 9.68318646631201 1.63448142735389  8.235583146767 1.03486455534266  6.72615826027341 1.03486455534266  C 5.21673337377983 1.03486455534266  3.76913054765669 1.63448142735389  2.70180598750529 2.70180598750529  C 1.63448142735389 3.76913054765669  1.03486455534266 5.21673337377983  1.03486455534266 6.72615826027341  C 1.03486455534266 8.235583146767  1.63448142735389 9.68318646631201  2.70180598750529 10.7505110264634  Z " fill-rule="nonzero" fill="#ffffff" stroke="none" transform="matrix(1 0 0 1 1243 123 )" />
  </g>
</svg>