<?xml version="1.0" encoding="utf-8"?>
<svg version="1.1" xmlns:xlink="http://www.w3.org/1999/xlink" width="5px" height="10px" xmlns="http://www.w3.org/2000/svg">
  <g transform="matrix(1 0 0 1 -1185 -558 )">
    <path d="M 0.114994323070004 0.108245614323705  C 0.0383314796442291 0.198234690489743  0 0.29713630370176  0 0.404950691730573  C 0 0.512765079759385  0.0383314796442291 0.607066791596167  0.114994323070004 0.687855705142389  C 0.114994323070004 0.687855705142389  4.10500892088999 5.00043102065527  4.10500892088999 5.00043102065527  C 4.10500892088999 5.00043102065527  0.114994323070004 9.31300654180777  0.114994323070004 9.31300654180777  C 0.0383314796442291 9.39379545535399  0 9.48809716719077  0 9.59591155521959  C 0 9.7037259432484  0.0383314796442291 9.79802765508518  0.114994323070004 9.8788165686314  C 0.191657166495779 9.95960548217763  0.281142679445392 10  0.383450746056161 10  C 0.48575881266693 10  0.575244325616544 9.96406187279914  0.651907169042318 9.89218561197119  C 0.651907169042318 9.89218561197119  4.88500567693 5.29670507740687  4.88500567693 5.29670507740687  C 4.96166852035577 5.21591616386065  5 5.11701455064863  5 5  C 5 4.88298544935137  4.96166852035577 4.78408383613935  4.88500567693 4.70329492259313  C 4.88500567693 4.70329492259313  0.651907169042318 0.107814388028813  0.651907169042318 0.107814388028813  C 0.575244325616544 0.0359381272008581  0.48575881266693 0  0.383450746056161 0  C 0.281142679445392 0  0.191657166495779 0.0359381272008581  0.114994323070004 0.107814388028813  Z " fill-rule="nonzero" fill="#606266" stroke="none" transform="matrix(1 0 0 1 1185 558 )" />
  </g>
</svg>