<?xml version="1.0" encoding="utf-8"?>
<svg version="1.1" xmlns:xlink="http://www.w3.org/1999/xlink" width="5px" height="10px" xmlns="http://www.w3.org/2000/svg">
  <g transform="matrix(1 0 0 1 -848 -558 )">
    <path d="M 4.34809283095768 0.107392419404117  C 4.34809283095768 0.107392419404117  0.114994323070004 4.7032693431847  0.114994323070004 4.7032693431847  C 0.0383314796442291 4.78406522166942  0 4.88067480105942  0 4.99309896182522  C 0 5.10552312259103  0.0383314796442291 5.20659029299757  0.114994323070004 5.29629959900106  C 0.114994323070004 5.29629959900106  4.34809283095768 9.8921763171243  4.34809283095768 9.8921763171243  C 4.42475567438346 9.96405877451703  4.51424118733307 10  4.61654925394384 10  C 4.71885732055461 10  4.80834283350422 9.95960199970311  4.88500567693 9.87880612121839  C 4.96166852035577 9.79801024273367  5 9.70370040099894  5 9.59587671812323  C 5 9.48805303524753  4.96166852035577 9.39374319351279  4.88500567693 9.31294731502807  C 4.88500567693 9.31294731502807  0.894991079110006 5  0.894991079110006 5  C 0.894991079110006 5  4.88500567693 0.687052479314572  4.88500567693 0.687052479314572  C 4.96166852035577 0.606256600829852  5 0.511946759095114  5 0.404123076219412  C 5 0.29629939334371  4.96166852035577 0.201989757266327  4.88500567693 0.121193878781607  C 4.80834283350422 0.040398000296887  4.71885732055461 0  4.61654925394384 0  C 4.51424118733307 0  4.42475567438346 0.0359412254829698  4.34809283095768 0.107823682875702  Z " fill-rule="nonzero" fill="#606266" stroke="none" transform="matrix(1 0 0 1 848 558 )" />
  </g>
</svg>