<?xml version="1.0" encoding="utf-8"?>
<svg version="1.1" xmlns:xlink="http://www.w3.org/1999/xlink" width="12px" height="3px" xmlns="http://www.w3.org/2000/svg">
  <g transform="matrix(1 0 0 1 -908 -562 )">
    <path d="M 0.435428585324969 0.435428483145578  C 0.716857169355665 0.154285618237087  1.07171429055078 0.00914285704493523  1.5 0  C 1.92857142857143 0.00885714271238872  2.28342865194593 0.153999899114881  2.56457151685442 0.435428483145578  C 2.84571438176291 0.716857067176274  2.99085714295506 1.07171429055078  3 1.5  C 2.99114285728761 1.92857142857143  2.84600010088512 2.28342824322837  2.56457151685442 2.56457110813686  C 2.28314293282373 2.84571397304535  1.92828570944922 2.99085714295506  1.5 3  C 1.07142857142857 2.99114285728761  0.716571450233459 2.84599969216755  0.435428585324969 2.56457110813686  C 0.154285720416478 2.28314252410616  0.00914285704493523 1.92828570944922  0 1.5  C 0.00885714271238872 1.07142857142857  0.154000001294272 0.716571348054068  0.435428585324969 0.435428483145578  Z M 4.93542848314558 0.435428483145578  C 5.21685706717627 0.154285618237087  5.57171429055078 0.00914285704493523  6 0  C 6.42857142857143 0.00885714271238872  6.78342824322837 0.153999899114881  7.06457110813686 0.435428483145578  C 7.34571397304535 0.716857067176274  7.49085714295506 1.07171429055078  7.5 1.5  C 7.49114285728761 1.92857142857143  7.34599969216755 2.28342824322837  7.06457110813686 2.56457110813686  C 6.78314252410616 2.84571397304535  6.42828570944922 2.99085714295506  6 3  C 5.57142857142857 2.99114285728761  5.21657134805407 2.84599969216755  4.93542848314558 2.56457110813686  C 4.65428561823709 2.28314252410616  4.50914285704494 1.92828570944922  4.5 1.5  C 4.50885714271239 1.07142857142857  4.65399989911488 0.716571348054068  4.93542848314558 0.435428483145578  Z M 9.43542889186314 0.435428483145578  C 9.71685747589384 0.154285618237087  10.0717142905508 0.00914285704493523  10.5 0  C 10.9285714285714 0.00885714271238872  11.2834282432284 0.153999899114881  11.5645711081369 0.435428483145578  C 11.8457139730453 0.716857067176274  11.9908571429551 1.07171429055078  12 1.5  C 11.9911428572876 1.92857142857143  11.8459996921676 2.28342824322837  11.5645711081369 2.56457110813686  C 11.2831425241062 2.84571397304535  10.9282857094492 2.99085714295506  10.5 3  C 10.0714285714286 2.99114285728761  9.71657175677163 2.84599969216755  9.43542889186314 2.56457110813686  C 9.15428602695465 2.28314252410616  9.00914285704494 1.92828570944922  9 1.5  C 9.00885714271239 1.07142857142857  9.15400030783245 0.716571348054068  9.43542889186314 0.435428483145578  Z " fill-rule="nonzero" fill="#606266" stroke="none" transform="matrix(1 0 0 1 908 562 )" />
  </g>
</svg>